<?xml version="1.0" encoding="UTF-8"?>
<!DOCTYPE svg PUBLIC "-//W3C//DTD SVG 1.1//EN" "http://www.w3.org/Graphics/SVG/1.1/DTD/svg11.dtd">
<svg xmlns="http://www.w3.org/2000/svg" version="1.1" width="512px" height="512px" style="shape-rendering:geometricPrecision; text-rendering:geometricPrecision; image-rendering:optimizeQuality; fill-rule:evenodd; clip-rule:evenodd" xmlns:xlink="http://www.w3.org/1999/xlink">
<g><path style="opacity:0.989" fill="#000000" d="M 256.5,91.5 C 317.901,88.7762 364.401,113.443 396,165.5C 416.959,206.259 418.959,247.925 402,290.5C 395.808,297.68 387.975,301.847 378.5,303C 355.525,304.958 332.859,302.958 310.5,297C 257.976,284.23 209.643,262.563 165.5,232C 157.579,225.956 150.412,219.123 144,211.5C 137.704,203.947 135.038,195.28 136,185.5C 157.908,130.792 198.074,99.4591 256.5,91.5 Z"/></g>
<g><path style="opacity:0.982" fill="#000000" d="M 511.5,340.5 C 511.5,347.5 511.5,354.5 511.5,361.5C 506.689,380.155 495.689,393.989 478.5,403C 451.306,415.006 422.806,420.506 393,419.5C 330.982,417.496 271.149,404.996 213.5,382C 167.835,364.174 125.169,341.174 85.5,313C 56.5803,292.748 32.4137,267.914 13,238.5C 6.9934,227.624 2.4934,216.291 -0.5,204.5C -0.5,197.167 -0.5,189.833 -0.5,182.5C 4.37165,165.119 14.705,151.953 30.5,143C 50.9453,132.805 72.612,127.138 95.5,126C 113.221,125.03 130.887,125.53 148.5,127.5C 137.312,141.198 128.146,156.198 121,172.5C 115.193,186.083 115.86,199.417 123,212.5C 131.377,225.215 141.544,236.381 153.5,246C 211.91,286.856 276.577,312.189 347.5,322C 367.477,324.766 386.477,321.766 404.5,313C 409.667,309.167 414.167,304.667 418,299.5C 426.691,279.707 431.691,259.04 433,237.5C 458.836,256.667 480.503,279.667 498,306.5C 504.398,317.217 508.898,328.551 511.5,340.5 Z M 38.5,177.5 C 48.4578,176.822 54.7912,181.156 57.5,190.5C 53.5067,202.505 45.1733,207.338 32.5,205C 24.0409,202.585 20.8743,197.085 23,188.5C 26.4316,182.216 31.5983,178.549 38.5,177.5 Z M 221.5,330.5 C 232.943,330.787 240.777,336.12 245,346.5C 246.047,354.142 242.881,359.309 235.5,362C 224.911,364.14 216.411,360.974 210,352.5C 205.138,340.557 208.971,333.224 221.5,330.5 Z M 461.5,342.5 C 474.176,343.171 481.509,349.838 483.5,362.5C 481.816,374.006 475.482,377.84 464.5,374C 454.471,368.117 450.971,359.617 454,348.5C 456.134,345.847 458.634,343.847 461.5,342.5 Z"/></g>
</svg>
