<?xml version="1.0" standalone="no"?>
<!DOCTYPE svg PUBLIC "-//W3C//DTD SVG 20010904//EN"
 "http://www.w3.org/TR/2001/REC-SVG-20010904/DTD/svg10.dtd">
<svg version="1.0" xmlns="http://www.w3.org/2000/svg"
 width="512.000000pt" height="512.000000pt" viewBox="0 0 512.000000 512.000000"
 preserveAspectRatio="xMidYMid meet">

<g transform="translate(0.000000,512.000000) scale(0.100000,-0.100000)"
fill="#000000" stroke="none">
<path d="M3398 4789 c-58 -30 -78 -79 -78 -189 l0 -90 245 0 c141 0 266 -5
297 -11 171 -36 310 -175 347 -347 16 -75 16 -2809 0 -2884 -27 -127 -114
-242 -227 -301 -97 -51 -144 -57 -417 -57 l-245 0 0 -240 c0 -222 2 -244 20
-280 13 -26 34 -47 60 -60 38 -20 57 -20 820 -20 763 0 782 0 820 20 26 13 47
34 60 60 20 39 20 54 20 2170 0 2116 0 2131 -20 2170 -13 26 -34 47 -60 60
-38 20 -57 20 -822 20 -760 -1 -784 -1 -820 -21z m1342 -2849 c45 -23 80 -80
80 -130 0 -76 -74 -150 -151 -150 -46 0 -108 39 -130 82 -37 72 -14 151 57
194 48 29 92 30 144 4z m0 -600 c45 -23 80 -80 80 -130 0 -76 -74 -150 -151
-150 -46 0 -108 39 -130 82 -37 72 -14 151 57 194 48 29 92 30 144 4z"/>
<path d="M78 4189 c-23 -12 -46 -35 -58 -59 -20 -39 -20 -56 -20 -1420 0
-1364 0 -1381 20 -1420 13 -26 34 -47 60 -60 39 -20 55 -20 1880 -20 1825 0
1841 0 1880 20 26 13 47 34 60 60 20 39 20 56 20 1420 0 1364 0 1381 -20 1420
-13 26 -34 47 -60 60 -39 20 -54 20 -1882 20 -1815 -1 -1844 -1 -1880 -21z"/>
<path d="M1510 820 c0 -112 -20 -159 -80 -190 -35 -18 -59 -20 -220 -20 -161
0 -185 -2 -220 -20 -45 -23 -80 -80 -80 -130 0 -50 35 -107 80 -130 38 -20 57
-20 975 -20 918 0 937 0 975 20 45 23 80 80 80 130 0 50 -35 107 -80 130 -35
18 -59 20 -226 20 -174 0 -189 1 -226 22 -60 34 -78 78 -78 188 l0 90 -450 0
-450 0 0 -90z"/>
</g>
</svg>
