<svg width="34" height="34" viewBox="0 0 34 34" fill="none" xmlns="http://www.w3.org/2000/svg">
<path d="M0.677441 0.13947C0.50486 0.225799 0.312366 0.398455 0.2128 0.551188L0.0335814 0.823454L0.0136682 4.70822C0.000392769 7.29142 0.0136682 8.67931 0.0601323 8.83869C0.159698 9.16408 0.35883 9.40978 0.670803 9.56252C0.916399 9.68869 1.0757 9.69533 4.84593 9.69533C8.0254 9.69533 8.80866 9.67541 8.98124 9.60236C9.24011 9.49611 9.52553 9.19728 9.61846 8.94494C9.66492 8.81877 9.69147 7.44416 9.69147 4.84103C9.69147 1.12892 9.68484 0.909782 9.56536 0.677361C9.41269 0.371892 9.26002 0.232439 8.94141 0.0996265C8.73564 0.013298 8.1648 1.71661e-05 4.83266 1.71661e-05C1.00933 1.71661e-05 0.956225 1.71661e-05 0.677441 0.13947ZM7.30189 4.88088V7.3047H4.87912H2.45635V4.88088V2.45705H4.87912H7.30189V4.88088Z" fill="white"/>
<path d="M12.8437 0.126189C12.5251 0.272283 12.3857 0.418376 12.2463 0.750407C12.16 0.956266 12.1467 1.534 12.1467 4.89416C12.1467 9.27697 12.1202 9.03791 12.6379 9.46291L12.8901 9.66212H16.9923H21.0944L21.3466 9.46291C21.8643 9.03791 21.8378 9.27697 21.8378 4.89416C21.8378 1.534 21.8245 0.956266 21.7382 0.750407C21.5988 0.418376 21.4594 0.272283 21.1408 0.126189C20.8952 0.013298 20.6165 1.71661e-05 16.9923 1.71661e-05C13.3681 1.71661e-05 13.0893 0.013298 12.8437 0.126189ZM19.4349 4.86095L19.415 7.2715H16.9923H14.5695L14.5496 4.86095L14.5363 2.45705H16.9923H19.4482L19.4349 4.86095Z" fill="white"/>
<path d="M25.0241 0.106267C24.7254 0.239079 24.5727 0.378532 24.4201 0.677361C24.3006 0.909782 24.2939 1.12892 24.2939 4.84103C24.2939 7.44416 24.3205 8.81877 24.367 8.94494C24.4599 9.19728 24.7453 9.49611 25.0042 9.60236C25.1768 9.67541 25.96 9.69533 29.1395 9.69533C32.9097 9.69533 33.069 9.68869 33.3146 9.56252C33.6266 9.40978 33.8257 9.16408 33.9253 8.83869C33.9718 8.67931 33.985 7.29142 33.9718 4.70822L33.9518 0.823454L33.7726 0.551188C33.6664 0.391814 33.4806 0.225799 33.308 0.13947C33.0159 1.71661e-05 32.9562 1.71661e-05 29.1328 1.71661e-05C25.8339 0.0066576 25.2232 0.0199385 25.0241 0.106267ZM31.5291 4.88088V7.3047H29.1063H26.6835V4.88088V2.45705H29.1063H31.5291V4.88088Z" fill="white"/>
<path d="M0.696961 12.2785C0.37835 12.4246 0.238958 12.5707 0.0995659 12.9028C0.0132755 13.1086 0 13.6797 0 17.0133C0 20.6258 0.0132755 20.9047 0.126117 21.1504C0.272147 21.4692 0.418177 21.6086 0.750063 21.7481C0.955833 21.8344 1.53331 21.8477 4.892 21.8477C9.2729 21.8477 9.03395 21.8742 9.45876 21.3563L9.65789 21.1039V17V12.8961L9.45876 12.6438C9.03395 12.1258 9.2729 12.1524 4.87873 12.1524C1.22134 12.1524 0.942557 12.1656 0.696961 12.2785ZM7.26831 17V19.4238L4.86545 19.4438L2.45596 19.457V17V14.543L4.86545 14.5563L7.26831 14.5762V17Z" fill="white"/>
<path d="M12.8439 12.2785C12.5253 12.4246 12.3859 12.5707 12.2465 12.9028C12.1602 13.1086 12.147 13.6797 12.147 17.0133C12.147 20.6258 12.1602 20.9047 12.2731 21.1504C12.4191 21.4692 12.5651 21.6086 12.897 21.7481C13.1028 21.8344 13.6736 21.8477 17.0058 21.8477C20.6167 21.8477 20.8955 21.8344 21.1411 21.7215C21.4597 21.5754 21.5991 21.4293 21.7385 21.0973C21.8912 20.7321 21.8912 13.268 21.7385 12.9028C21.5991 12.5707 21.4597 12.4246 21.1411 12.2785C20.8955 12.1657 20.6167 12.1524 16.9925 12.1524C13.3683 12.1524 13.0895 12.1657 12.8439 12.2785ZM19.4153 17V19.4239H16.9925H14.5697L14.5498 17.0664C14.5432 15.7715 14.5498 14.6692 14.5697 14.6227C14.5897 14.5563 15.114 14.543 17.0058 14.5563L19.4153 14.5762V17Z" fill="white"/>
<path d="M24.9577 12.2785C24.8316 12.3449 24.6391 12.511 24.5263 12.6438L24.3271 12.8961V17V21.1039L24.5263 21.3563C24.9511 21.8742 24.7121 21.8477 29.1063 21.8477C32.7637 21.8477 33.0425 21.8344 33.2881 21.7215C33.6067 21.5754 33.7461 21.4293 33.8855 21.0973C34.0381 20.732 34.0381 13.268 33.8855 12.9027C33.7461 12.5707 33.6067 12.4246 33.2881 12.2785C33.0425 12.1656 32.7637 12.1524 29.1063 12.1524C25.4157 12.1524 25.1768 12.159 24.9577 12.2785ZM31.5291 17V19.457L29.1262 19.4438L26.7167 19.4238L26.6968 17.0664C26.6902 15.7715 26.6968 14.6692 26.7167 14.6293C26.7366 14.5629 27.2809 14.543 29.1395 14.543H31.5291V17Z" fill="white"/>
<path d="M0.696961 24.4176C0.391626 24.577 0.258871 24.7164 0.126117 25.002C0.0132755 25.2477 0 25.5266 0 29.1457C0 32.9707 0 33.0305 0.139392 33.3227C0.225683 33.4953 0.391626 33.6813 0.550931 33.7875L0.823078 33.9668L4.70615 33.9867C7.28822 34 8.67551 33.9867 8.83481 33.9402C9.16006 33.8406 9.40566 33.6414 9.55833 33.3293C9.68444 33.0836 9.69108 32.9242 9.69108 29.1524C9.69108 25.9715 9.67117 25.1879 9.59815 25.0152C9.49195 24.7563 9.19325 24.4707 8.94102 24.3777C8.8149 24.3313 7.44753 24.3047 4.82563 24.3047C1.36737 24.3113 0.869542 24.3246 0.696961 24.4176ZM7.3015 29.1191V31.543H4.87873H2.45596V29.1191V26.6953H4.87873H7.3015V29.1191Z" fill="white"/>
<path d="M12.8106 24.4309C12.6845 24.4973 12.492 24.6633 12.3792 24.7961L12.1801 25.0484L12.1602 28.973C12.1469 31.5828 12.1602 32.984 12.2066 33.1434C12.3062 33.482 12.5252 33.7277 12.8372 33.8738C13.0894 33.9867 13.3549 34 16.9924 34C20.6299 34 20.8954 33.9867 21.1476 33.8738C21.4596 33.7277 21.6787 33.482 21.7782 33.1434C21.8247 32.984 21.838 31.5828 21.8247 28.973L21.8048 25.0484L21.6056 24.7961C21.1808 24.2781 21.4264 24.3047 16.9924 24.3047C13.2687 24.3047 13.0297 24.3113 12.8106 24.4309ZM19.4351 29.1324L19.4484 31.543H16.9924H14.5365V29.1656C14.5365 27.8574 14.5564 26.7617 14.5829 26.7418C14.6095 26.7152 15.7047 26.702 17.019 26.7086L19.4152 26.7285L19.4351 29.1324Z" fill="white"/>
<path d="M24.9909 24.3977C24.7453 24.5106 24.4599 24.8094 24.367 25.0551C24.3205 25.1813 24.2939 26.5559 24.2939 29.159C24.2939 32.9242 24.3006 33.0836 24.4267 33.3293C24.5794 33.6414 24.825 33.8406 25.1502 33.9402C25.3095 33.9867 26.6968 34 29.2789 33.9867L33.1619 33.9668L33.4341 33.7875C33.5934 33.6813 33.7593 33.4953 33.8456 33.3227C33.985 33.0305 33.985 32.9641 33.985 29.1656C33.985 25.832 33.9718 25.2609 33.8855 25.0551C33.7527 24.7363 33.6133 24.5836 33.308 24.4309C33.0757 24.3113 32.8566 24.3047 29.1262 24.3047C25.9866 24.3113 25.1502 24.3246 24.9909 24.3977ZM31.5291 29.1191V31.543H29.1063H26.6835V29.1191V26.6953H29.1063H31.5291V29.1191Z" fill="white"/>
</svg>
