<svg width="39" height="60" viewBox="0 0 39 60" fill="none" xmlns="http://www.w3.org/2000/svg">
<path d="M16.7856 14.4441C18.3658 14.4441 19.946 14.4441 21.574 14.4441C22.3818 16.9301 22.3818 16.9301 22.6572 18.1648C22.69 18.3115 22.7229 18.4582 22.7568 18.6094C23.4273 21.6647 23.8424 24.7738 24.0823 27.8943C24.092 28.0149 24.1018 28.1356 24.1118 28.2599C24.2317 29.8915 24.2571 31.5194 24.3103 33.1574C20.9242 33.1574 17.5381 33.1574 14.0493 33.1574C14.1845 28.997 14.1845 28.997 14.3058 27.58C14.313 27.4945 14.3201 27.4091 14.3274 27.321C14.6887 23.0376 15.2225 18.4527 16.7856 14.4441Z" fill="white"/>
<path d="M8.46871 51.6205C8.56349 51.6201 8.65828 51.6198 8.75594 51.6194C9.0747 51.6184 9.39345 51.6182 9.71222 51.6181C9.9403 51.6175 10.1684 51.6169 10.3965 51.6163C11.0169 51.6148 11.6374 51.614 12.2579 51.6135C12.6454 51.6131 13.0328 51.6127 13.4203 51.6121C14.6322 51.6105 15.8441 51.6094 17.056 51.609C18.4558 51.6084 19.8556 51.6064 21.2554 51.603C22.3369 51.6005 23.4183 51.5993 24.4998 51.5991C25.1459 51.599 25.7921 51.5983 26.4383 51.5962C27.0461 51.5943 27.6538 51.594 28.2616 51.5951C28.4847 51.5952 28.7078 51.5947 28.9309 51.5935C29.2355 51.592 29.54 51.5927 29.8445 51.5939C29.9328 51.593 30.0211 51.592 30.112 51.5911C30.7559 51.5971 31.2267 51.7372 31.704 52.1888C31.7585 52.2575 31.813 52.3263 31.8692 52.3971C31.9252 52.4659 31.9812 52.5346 32.0389 52.6055C32.3682 53.0896 32.3227 53.6297 32.3324 54.1954C32.3388 54.3363 32.3388 54.3363 32.3453 54.48C32.3526 54.9865 32.3373 55.1979 32.0304 55.6144C31.7558 55.8203 31.5965 55.9264 31.2635 55.9644C31.3185 56.0082 31.3734 56.0521 31.4301 56.0973C31.5021 56.1572 31.5741 56.217 31.6483 56.2787C31.7197 56.337 31.7911 56.3954 31.8647 56.4555C32.2478 56.8653 32.3262 57.3187 32.3395 57.8722C32.3254 58.5425 32.1627 58.9803 31.7196 59.4731C31.1381 59.96 30.6335 60.0222 29.8887 59.9926C29.2764 59.8983 28.8608 59.6505 28.4845 59.146C28.1643 58.5758 28.0762 58.0153 28.1852 57.3679C28.4045 56.6883 28.6481 56.4266 29.2113 55.9644C26.239 55.9644 23.2668 55.9644 20.2044 55.9644C20.4302 56.1573 20.6559 56.3503 20.8885 56.5491C21.2894 57.1387 21.3248 57.7244 21.2305 58.4205C21.0369 59.0441 20.7482 59.4664 20.2044 59.824C19.5922 60.0333 18.8634 60.0584 18.2431 59.861C17.6505 59.5425 17.3333 59.0579 17.1261 58.4205C17.0347 57.6662 17.1105 57.1447 17.527 56.5131C17.6962 56.3152 17.6962 56.3152 18.1522 55.9644C15.18 55.9644 12.2077 55.9644 9.14536 55.9644C9.3711 56.1573 9.59685 56.3503 9.82943 56.5491C10.1757 57.1648 10.273 57.7247 10.1715 58.4205C10.0179 58.9725 9.76703 59.3642 9.31638 59.707C8.71615 60.0465 8.10108 60.0397 7.4352 59.9409C6.84256 59.763 6.46509 59.3515 6.16727 58.812C5.92975 58.1612 5.98441 57.5053 6.19533 56.8562C6.45766 56.4794 6.73353 56.2431 7.09316 55.9644C6.96618 55.9137 6.8392 55.863 6.70838 55.8108C6.29509 55.6135 6.29509 55.6135 6.06706 55.2626C6.01883 54.9207 6.03009 54.577 6.03143 54.2319C6.0296 54.139 6.02776 54.046 6.02587 53.9503C6.02531 53.2603 6.13342 52.7622 6.60505 52.2377C6.67207 52.1817 6.73909 52.1258 6.80814 52.0682C6.87515 52.0107 6.94217 51.9533 7.01122 51.8941C7.46206 51.5714 7.94324 51.6199 8.46871 51.6205Z" fill="white"/>
<path d="M28.1864 8.71317C28.7491 9.03476 29.2858 9.37972 29.8182 9.75117C30.3118 10.0931 30.806 10.4244 31.3217 10.7307C32.3226 11.3437 32.9695 12.0039 33.2728 13.1992C33.6263 15.6787 32.8444 17.8524 31.4927 19.8754C30.2449 21.7479 29.4236 23.9897 29.4276 26.2802C29.4276 26.3612 29.4276 26.4423 29.4275 26.5259C29.4276 26.7917 29.4285 27.0575 29.4294 27.3232C29.4296 27.5084 29.4298 27.6936 29.4299 27.8788C29.4303 28.3645 29.4314 28.8501 29.4327 29.3358C29.4339 29.8321 29.4344 30.3284 29.435 30.8247C29.4362 31.7972 29.4381 32.7697 29.4405 33.7422C29.2375 33.8144 29.2375 33.8144 28.9845 33.8592C28.783 33.7484 28.5812 33.6371 28.3895 33.5092C27.9275 33.2411 27.4247 33.2433 26.9038 33.2086C26.7598 33.1988 26.6157 33.189 26.4673 33.1789C26.3574 33.1718 26.2475 33.1647 26.1342 33.1574C26.1326 33.0697 26.1309 32.9819 26.1292 32.8914C26.0322 28.2257 25.6112 23.6299 24.6521 19.064C24.6337 18.9761 24.6153 18.8883 24.5963 18.7978C24.3685 17.7198 24.1091 16.6558 23.8055 15.5974C23.6912 15.1922 23.626 14.8699 23.626 14.4441C23.7336 14.4354 23.8411 14.4266 23.952 14.4176C25.1812 14.2885 26.2775 14.0239 27.1603 13.0626C27.9288 12.0589 28.0817 11.0256 28.1365 9.78772C28.1439 9.63269 28.1439 9.63269 28.1515 9.47454C28.1635 9.22076 28.175 8.96697 28.1864 8.71317Z" fill="white"/>
<path d="M10.1718 8.71317C10.1782 8.93344 10.1782 8.93344 10.1847 9.15815C10.2414 10.7606 10.3388 12.1747 11.515 13.3627C12.4528 14.1493 13.5453 14.397 14.7323 14.4441C14.6596 15.243 14.4694 15.9819 14.262 16.754C12.8668 22.1328 12.3527 27.6062 12.224 33.1574C12.1163 33.1632 12.0085 33.1689 11.8974 33.1748C11.6839 33.1879 11.6839 33.1879 11.466 33.2013C11.255 33.2135 11.255 33.2135 11.0397 33.226C10.5551 33.283 10.165 33.4234 9.72559 33.6326C9.49364 33.7395 9.28215 33.8143 9.03172 33.8592C8.91771 33.7422 8.91771 33.7422 8.90707 33.4279C8.90951 33.217 8.90951 33.217 8.912 33.0019C8.91272 32.9245 8.91344 32.8471 8.91417 32.7673C8.91576 32.5982 8.91758 32.429 8.9196 32.2599C8.92264 31.9901 8.92467 31.7202 8.92638 31.4504C8.93124 30.6827 8.93654 29.915 8.94585 29.1473C8.98865 25.5071 8.63821 22.5166 6.59919 19.4153C5.99682 18.4976 5.57111 17.6237 5.26936 16.5494C5.24143 16.4514 5.21351 16.3534 5.18474 16.2524C4.86667 14.916 4.85902 13.3099 5.51831 12.089C6.18156 11.077 7.28394 10.5293 8.28378 9.92438C8.82742 9.59379 9.34619 9.2369 9.85741 8.85525C10.0578 8.71317 10.0578 8.71317 10.1718 8.71317Z" fill="white"/>
<path d="M14.7073 4.09125C14.815 4.09043 14.9226 4.08961 15.0335 4.08876C15.387 4.08672 15.7403 4.08806 16.0937 4.08965C16.3407 4.08933 16.5877 4.08888 16.8348 4.08829C17.3515 4.0876 17.8682 4.0886 18.385 4.09079C19.0459 4.09346 19.7067 4.09192 20.3677 4.08912C20.8775 4.08743 21.3872 4.08797 21.897 4.08918C22.1406 4.08949 22.3843 4.08911 22.6279 4.08802C22.969 4.08683 23.3099 4.08865 23.651 4.09125C23.8006 4.08983 23.8006 4.08983 23.9533 4.08838C24.713 4.09905 25.3285 4.2787 25.8889 4.82565C26.2813 5.48561 26.3314 6.05242 26.3235 6.81624C26.3241 6.93471 26.3246 7.05318 26.3252 7.17524C26.3256 7.42451 26.3245 7.6738 26.3221 7.92306C26.3191 8.30276 26.3221 8.68206 26.3258 9.06175C26.3254 9.30495 26.3247 9.54816 26.3235 9.79137C26.3253 9.96008 26.3253 9.96008 26.327 10.1322C26.3147 10.8653 26.1961 11.4539 25.6778 11.988C25.0303 12.4629 24.539 12.5236 23.7552 12.5164C23.5901 12.5176 23.5901 12.5176 23.4217 12.5188C23.0597 12.5209 22.6978 12.5195 22.3358 12.518C22.0833 12.5183 21.8307 12.5187 21.5781 12.5193C21.0495 12.52 20.5209 12.519 19.9923 12.5168C19.3156 12.5141 18.639 12.5157 17.9623 12.5185C17.441 12.5202 16.9197 12.5196 16.3984 12.5184C16.1489 12.5181 15.8995 12.5185 15.65 12.5196C15.301 12.5208 14.9521 12.519 14.6031 12.5164C14.5006 12.5173 14.3981 12.5182 14.2926 12.5192C13.5355 12.5088 13.0307 12.3488 12.4805 11.782C12.0761 11.1228 12.0269 10.5601 12.0347 9.79137C12.0342 9.6729 12.0337 9.55443 12.0331 9.43237C12.0327 9.18309 12.0337 8.93381 12.0361 8.68455C12.0392 8.30484 12.0362 7.92555 12.0325 7.54586C12.0329 7.30265 12.0336 7.05944 12.0347 6.81624C12.0336 6.70376 12.0324 6.59129 12.0312 6.4754C12.0421 5.83141 12.1418 5.37664 12.4694 4.82565C13.1238 4.18703 13.836 4.08298 14.7073 4.09125Z" fill="white"/>
<path d="M10.0577 39.0053C12.0382 38.9512 13.7964 39.1733 15.7155 39.6559C18.8514 40.4421 21.583 39.9831 24.6801 39.1899C25.5107 39.0105 26.3139 38.9903 27.1594 38.998C27.2695 38.9986 27.3795 38.9991 27.493 38.9996C27.7618 39.001 28.0307 39.0029 28.2995 39.0053C28.3249 39.8957 28.2803 40.7651 28.1997 41.6515C28.1908 41.7532 28.1818 41.855 28.1726 41.9598C28.1437 42.2623 28.1093 42.5634 28.0715 42.865C28.0587 42.9705 28.0458 43.076 28.0326 43.1847C28.0091 43.3389 28.0091 43.3389 27.9851 43.4964C27.965 43.6346 27.965 43.6346 27.9445 43.7757C27.7999 44.1463 27.594 44.2813 27.2734 44.5024C26.952 44.5613 26.952 44.5613 26.5941 44.5618C26.4579 44.5631 26.3217 44.5644 26.1814 44.5658C25.9587 44.5644 25.9587 44.5644 25.7316 44.5629C25.5729 44.5636 25.4143 44.5644 25.2556 44.5654C24.8255 44.5675 24.3954 44.5667 23.9652 44.5652C23.5148 44.564 23.0644 44.5651 22.6139 44.5659C21.8575 44.5667 21.1012 44.5656 20.3448 44.5634C19.4707 44.5608 18.5966 44.5617 17.7225 44.5642C16.9716 44.5664 16.2207 44.5666 15.4698 44.5654C15.0215 44.5647 14.5732 44.5646 14.1249 44.5661C13.7034 44.5675 13.282 44.5666 12.8605 44.5639C12.6323 44.5629 12.404 44.5643 12.1758 44.5658C11.9716 44.5638 11.9716 44.5638 11.7632 44.5618C11.586 44.5615 11.586 44.5615 11.4052 44.5613C10.9996 44.487 10.8074 44.3252 10.5138 44.0345C10.4127 43.7757 10.4127 43.7757 10.3722 43.4964C10.3486 43.3421 10.3486 43.3421 10.3246 43.1847C10.3118 43.0792 10.299 42.9737 10.2858 42.865C10.2732 42.7652 10.2607 42.6654 10.2478 42.5626C10.2132 42.2592 10.1843 41.9558 10.1575 41.6515C10.1478 41.5451 10.1381 41.4386 10.1282 41.3289C10.0612 40.5518 10.0294 39.7856 10.0577 39.0053Z" fill="white"/>
<path d="M33.4359 25.7569C33.5253 25.7558 33.6148 25.7547 33.7069 25.7536C33.8025 25.7537 33.8981 25.7538 33.9966 25.7539C34.0959 25.7534 34.1951 25.7529 34.2973 25.7524C34.5069 25.7517 34.7165 25.7516 34.9261 25.7521C35.2461 25.7525 35.566 25.7498 35.886 25.7468C36.0899 25.7465 36.2938 25.7464 36.4977 25.7466C36.5931 25.7455 36.6885 25.7444 36.7868 25.7433C37.3194 25.7476 37.6746 25.7825 38.105 26.1399C38.3891 26.577 38.3853 26.7918 38.3331 27.3095C38.1283 27.6315 37.985 27.8389 37.649 28.0113C37.3973 28.0196 37.1454 28.0211 36.8937 28.0186C36.7582 28.0175 36.6227 28.0165 36.483 28.0154C36.3787 28.014 36.2744 28.0127 36.1668 28.0113C36.1555 28.0763 36.1442 28.1413 36.1326 28.2083C35.7401 30.4527 35.3042 32.6877 34.8633 34.9225C34.8153 35.1665 34.7674 35.4106 34.7194 35.6547C34.6848 35.8312 34.6848 35.8312 34.6494 36.0113C34.4821 36.8696 34.3316 37.7298 34.1936 38.5935C33.8451 40.4117 32.7668 42.1357 31.2906 43.2122C30.7993 43.5415 30.3292 43.8161 29.7822 44.0345C29.8379 43.3447 29.894 42.6549 29.9532 41.9654C29.9724 41.7365 29.9914 41.5076 30.0102 41.2787C30.0205 41.1548 30.0307 41.031 30.0413 40.9033C30.0943 40.2235 30.1323 39.5464 30.1483 38.8646C30.1534 38.6562 30.1534 38.6562 30.1586 38.4436C30.164 38.1781 30.1677 37.9126 30.1692 37.647C30.1921 36.5221 30.4093 35.316 31.1504 34.444C31.7082 34.0668 32.0351 34.0674 32.7465 33.9761C33.1228 32.0463 33.499 30.1165 33.8866 28.1282C33.3223 28.0124 33.3223 28.0124 32.7465 27.8943C32.36 27.6332 32.3057 27.4838 32.1836 27.0244C32.1756 26.5558 32.2298 26.3804 32.5185 26.023C32.8337 25.8284 33.0698 25.7595 33.4359 25.7569Z" fill="white"/>
<path d="M1.83413 25.7654C1.93351 25.7647 2.0329 25.764 2.1353 25.7633C2.34556 25.7622 2.55582 25.7615 2.76609 25.761C3.08713 25.7599 3.40809 25.7563 3.72911 25.7526C3.93353 25.7518 4.13795 25.7512 4.34237 25.7507C4.48598 25.7486 4.48598 25.7486 4.63249 25.7464C5.1687 25.7485 5.51619 25.7861 5.95367 26.14C6.1932 26.4527 6.18151 26.6128 6.16744 27.0172C6.05343 27.485 6.00257 27.6303 5.61163 27.8944C5.2354 27.9716 4.85916 28.0488 4.47152 28.1283C5.03588 31.023 5.03588 31.023 5.61163 33.9762C6.02549 34.0534 6.43935 34.1306 6.86575 34.2101C7.36977 34.5102 7.5426 34.8288 7.74934 35.3797C7.79578 35.5003 7.84222 35.6209 7.89007 35.7452C8.04061 36.1824 8.13269 36.5709 8.15013 37.0344C8.15395 37.129 8.15777 37.2236 8.16171 37.3211C8.16539 37.4228 8.16908 37.5245 8.17287 37.6293C8.18184 37.8485 8.19082 38.0676 8.19982 38.2868C8.21332 38.6293 8.22659 38.9718 8.23954 39.3143C8.28794 40.5773 8.35511 41.823 8.5303 43.0748C8.56991 43.4004 8.58493 43.7072 8.57592 44.0346C7.04042 43.3727 5.89631 42.3499 5.04158 40.8767C4.98926 40.7885 4.93694 40.7003 4.88303 40.6095C4.16099 39.2731 3.96319 37.6356 3.6985 36.1453C3.61606 35.6815 3.53168 35.2181 3.4472 34.7547C3.42931 34.6564 3.41141 34.5581 3.39297 34.4569C3.11531 32.9409 2.81412 31.4296 2.51566 29.9178C2.49405 29.8079 2.47245 29.698 2.45018 29.5849C2.40944 29.3778 2.36851 29.1707 2.32736 28.9637C2.1913 28.2716 2.1913 28.2716 2.1913 28.0113C2.04073 28.0195 2.04073 28.0195 1.88712 28.0278C1.6885 28.0341 1.6885 28.0341 1.48586 28.0406C1.28944 28.0487 1.28944 28.0487 1.08905 28.057C0.636213 28.0026 0.459733 27.8682 0.139102 27.5435C-0.0376432 27.1809 -0.00796328 26.891 0.0250908 26.4909C0.496752 25.7234 1.01436 25.7696 1.83413 25.7654Z" fill="white"/>
<path d="M11.3153 35.1144C11.459 35.1134 11.6027 35.1124 11.7508 35.1114C11.9103 35.1115 12.0699 35.1116 12.2294 35.1117C12.3972 35.111 12.565 35.1102 12.7328 35.1094C13.1889 35.1073 13.6449 35.1067 14.101 35.1066C14.4815 35.1064 14.862 35.1055 15.2425 35.1047C16.1401 35.1028 17.0377 35.1022 17.9353 35.1024C18.8618 35.1025 19.7882 35.1 20.7146 35.0963C21.5097 35.0933 22.3047 35.092 23.0997 35.0922C23.5747 35.0922 24.0497 35.0916 24.5247 35.0891C24.9714 35.0868 25.418 35.0868 25.8647 35.0885C26.0286 35.0888 26.1926 35.0882 26.3566 35.0868C26.5804 35.085 26.8041 35.0864 27.0278 35.0879C27.2157 35.0877 27.2157 35.0877 27.4074 35.0875C27.8056 35.1594 27.9363 35.2943 28.1857 35.6135C28.3296 35.9088 28.3109 36.1179 28.3068 36.4469C28.3058 36.5533 28.3048 36.6598 28.3037 36.7694C28.3017 36.892 28.3017 36.892 28.2997 37.017C28.2202 37.0211 28.1406 37.0251 28.0587 37.0292C26.2963 37.1246 24.6332 37.3412 22.9177 37.76C20.016 38.4503 17.628 38.3122 14.7466 37.5872C13.2032 37.1994 11.641 37.0934 10.0579 37.017C10.0517 36.8319 10.0473 36.6467 10.0437 36.4615C10.041 36.3584 10.0384 36.2552 10.0356 36.149C10.0595 35.8264 10.1137 35.6487 10.2859 35.3796C10.6849 35.1068 10.8436 35.1159 11.3153 35.1144Z" fill="white"/>
<path d="M17.241 45.4174C17.382 45.4151 17.382 45.4151 17.5258 45.4128C17.6276 45.412 17.7294 45.4111 17.8343 45.4102C17.9389 45.4093 18.0435 45.4083 18.1513 45.4074C18.3729 45.4057 18.5946 45.4045 18.8163 45.4036C19.1549 45.4015 19.4933 45.3964 19.8319 45.3913C20.0472 45.3901 20.2626 45.3891 20.4779 45.3883C20.6295 45.3852 20.6295 45.3852 20.7842 45.3821C21.2598 45.3838 21.5076 45.3961 21.9194 45.6605C22.3031 46.0814 22.2786 46.4355 22.2843 46.9864C22.2852 47.0704 22.2861 47.1543 22.287 47.2408C22.2886 47.4187 22.2898 47.5965 22.2907 47.7744C22.2927 48.0455 22.2977 48.3164 22.3027 48.5875C22.3039 48.7604 22.3049 48.9334 22.3056 49.1063C22.3076 49.187 22.3096 49.2676 22.3117 49.3507C22.3092 49.9112 22.1869 50.1909 21.801 50.5842C21.5446 50.7158 21.4012 50.718 21.1166 50.7219C20.9756 50.7242 20.9756 50.7242 20.8317 50.7265C20.73 50.7273 20.6282 50.7282 20.5233 50.7291C20.4187 50.73 20.3141 50.731 20.2063 50.7319C19.9846 50.7336 19.763 50.7348 19.5413 50.7357C19.2027 50.7377 18.8642 50.7429 18.5257 50.748C18.3103 50.7492 18.095 50.7502 17.8797 50.751C17.7281 50.7541 17.7281 50.7541 17.5734 50.7572C17.0977 50.7555 16.85 50.7432 16.4382 50.4788C16.0545 50.0579 16.079 49.7038 16.0733 49.1529C16.0724 49.0689 16.0715 48.985 16.0705 48.8985C16.069 48.7206 16.0677 48.5428 16.0668 48.3649C16.0649 48.0938 16.0599 47.8229 16.0548 47.5518C16.0537 47.3789 16.0527 47.2059 16.0519 47.033C16.05 46.9523 16.048 46.8717 16.0459 46.7885C16.0483 46.2281 16.1707 45.9484 16.5565 45.555C16.813 45.4235 16.9564 45.4213 17.241 45.4174Z" fill="white"/>
<path d="M19.1644 0.00708146C19.2891 0.00474458 19.4139 0.0024077 19.5425 0C20.71 0.000708679 21.9616 0.243454 22.827 1.11088C23.511 1.9361 23.511 1.9361 23.511 2.1635C20.6516 2.1635 17.7922 2.1635 14.8462 2.1635C15.4596 1.11466 16.2264 0.464627 17.3663 0.130207C17.9637 2.27681e-05 18.5558 0.0030657 19.1644 0.00708146Z" fill="white"/>
</svg>
