<svg width="44" height="30" viewBox="0 0 44 30" fill="none" xmlns="http://www.w3.org/2000/svg">
<path d="M16.0605 1.02295C16.3726 1.17773 16.6409 1.1933 16.9857 1.20438C17.1392 1.20958 17.1392 1.20958 17.2958 1.21488C17.4027 1.21814 17.5097 1.22139 17.6198 1.22474C17.7817 1.2301 17.7817 1.2301 17.9468 1.23557C18.2136 1.24436 18.4803 1.2528 18.7471 1.26094C18.7454 1.31633 18.7436 1.37173 18.7418 1.4288C18.7346 1.68485 18.7303 1.94088 18.726 2.197C18.7217 2.32763 18.7217 2.32763 18.7174 2.46091C18.706 3.3621 18.9259 4.08274 19.5691 4.74077C20.3136 5.35792 21.1043 5.45375 22.0497 5.3982C22.302 5.35052 22.5029 5.27122 22.7271 5.14997C22.7906 5.11669 22.854 5.08341 22.9193 5.04912C23.6317 4.63355 23.9759 4.07909 24.2015 3.31228C24.2873 2.91482 24.278 2.5238 24.2673 2.11942C24.2655 1.99479 24.2655 1.99479 24.2638 1.86763C24.2608 1.66535 24.2567 1.46317 24.2514 1.26094C24.3754 1.26303 24.3754 1.26303 24.502 1.26516C26.6686 1.32557 26.6686 1.32557 28.5701 0.433489C29.2378 0.0624668 29.8598 -0.0962099 30.6294 0.0594794C30.8421 0.120484 31.05 0.189839 31.2587 0.262827C31.3406 0.290473 31.4225 0.318119 31.5069 0.346603C31.8272 0.456109 32.1464 0.568669 32.4654 0.681725C32.5396 0.707935 32.6138 0.734144 32.6902 0.761147C33.2986 0.976221 33.9063 1.19313 34.5136 1.41092C34.6454 1.45804 34.6454 1.45804 34.7798 1.5061C35.033 1.59683 35.2859 1.68817 35.5387 1.77972C35.6153 1.80711 35.6919 1.8345 35.7708 1.86272C36.7725 2.22757 36.7725 2.22757 36.9651 2.63367C37.1076 2.93958 37.2064 3.2503 37.2988 3.57355C37.5527 4.45559 37.9146 5.26767 38.3296 6.08602C38.3574 6.14093 38.3852 6.19584 38.4138 6.25241C38.5257 6.47313 38.6376 6.6938 38.7497 6.91439C40.0899 9.55963 41.1288 12.3501 42.0343 15.1621C42.0679 15.2661 42.1014 15.3701 42.1359 15.4773C42.9085 17.9094 43.4274 20.4133 43.421 22.9661C43.421 23.0327 43.421 23.0994 43.4209 23.1681C43.4171 24.6061 43.2513 25.9227 42.6271 27.2429C42.5917 27.3197 42.5564 27.3965 42.5199 27.4757C42.0301 28.4439 41.0999 29.4966 40.0443 29.8856C39.4108 30.0573 38.8721 30.0212 38.2687 29.7628C37.9464 29.582 37.6922 29.3484 37.4245 29.0983C37.2067 28.8971 36.9809 28.7137 36.7471 28.5307C36.343 28.2113 35.9601 27.8741 35.5778 27.5303C35.2741 27.2639 34.9578 27.0147 34.6403 26.7643C34.3449 26.526 34.0633 26.2743 33.7803 26.0221C33.485 25.7657 33.1774 25.5255 32.87 25.2832C32.6316 25.089 32.4059 24.8855 32.1796 24.6778C31.1428 23.7512 29.998 23.0155 28.5536 23.0108C28.4629 23.0103 28.4629 23.0103 28.3704 23.0098C28.1683 23.0089 27.9662 23.0086 27.7641 23.0083C27.619 23.0078 27.4739 23.0072 27.3288 23.0066C26.8526 23.0049 26.3763 23.004 25.9 23.0032C25.7357 23.0029 25.5714 23.0025 25.4071 23.0022C24.6348 23.0006 23.8625 22.9994 23.0902 22.9988C22.2005 22.998 21.3109 22.9958 20.4213 22.9924C19.7325 22.9899 19.0438 22.9887 18.355 22.9884C17.9442 22.9882 17.5334 22.9875 17.1226 22.9854C16.7356 22.9835 16.3486 22.9831 15.9616 22.984C15.8203 22.984 15.679 22.9835 15.5378 22.9824C13.8836 22.9697 12.648 23.4299 11.4408 24.5502C11.2144 24.7571 10.9809 24.9483 10.7395 25.1381C10.4367 25.3769 10.1432 25.6215 9.85566 25.8777C9.56808 26.1338 9.2746 26.3784 8.9718 26.6172C8.64973 26.8717 8.3398 27.1343 8.03502 27.4084C7.65678 27.7486 7.266 28.0677 6.8657 28.3826C6.63796 28.5667 6.42083 28.7587 6.2038 28.9547C5.50773 29.5723 4.86146 30.0232 3.89228 29.9991C2.9412 29.8878 2.1727 29.1479 1.57381 28.4718C0.317202 26.8797 -0.0203516 24.934 0.000932722 22.9712C0.00129857 22.9066 0.00166443 22.842 0.00204137 22.7754C0.00924427 21.6844 0.0828717 20.6222 0.28673 19.5476C0.301262 19.4693 0.315794 19.391 0.330766 19.3104C1.21598 14.6422 3.08046 10.212 5.15397 5.94284C5.2821 5.67876 5.40953 5.41438 5.53694 5.14997C5.57211 5.0777 5.60729 5.00543 5.64353 4.93096C5.88648 4.41843 6.03856 3.8899 6.18991 3.3459C6.41615 2.56917 6.41615 2.56917 6.72247 2.25388C7.41898 1.9183 8.17067 1.67953 8.90035 1.42255C9.00821 1.3844 9.11606 1.34623 9.22391 1.30805C9.44759 1.22891 9.67132 1.14994 9.8951 1.07109C10.1814 0.97019 10.4677 0.868928 10.7538 0.767553C10.9755 0.68906 11.1972 0.610731 11.419 0.532453C11.5757 0.477114 11.7323 0.42166 11.889 0.366203C12.0315 0.316032 12.0315 0.316032 12.1769 0.264848C12.2604 0.23541 12.3438 0.205972 12.4298 0.175643C13.7962 -0.277878 14.8853 0.388093 16.0605 1.02295ZM31.2111 5.04137C30.9594 5.41375 30.8207 5.71695 30.8826 6.1678C31.0173 6.65424 31.2702 6.94931 31.7033 7.2186C32.1251 7.35598 32.4911 7.35091 32.9047 7.20826C33.2336 6.99398 33.472 6.7409 33.6509 6.39115C33.6982 5.89773 33.6934 5.48684 33.3969 5.06722C33.0658 4.76068 32.7614 4.59319 32.3066 4.54489C31.8474 4.58977 31.5445 4.73003 31.2111 5.04137ZM7.78395 6.71631C7.17436 7.51962 7.0748 8.39218 7.14587 9.36998C7.28125 10.1692 7.7203 10.8184 8.3314 11.3559C8.43882 11.4583 8.43882 11.4583 8.5484 11.5627C9.29814 12.1533 10.2451 12.3236 11.1844 12.2476C12.1982 12.088 13.0234 11.5276 13.6541 10.7479C14.2189 9.90968 14.3714 8.94123 14.1744 7.96331C13.8757 6.95882 13.2979 6.20416 12.3706 5.68006C10.7198 4.83964 8.94732 5.35425 7.78395 6.71631ZM28.2843 7.90125C28.0701 8.25549 27.9469 8.56564 28.0031 8.98146C28.1405 9.47358 28.3961 9.74977 28.8241 10.0319C29.1172 10.1751 29.4346 10.1433 29.7556 10.1147C30.2362 9.95214 30.5444 9.64899 30.7718 9.20449C30.8364 8.63816 30.788 8.25413 30.4331 7.79782C30.0997 7.50992 29.7947 7.40071 29.3584 7.37051C28.9167 7.40118 28.5987 7.61019 28.2843 7.90125ZM34.0373 7.93228C33.7603 8.34374 33.7698 8.71999 33.8203 9.20449C34.0283 9.6184 34.3281 9.9077 34.7518 10.1147C35.2327 10.1636 35.6129 10.139 36.022 9.86645C36.3523 9.5385 36.5428 9.27988 36.5566 8.81662C36.5507 8.37516 36.4648 8.1494 36.1914 7.79782C35.858 7.50992 35.553 7.40071 35.1167 7.37051C34.6618 7.4021 34.341 7.61266 34.0373 7.93228ZM31.2058 10.668C30.9607 11.0414 30.8141 11.3489 30.8886 11.7974C31.0294 12.2707 31.2477 12.5959 31.6911 12.854C32.0247 12.99 32.3652 12.9724 32.7195 12.928C33.1417 12.7217 33.439 12.4321 33.6509 12.0178C33.7156 11.4515 33.6671 11.0675 33.3122 10.6112C32.6307 10.036 31.8437 10.0854 31.2058 10.668ZM14.5978 11.2731C14.5098 11.5312 14.5034 11.7096 14.5048 11.98C14.5051 12.0688 14.5054 12.1576 14.5057 12.2491C14.5064 12.3417 14.5071 12.4344 14.5078 12.5298C14.5082 12.6234 14.5086 12.717 14.509 12.8134C14.51 13.0447 14.5114 13.276 14.5131 13.5072C14.4542 13.5055 14.3953 13.5038 14.3346 13.502C14.066 13.4951 13.7974 13.4908 13.5287 13.4866C13.436 13.4838 13.3433 13.481 13.2478 13.4781C12.7083 13.4718 12.3821 13.4823 11.9727 13.8382C11.922 13.8809 11.8714 13.9236 11.8192 13.9675C11.5043 14.3399 11.6149 14.9328 11.6136 15.3913C11.6128 15.5643 11.6102 15.7373 11.6075 15.9104C11.6069 16.0211 11.6065 16.1317 11.6062 16.2424C11.6054 16.3426 11.6046 16.4429 11.6038 16.5461C11.6486 16.9485 11.7981 17.1537 12.105 17.417C12.4121 17.6324 12.5667 17.6545 12.9419 17.6526C13.033 17.6523 13.1242 17.652 13.2181 17.6518C13.3613 17.6507 13.3613 17.6507 13.5075 17.6497C13.6037 17.6493 13.6999 17.6489 13.7989 17.6485C14.037 17.6476 14.275 17.6462 14.5131 17.6445C14.5111 17.7308 14.5111 17.7308 14.5091 17.8189C14.5038 18.0814 14.5005 18.3439 14.4972 18.6064C14.4951 18.697 14.493 18.7875 14.4908 18.8808C14.4741 19.5453 14.4741 19.5453 14.7671 20.1269C15.2707 20.5469 15.8219 20.5088 16.4621 20.501C16.6354 20.4992 16.8083 20.501 16.9816 20.5031C17.0919 20.5027 17.2022 20.5022 17.3158 20.5018C17.4158 20.5014 17.5158 20.5011 17.6189 20.5007C18.0106 20.4411 18.2768 20.2807 18.5314 19.9832C18.7838 19.4951 18.7871 19.0527 18.7683 18.5133C18.7668 18.4295 18.7652 18.3456 18.7637 18.2593C18.7597 18.0543 18.7542 17.8494 18.7471 17.6445C18.8035 17.6458 18.8598 17.6471 18.9179 17.6484C19.175 17.6536 19.4321 17.6568 19.6892 17.66C19.7778 17.6621 19.8665 17.6642 19.9578 17.6663C20.4342 17.6707 20.7977 17.6724 21.2029 17.3963C21.6673 16.8076 21.6467 16.318 21.6527 15.6017C21.6552 15.5058 21.6577 15.4098 21.6602 15.311C21.6644 14.7593 21.6588 14.2793 21.2876 13.8382C20.789 13.4353 20.3105 13.4668 19.6839 13.4866C19.5937 13.488 19.5035 13.4895 19.4105 13.4911C19.1893 13.495 18.9683 13.5004 18.7471 13.5072C18.7489 13.4556 18.7507 13.4039 18.7525 13.3506C18.7596 13.1132 18.764 12.8759 18.7683 12.6384C18.7711 12.5571 18.774 12.4759 18.7769 12.3921C18.7841 11.8621 18.7225 11.4661 18.4084 11.0249C17.943 10.5977 17.3771 10.673 16.7752 10.6695C16.6051 10.6681 16.4351 10.6644 16.2651 10.6608C16.1571 10.6601 16.0491 10.6594 15.9378 10.6587C15.8392 10.6575 15.7406 10.6563 15.639 10.655C15.2134 10.7143 14.8708 10.9501 14.5978 11.2731ZM24.5636 13.5383C24.2817 13.8642 24.0762 14.1881 23.9127 14.5829C23.8795 14.6614 23.8463 14.7399 23.8121 14.8208C23.5573 15.7784 23.6703 16.6953 24.1667 17.5618C24.75 18.4692 25.4946 18.9528 26.5364 19.2674C27.4918 19.4465 28.4065 19.2385 29.2264 18.746C30.0015 18.1972 30.5976 17.4224 30.7718 16.4861C30.8511 15.3464 30.6883 14.4166 29.925 13.5072C29.3118 12.8485 28.4879 12.4051 27.5698 12.3291C26.363 12.3016 25.3898 12.6745 24.5636 13.5383Z" fill="white"/>
<path d="M15.8679 12.0178C16.3709 12.0178 16.8739 12.0178 17.3922 12.0178C17.3922 12.9462 17.3922 13.8746 17.3922 14.8311C18.3423 14.8311 19.2924 14.8311 20.2713 14.8311C20.2713 15.3227 20.2713 15.8142 20.2713 16.3206C19.3212 16.3206 18.3711 16.3206 17.3922 16.3206C17.3922 17.249 17.3922 18.1774 17.3922 19.1339C16.8892 19.1339 16.3862 19.1339 15.8679 19.1339C15.8679 18.2055 15.8679 17.2771 15.8679 16.3206C14.9178 16.3206 13.9677 16.3206 12.9888 16.3206C12.9888 15.8291 12.9888 15.3375 12.9888 14.8311C13.9389 14.8311 14.889 14.8311 15.8679 14.8311C15.8679 13.9027 15.8679 12.9743 15.8679 12.0178Z" fill="white"/>
<path d="M28.4851 14.0037C28.976 14.3173 29.2429 14.7035 29.4166 15.2449C29.5243 15.9862 29.4502 16.6184 28.9932 17.2308C28.5877 17.6837 28.1123 17.9292 27.5027 18.0017C26.8556 18.0293 26.2683 17.9191 25.769 17.4955C25.2942 16.9946 25.0157 16.4346 25.0132 15.7414C25.068 15.0109 25.3642 14.5625 25.8917 14.0606C26.725 13.5372 27.628 13.5071 28.4851 14.0037Z" fill="white"/>
<path d="M11.888 6.88761C12.3837 7.19171 12.6476 7.6492 12.846 8.17533C12.9903 8.88056 12.8454 9.42342 12.5073 10.0474C12.1439 10.4793 11.7154 10.8203 11.1428 10.9269C10.4997 10.9794 9.87666 10.9087 9.34763 10.5284C8.89179 10.1161 8.53974 9.67453 8.47733 9.05353C8.45353 8.31188 8.57942 7.73697 9.10682 7.18626C9.90512 6.50536 10.9511 6.42982 11.888 6.88761Z" fill="white"/>
<path d="M20.1021 1.26096C21.0243 1.26096 21.9465 1.26096 22.8966 1.26096C23.0833 3.08585 23.0833 3.08585 22.7272 3.57782C22.4344 3.90068 22.1944 4.12753 21.7491 4.18484C21.2046 4.19236 20.8758 4.15563 20.4408 3.82606C20.1536 3.4641 20.0069 3.17897 20.0062 2.72193C20.0061 2.65292 20.006 2.5839 20.0059 2.5128C20.0062 2.44102 20.0065 2.36923 20.0069 2.29527C20.0065 2.22349 20.0062 2.1517 20.0059 2.07774C20.006 2.00873 20.0061 1.93972 20.0062 1.86862C20.0063 1.80563 20.0064 1.74265 20.0065 1.67775C20.0174 1.50919 20.0174 1.50919 20.1021 1.26096Z" fill="white"/>
</svg>
