<svg width="34" height="31" viewBox="0 0 34 31" fill="none" xmlns="http://www.w3.org/2000/svg">
<path d="M28.2362 0.106977C26.1706 0.657795 24.7573 2.48419 24.7573 4.59324C24.7573 5.42671 24.9023 6.02826 25.2647 6.73128C26.1561 8.43447 28.055 9.45638 29.8959 9.20271C31.0265 9.05051 31.9542 8.58666 32.6934 7.80392C33.2225 7.24586 33.4834 6.83275 33.7226 6.17322C34.3604 4.4048 33.8386 2.36823 32.4253 1.11439C31.9759 0.723023 31.07 0.259177 30.4467 0.0997305C29.9031 -0.0379744 28.7652 -0.0307264 28.2362 0.106977Z" fill="white"/>
<path d="M1.11557 3.12199C0.963372 3.15823 0.695211 3.32493 0.521269 3.48437C-0.29771 4.19464 -0.123767 5.47746 0.847411 5.96305L1.23153 6.15149H10.7549C18.0822 6.15149 20.3507 6.12975 20.5826 6.06452C20.9957 5.94131 21.4451 5.47022 21.561 5.04261C21.7567 4.35409 21.4668 3.62933 20.858 3.27419L20.5174 3.07126L10.9506 3.05677C4.7901 3.04952 1.28951 3.07126 1.11557 3.12199Z" fill="white"/>
<path d="M9.82747 10.8986C8.54465 11.1885 7.3343 12.1235 6.7255 13.3048L6.41385 13.9064H3.80472C1.61594 13.9064 1.1521 13.9209 0.927422 14.0151C-0.297422 14.5297 -0.297422 16.3271 0.927422 16.8417C1.1521 16.9359 1.61594 16.9504 3.80472 16.9504H6.41385L6.7255 17.5447C7.56622 19.1682 9.27665 20.1466 11.0958 20.0451C13.0092 19.9291 14.6399 18.6753 15.2414 16.8417C15.4009 16.3488 15.4299 16.1314 15.4299 15.4284C15.4299 14.7181 15.4009 14.5079 15.2342 14.0006C14.7776 12.6018 13.7122 11.5292 12.2772 11.0291C11.6104 10.7972 10.5305 10.7392 9.82747 10.8986Z" fill="white"/>
<path d="M19.4664 14.0224C18.2126 14.5659 18.2996 16.501 19.5969 16.8779C19.7853 16.9359 21.9016 16.9504 26.4386 16.9359L33.0049 16.9141L33.3238 16.6967C34.324 15.9937 34.1791 14.479 33.0774 14.0151C32.8383 13.9209 32.012 13.9064 26.2647 13.9064C20.5826 13.9136 19.6839 13.9281 19.4664 14.0224Z" fill="white"/>
<path d="M22.547 21.6613C21.4526 21.8353 20.7278 22.2049 19.9378 23.0021C19.0536 23.8791 18.6405 24.7778 18.5536 25.9737C18.4666 27.242 18.9449 28.5321 19.8509 29.4453C20.7641 30.3657 21.6773 30.7861 22.9166 30.844C23.8226 30.8948 24.5256 30.7498 25.2866 30.3802C26.0186 30.0178 26.9463 29.0756 27.2942 28.3509L27.5478 27.829L30.0555 27.8218C32.9835 27.8218 33.1285 27.8001 33.5851 27.271C34.2808 26.481 34.0779 25.3576 33.1575 24.8938L32.7733 24.7053H30.1497H27.5261L27.4391 24.4444C27.1709 23.6399 26.1563 22.56 25.2358 22.1034C24.4386 21.7121 23.3442 21.5309 22.547 21.6613Z" fill="white"/>
<path d="M0.847125 24.8938C0.194841 25.2199 -0.124053 25.9084 0.0498893 26.6187C0.165851 27.1043 0.665935 27.6189 1.14428 27.7348C1.39069 27.8 3.1881 27.8218 7.74684 27.8218C14.8567 27.8218 14.5306 27.8435 15.0307 27.271C15.7264 26.481 15.5235 25.3576 14.6031 24.8938L14.2189 24.7053H7.7251H1.23125L0.847125 24.8938Z" fill="white"/>
</svg>
