<svg width="46" height="50" viewBox="0 0 46 50" fill="none" xmlns="http://www.w3.org/2000/svg">
<path d="M36.9148 23.0326C37.2212 23.2767 37.5088 23.5319 37.7949 23.7998C37.8484 23.8485 37.9019 23.8972 37.957 23.9474C38.8832 24.7954 39.5813 25.7233 40.2248 26.8012C40.2641 26.8651 40.3034 26.9291 40.3438 26.9949C42.5241 30.5862 43.1002 35.605 42.1452 39.6858C41.2513 43.0946 39.7031 46.5443 36.6469 48.5313C34.4495 49.8177 32.1268 50.3601 29.6078 49.7488C27.3424 49.0203 25.527 47.5321 24.0762 45.6672C23.9583 45.41 24.0163 45.2988 24.0991 45.0315C24.1635 44.8859 24.2321 44.7422 24.304 44.6003C25.4897 42.208 26.3144 39.5647 26.3305 36.8694C26.3313 36.7826 26.3321 36.6958 26.3329 36.6064C26.372 34.0177 26.372 34.0177 25.9768 31.4699C25.943 31.3312 25.943 31.3312 25.9085 31.1898C25.5002 29.5534 24.9915 27.8677 24.0715 26.4412C23.9887 26.2454 23.9887 26.2454 24.0068 26.0291C24.7114 24.2861 26.8318 22.7698 28.5123 22.0516C31.3274 20.9107 34.4268 21.2998 36.9148 23.0326ZM27.4126 27.4681C26.782 28.229 26.782 28.229 26.529 29.1355C26.7266 29.2473 26.9246 29.3583 27.1227 29.469C27.2329 29.5309 27.3431 29.5928 27.4566 29.6566C27.7232 29.8192 27.7232 29.8192 27.9649 29.8025C28.0845 29.624 28.1958 29.4398 28.3031 29.2536C28.9845 28.1559 29.809 27.317 31.0575 26.9123C32.1524 26.7293 33.0219 26.9464 33.9292 27.5793C35.701 29.0178 36.6731 31.3416 36.9872 33.5758C37.3167 36.8078 36.9808 40.1791 34.9232 42.8083C34.2011 43.6874 33.3634 44.3487 32.2219 44.5395C31.1064 44.5952 30.2829 44.2657 29.4275 43.556C28.8116 42.9695 28.3573 42.3401 27.9649 41.5855C27.6128 41.7233 27.273 41.8717 26.9363 42.044C26.8208 42.1029 26.8208 42.1029 26.7029 42.163C26.6455 42.1925 26.5881 42.222 26.529 42.2525C26.6553 43.3404 27.8158 44.4784 28.6276 45.1426C29.9195 46.0314 31.1469 46.4103 32.7142 46.2542C34.5584 45.8634 35.9615 44.4543 36.9611 42.9208C38.8168 39.9287 39.3272 35.8704 38.5575 32.4519C37.9056 29.8643 36.6975 27.2715 34.371 25.8007C31.7698 24.4328 29.2847 25.2705 27.4126 27.4681ZM31.6235 33.2832C31.5407 33.4171 31.4623 33.5538 31.3888 33.6931C31.3537 33.7596 31.3185 33.8261 31.2823 33.8946C30.8673 34.8799 30.8693 36.3212 31.237 37.3197C31.5727 38.0074 31.9975 38.7213 32.7021 39.0696C33.3163 39.2551 33.9437 39.2644 34.5436 39.0288C35.4022 38.515 35.885 37.6491 36.1382 36.6944C36.2847 35.349 36.1511 34.2272 35.3857 33.0956C34.9695 32.5821 34.6097 32.304 33.9516 32.1985C32.9355 32.1388 32.251 32.4811 31.6235 33.2832Z" fill="white"/>
<path d="M8.83681 24.974C9.01117 24.9755 9.01117 24.9755 9.18906 24.977C11.4139 25.0267 13.1853 26.0026 14.7114 27.5793C14.793 27.6617 14.8745 27.7441 14.9586 27.829C17.352 30.3781 17.7756 33.6328 17.7086 36.975C17.6808 37.6881 17.567 38.3441 17.3622 39.0288C17.3233 39.1668 17.2844 39.3048 17.2444 39.447C16.5111 41.9214 14.8929 44.231 12.6128 45.4761C11.4023 46.1095 10.2449 46.4283 8.87823 46.4141C8.76199 46.4131 8.64575 46.4121 8.52598 46.411C6.30112 46.3614 4.52972 45.3854 3.00366 43.8087C2.92208 43.7263 2.84049 43.6439 2.75644 43.5591C0.363032 41.0099 -0.0605689 37.7553 0.00645664 34.413C0.0342282 33.6998 0.148276 33.0441 0.352854 32.3592C0.390442 32.2238 0.428029 32.0884 0.466756 31.9489C0.941871 30.3738 1.67497 29.0187 2.78276 27.8016C2.87046 27.7043 2.95817 27.607 3.04853 27.5068C4.57974 25.8853 6.61109 24.9508 8.83681 24.974ZM3.57446 29.9393C1.88843 32.107 1.66766 34.8945 1.92876 37.5516C2.18879 39.3317 3.04114 41.0652 4.45332 42.183C5.23916 42.7704 6.02555 42.7959 6.97987 42.6971C8.08452 42.3799 8.87859 41.5303 9.43968 40.5542C10.6599 38.3032 10.9387 35.3681 10.2911 32.8893C9.80939 31.2831 8.97938 29.81 7.53212 28.9132C6.07109 28.1941 4.60565 28.8317 3.57446 29.9393Z" fill="white"/>
<path d="M15.7088 23.0326C16.0153 23.2767 16.3029 23.5319 16.589 23.7998C16.6425 23.8485 16.6959 23.8972 16.751 23.9474C17.6772 24.7954 18.3754 25.7233 19.0189 26.8012C19.0581 26.8651 19.0974 26.929 19.1379 26.9949C21.3181 30.5862 21.8942 35.605 20.9392 39.6858C20.0453 43.0946 18.4971 46.5443 15.4409 48.5313C13.2436 49.8177 10.9208 50.3601 8.40186 49.7488C6.63111 49.1793 5.14607 48.1776 3.88721 46.81C3.9601 46.7733 4.033 46.7367 4.10811 46.6989C4.35756 46.8103 4.5973 46.9281 4.83984 47.0532C7.00958 48.1183 9.39861 48.2913 11.7016 47.5673C14.6157 46.5008 16.7499 44.3795 18.0529 41.5772C18.3452 40.9251 18.5952 40.2708 18.798 39.5846C18.8305 39.4778 18.8305 39.4778 18.8636 39.3687C19.5515 37.0144 19.5094 34.145 18.798 31.8034C18.7749 31.7238 18.7518 31.6442 18.728 31.5622C17.8694 28.6597 16.0293 26.0933 13.4033 24.5712C11.263 23.4084 8.77189 23.0347 6.41246 23.6969C5.67698 23.9249 4.9847 24.2197 4.31304 24.5979C4.24542 24.628 4.17779 24.6581 4.10811 24.6891C4.03521 24.6524 3.96231 24.6157 3.88721 24.5779C7.06443 21.1966 11.7992 20.3096 15.7088 23.0326Z" fill="white"/>
<path d="M30.0641 0.567323C30.1352 0.591736 30.2064 0.61615 30.2797 0.641303C33.1325 1.64302 35.5766 3.72054 36.9154 6.46056C37.6268 7.99387 38.036 9.5275 38.0273 11.224C38.0271 11.3965 38.0271 11.3965 38.0268 11.5725C38.0262 11.9383 38.0248 12.3041 38.0234 12.6699C38.0228 12.9186 38.0223 13.1672 38.0219 13.4159C38.0207 14.0241 38.0188 14.6323 38.0165 15.2405C37.4333 15.2405 36.8501 15.2405 36.2493 15.2405C36.2439 15.0069 36.2385 14.7734 36.2329 14.5327C36.1362 10.6118 35.8687 7.30509 32.9151 4.43709C31.099 2.82891 28.6138 1.9231 26.1965 2.02147C23.3621 2.20385 20.9379 3.41743 19.0579 5.5678C17.2135 7.94821 16.9385 10.6422 16.8584 13.5522C16.8536 13.717 16.8488 13.8818 16.8439 14.0466C16.8322 14.4446 16.8212 14.8425 16.8101 15.2405C16.2269 15.2405 15.6437 15.2405 15.0429 15.2405C15.0318 14.5311 15.0239 13.8217 15.0186 13.1121C15.0164 12.8716 15.0134 12.6312 15.0095 12.3907C14.9553 8.92347 15.8983 6.0376 18.2939 3.4775C21.2378 0.420509 26.03 -0.824825 30.0641 0.567323Z" fill="white"/>
<path d="M19.0117 0.115753C19.1083 0.116254 19.2049 0.116756 19.3044 0.117272C19.5405 0.118571 19.7765 0.120564 20.0126 0.1227C19.6465 0.422343 19.2731 0.703769 18.8874 0.977246C16.0142 3.07714 14.131 6.07784 13.5643 9.61204C13.3089 11.4677 13.3225 13.3727 13.2751 15.2405C11.5256 15.2405 9.77609 15.2405 7.97354 15.2405C7.96443 14.4174 7.95531 13.5944 7.94593 12.7464C7.9419 12.4908 7.93788 12.2352 7.93374 11.972C7.90547 8.88016 8.82255 5.98937 10.9993 3.75061C11.0942 3.65389 11.1892 3.55717 11.287 3.45751C11.3581 3.37799 11.4291 3.29846 11.5023 3.21652C13.3522 1.19323 16.3303 0.089074 19.0117 0.115753ZM9.74074 11.6834C9.74074 12.2703 9.74074 12.8572 9.74074 13.462C10.3239 13.462 10.9071 13.462 11.5079 13.462C11.5079 12.875 11.5079 12.2881 11.5079 11.6834C10.9248 11.6834 10.3416 11.6834 9.74074 11.6834Z" fill="white"/>
<path d="M25.2036 3.67978C27.7234 3.59786 29.9465 3.83558 31.8789 5.61119C32.912 6.60835 33.6632 7.65694 34.1501 9.01548C34.197 9.14477 34.197 9.14477 34.2449 9.27666C34.6015 10.4473 34.5172 11.6679 34.5021 12.8783C34.4953 13.6578 34.4885 14.4373 34.4814 15.2405C32.7319 15.2405 30.9824 15.2405 29.1798 15.2405C29.1662 14.6948 29.1525 14.1491 29.1384 13.587C29.0409 10.3517 28.718 7.22345 26.2561 4.8576C25.9865 4.60752 25.7128 4.36421 25.4344 4.12399C25.3583 4.05076 25.2821 3.97754 25.2036 3.9021C25.2036 3.82873 25.2036 3.75537 25.2036 3.67978Z" fill="white"/>
<path d="M38.2368 21.9101C41.0447 22.8935 43.0613 25.2441 44.3581 27.8631C45.3265 29.9104 45.971 32.2194 45.9946 34.496C45.9957 34.582 45.9968 34.6681 45.998 34.7567C46.043 39.2305 45.1508 43.6494 41.9719 46.988C40.8871 48.0916 39.732 48.8173 38.3473 49.4779C38.3473 49.1444 38.3473 49.1444 38.5539 48.9321C38.6475 48.8531 38.741 48.7742 38.8374 48.6928C41.2857 46.5338 42.7236 43.5755 43.5177 40.4392C43.5392 40.3544 43.5608 40.2696 43.5829 40.1823C43.937 38.7013 44.0217 37.2442 44.0147 35.7288C44.0145 35.6353 44.0143 35.5418 44.014 35.4454C44.0085 34.0959 43.9784 32.7849 43.6489 31.4699C43.6151 31.3313 43.6151 31.3313 43.5806 31.1898C42.7251 27.7613 41.1579 24.6088 38.4193 22.3096C38.3591 22.2511 38.2989 22.1927 38.2368 22.1324C38.2368 22.0591 38.2368 21.9857 38.2368 21.9101Z" fill="white"/>
<path d="M17.0312 21.9101C19.8391 22.8935 21.8557 25.2441 23.1526 27.8631C24.1209 29.9104 24.7654 32.2194 24.7891 34.496C24.7902 34.582 24.7913 34.6681 24.7924 34.7567C24.8374 39.2305 23.9452 43.6494 20.7664 46.988C19.6816 48.0916 18.5264 48.8173 17.1417 49.4779C17.1417 49.1444 17.1417 49.1444 17.3484 48.9321C17.4419 48.8531 17.5354 48.7742 17.6318 48.6928C20.0801 46.5338 21.518 43.5755 22.3122 40.4392C22.3337 40.3544 22.3552 40.2696 22.3774 40.1823C22.7315 38.7013 22.8161 37.2442 22.8092 35.7288C22.8089 35.6353 22.8087 35.5418 22.8085 35.4454C22.8029 34.0959 22.7728 32.7849 22.4433 31.4699C22.4095 31.3313 22.4095 31.3313 22.375 31.1898C21.5195 27.7613 19.9523 24.6088 17.2138 22.3096C17.1535 22.2511 17.0933 22.1927 17.0312 22.1324C17.0312 22.0591 17.0312 21.9857 17.0312 21.9101Z" fill="white"/>
<path d="M6.75897 30.3584C7.44549 30.6383 7.8711 31.2702 8.19482 31.9146C9.12052 34.2128 9.24389 36.9405 8.27895 39.2443C7.92318 40.0069 7.528 40.6428 6.75897 41.0298C6.21531 41.1274 5.71797 41.1209 5.24028 40.8213C4.25633 39.9942 3.74495 38.493 3.55591 37.2503C3.40465 35.1262 3.44104 33.0679 4.66041 31.2477C4.95035 30.9142 4.95035 30.9142 5.21267 30.6918C5.28001 30.6334 5.34735 30.5749 5.41674 30.5147C5.83823 30.2375 6.27468 30.2808 6.75897 30.3584ZM5.32312 34.8048C5.32312 35.3917 5.32312 35.9786 5.32312 36.5834C5.90629 36.5834 6.48947 36.5834 7.09032 36.5834C7.09032 35.9964 7.09032 35.4095 7.09032 34.8048C6.50714 34.8048 5.92397 34.8048 5.32312 34.8048Z" fill="white"/>
<path d="M29.1802 17.019C30.9297 17.019 32.6792 17.019 34.4818 17.019C34.4818 17.8994 34.4818 18.7798 34.4818 19.6869C34.0649 19.7006 33.648 19.7144 33.2185 19.7286C31.8547 19.7793 30.527 19.9056 29.1802 20.1315C29.1802 19.1044 29.1802 18.0773 29.1802 17.019Z" fill="white"/>
<path d="M7.97363 17.019C9.72316 17.019 11.4727 17.019 13.2752 17.019C13.2752 17.8994 13.2752 18.7798 13.2752 19.6869C12.8584 19.7006 12.4415 19.7144 12.012 19.7286C10.6481 19.7793 9.32046 19.9056 7.97363 20.1315C7.97363 19.1044 7.97363 18.0773 7.97363 17.019Z" fill="white"/>
<path d="M33.5846 33.8669C33.9298 33.9155 33.9298 33.9155 34.1852 34.1725C34.495 34.6691 34.5055 35.1036 34.5096 35.6732C34.5119 35.7509 34.5142 35.8287 34.5165 35.9088C34.5205 36.4422 34.428 36.7971 34.1507 37.2503C33.9298 37.4726 33.9298 37.4726 33.6122 37.5213C33.2671 37.4726 33.2671 37.4726 33.0116 37.2156C32.7019 36.719 32.6913 36.2845 32.6872 35.7149C32.6849 35.6372 32.6826 35.5594 32.6803 35.4793C32.6763 34.9459 32.7688 34.591 33.0462 34.1378C33.2671 33.9155 33.2671 33.9155 33.5846 33.8669Z" fill="white"/>
<path d="M36.2495 17.019C36.8327 17.019 37.4159 17.019 38.0167 17.019C38.0167 18.0462 38.0167 19.0733 38.0167 20.1315C37.4335 20.0215 36.8504 19.9114 36.2495 19.7981C36.2495 18.881 36.2495 17.9639 36.2495 17.019Z" fill="white"/>
<path d="M15.0425 17.019C15.6257 17.019 16.2088 17.019 16.8097 17.019C16.8097 18.0462 16.8097 19.0733 16.8097 20.1315C16.2265 20.0215 15.6433 19.9114 15.0425 19.7981C15.0425 18.881 15.0425 17.9639 15.0425 17.019Z" fill="white"/>
</svg>
