<svg width="57" height="40" viewBox="0 0 57 40" fill="none" xmlns="http://www.w3.org/2000/svg">
<path d="M0 9.96289C18.7579 9.96289 37.5158 9.96289 56.8421 9.96289C56.8421 16.6696 56.8421 23.3764 56.8421 30.2863C38.0842 30.2863 19.3263 30.2863 0 30.2863C0 23.5796 0 16.8729 0 9.96289ZM2.8176 12.1935C2.4194 12.7683 2.53235 13.4964 2.53431 14.1685C2.53234 14.303 2.53036 14.4374 2.52833 14.5759C2.52825 14.7058 2.52817 14.8358 2.52809 14.9697C2.52773 15.0879 2.52736 15.2061 2.52699 15.3279C2.5815 15.7289 2.70485 15.9577 2.94011 16.283C3.53474 16.684 4.22823 16.5817 4.92423 16.5836C5.18944 16.585 5.4543 16.5911 5.71943 16.5974C5.88883 16.5986 6.05823 16.5995 6.22763 16.6001C6.38119 16.6017 6.53474 16.6034 6.69295 16.6051C7.22524 16.5092 7.40147 16.3502 7.71779 15.9112C7.80909 15.5263 7.80909 15.5263 7.79483 15.1091C7.79507 14.9568 7.7953 14.8045 7.79555 14.6475C7.79117 14.4104 7.79117 14.4104 7.7867 14.1685C7.78871 13.9307 7.78871 13.9307 7.79076 13.6881C7.82634 12.8612 7.82634 12.8612 7.48375 12.1522C6.88708 11.6709 6.21586 11.7941 5.48007 11.792C5.23161 11.7908 4.98328 11.7869 4.73485 11.783C4.57764 11.7824 4.42044 11.7817 4.25847 11.7811C4.1144 11.7799 3.97033 11.7788 3.8219 11.7776C3.38489 11.8268 3.16196 11.92 2.8176 12.1935ZM9.43285 12.1935C9.17435 12.7165 9.27251 13.3929 9.26746 13.9683C9.26543 14.1375 9.26208 14.3067 9.25741 14.4759C9.25069 14.7203 9.2484 14.9648 9.24622 15.2093C9.24379 15.3557 9.24137 15.5021 9.23886 15.6529C9.28009 16.0507 9.28009 16.0507 9.5663 16.3302C10.0032 16.576 10.2932 16.5966 10.7919 16.601C10.8739 16.6018 10.9558 16.6026 11.0403 16.6034C11.2128 16.6042 11.3854 16.6038 11.558 16.6023C11.821 16.6005 12.0836 16.6048 12.3466 16.6095C12.5149 16.6096 12.6832 16.6094 12.8515 16.6088C13.0035 16.6089 13.1555 16.609 13.3121 16.609C13.8396 16.508 14.0183 16.3469 14.333 15.9112C14.4224 15.5262 14.4224 15.5262 14.4058 15.1091C14.4053 14.8806 14.4053 14.8806 14.4048 14.6475C14.4013 14.4895 14.3979 14.3314 14.3943 14.1685C14.3946 14.01 14.3949 13.8514 14.3952 13.6881C14.4276 12.7312 14.4276 12.7312 13.9655 11.9457C13.3568 11.7404 12.7236 11.7938 12.0861 11.792C11.8387 11.7908 11.5915 11.7869 11.3441 11.783C11.1875 11.7824 11.0308 11.7817 10.8694 11.7811C10.7261 11.7799 10.5828 11.7788 10.4352 11.7776C10.0054 11.8263 9.7767 11.933 9.43285 12.1935ZM16.0481 12.1935C15.7686 12.759 15.8864 13.5323 15.8797 14.1531C15.8751 14.3122 15.8705 14.4714 15.8658 14.6354C15.8644 14.7889 15.8629 14.9423 15.8615 15.1004C15.859 15.2409 15.8566 15.3815 15.8541 15.5263C15.9505 16.0451 16.1198 16.2211 16.5381 16.5308C16.9527 16.6235 16.9527 16.6235 17.4071 16.6088C17.5301 16.6092 17.5301 16.6092 17.6555 16.6097C17.8281 16.6096 18.0007 16.6079 18.1732 16.6048C18.4363 16.6006 18.6988 16.6022 18.9619 16.6047C19.1302 16.6038 19.2985 16.6026 19.4667 16.601C19.6187 16.5997 19.7707 16.5983 19.9273 16.5969C20.4064 16.5194 20.6106 16.3821 20.9483 16.0351C21.1461 15.4349 21.0985 14.8204 21.1014 14.1918C21.1039 14.0568 21.1065 13.9218 21.1091 13.7827C21.1097 13.6522 21.1103 13.5217 21.111 13.3872C21.1121 13.2683 21.1133 13.1493 21.1144 13.0267C21.0618 12.6199 20.9481 12.3951 20.7033 12.0696C20.1346 11.6509 19.3629 11.7804 18.6921 11.7826C18.4458 11.783 18.1997 11.7801 17.9534 11.777C17.7192 11.7768 17.7192 11.7768 17.4803 11.7767C17.3378 11.7764 17.1953 11.776 17.0485 11.7756C16.621 11.8265 16.3907 11.9345 16.0481 12.1935ZM22.6633 12.3174C22.3987 12.8528 22.5182 13.5728 22.5179 14.1608C22.5164 14.3092 22.5149 14.4576 22.5133 14.6105C22.5131 14.7532 22.5128 14.8958 22.5126 15.0428C22.5121 15.1736 22.5116 15.3044 22.5111 15.4392C22.5415 15.7956 22.5827 15.992 22.7858 16.283C23.2009 16.5878 23.6101 16.5628 24.1104 16.5638C24.1901 16.564 24.2699 16.5642 24.352 16.5645C24.52 16.5646 24.6881 16.5642 24.8561 16.5631C25.1126 16.5618 25.369 16.5631 25.6255 16.5647C25.7891 16.5646 25.9528 16.5642 26.1164 16.5638C26.2647 16.5635 26.413 16.5632 26.5658 16.5629C26.938 16.5319 27.1411 16.5032 27.441 16.283C27.8568 15.6821 27.7312 14.8849 27.732 14.184C27.7365 13.9647 27.7365 13.9647 27.7411 13.7409C27.7415 13.5997 27.742 13.4586 27.7425 13.3132C27.744 13.1203 27.744 13.1203 27.7455 12.9235C27.6712 12.4758 27.5036 12.27 27.196 11.9457C26.6715 11.6804 25.9781 11.7885 25.396 11.7852C25.1386 11.783 24.8814 11.7776 24.6241 11.7721C24.4598 11.7709 24.2954 11.7698 24.131 11.769C23.9818 11.7672 23.8326 11.7654 23.6789 11.7635C23.2014 11.8325 23.0031 11.9783 22.6633 12.3174ZM29.4011 12.1935C29.0029 12.7683 29.1158 13.4964 29.1178 14.1685C29.1158 14.303 29.1138 14.4374 29.1118 14.5759C29.1117 14.7058 29.1117 14.8358 29.1116 14.9697C29.1112 15.0879 29.1108 15.2061 29.1105 15.3279C29.165 15.7289 29.2883 15.9577 29.5236 16.283C30.1182 16.684 30.8117 16.5817 31.5077 16.5836C31.7729 16.585 32.0378 16.5911 32.3029 16.5974C32.4723 16.5986 32.6417 16.5995 32.8111 16.6001C32.9647 16.6017 33.1182 16.6034 33.2764 16.6051C33.8087 16.5092 33.985 16.3502 34.3013 15.9112C34.3926 15.5263 34.3926 15.5263 34.3783 15.1091C34.3786 14.9568 34.3788 14.8045 34.379 14.6475C34.3746 14.4104 34.3746 14.4104 34.3702 14.1685C34.3722 13.9307 34.3722 13.9307 34.3742 13.6881C34.4098 12.8612 34.4098 12.8612 34.0672 12.1522C33.4706 11.6709 32.7994 11.7941 32.0636 11.792C31.8151 11.7908 31.5668 11.7869 31.3183 11.783C31.1611 11.7824 31.0039 11.7817 30.842 11.7811C30.6979 11.7799 30.5538 11.7788 30.4054 11.7776C29.9684 11.8268 29.7454 11.92 29.4011 12.1935ZM36.0163 12.1935C35.7578 12.7165 35.856 13.3929 35.8509 13.9683C35.8489 14.1375 35.8456 14.3067 35.8409 14.4759C35.8342 14.7203 35.8319 14.9648 35.8297 15.2093C35.8273 15.3557 35.8249 15.5021 35.8223 15.6529C35.8636 16.0507 35.8636 16.0507 36.1498 16.3305C36.5874 16.5764 36.876 16.5948 37.3754 16.5967C37.4983 16.5974 37.4983 16.5974 37.6238 16.5981C37.7963 16.5984 37.9689 16.5975 38.1414 16.5955C38.4045 16.5928 38.6671 16.5954 38.9301 16.5986C39.0984 16.5983 39.2667 16.5976 39.435 16.5967C39.587 16.5961 39.739 16.5956 39.8956 16.595C40.3863 16.5179 40.5887 16.4119 40.9165 16.0351C41.0066 15.6495 41.0066 15.6495 40.9893 15.218C40.9889 15.0597 40.9886 14.9014 40.9883 14.7383C40.9856 14.6152 40.9856 14.6152 40.9829 14.4895C40.9778 14.239 40.9779 13.9888 40.9787 13.7382C41.017 12.7545 41.017 12.7545 40.549 11.9457C39.9403 11.7404 39.3071 11.7938 38.6696 11.792C38.4222 11.7908 38.1749 11.7869 37.9276 11.783C37.7709 11.7824 37.6143 11.7817 37.4529 11.7811C37.3096 11.7799 37.1663 11.7788 37.0187 11.7776C36.5889 11.8263 36.3602 11.933 36.0163 12.1935ZM42.7541 12.0696C42.3416 12.6954 42.4588 13.4257 42.4555 14.1608C42.4515 14.3194 42.4474 14.4781 42.4433 14.6415C42.4424 14.7944 42.4415 14.9472 42.4406 15.1047C42.439 15.2445 42.4373 15.3843 42.4356 15.5283C42.5347 16.0446 42.705 16.2218 43.1216 16.5308C43.5362 16.6235 43.5362 16.6235 43.9906 16.6088C44.1136 16.6092 44.1136 16.6092 44.239 16.6097C44.4116 16.6096 44.5841 16.6079 44.7567 16.6048C45.0197 16.6006 45.2823 16.6022 45.5454 16.6047C45.7137 16.6038 45.8819 16.6026 46.0502 16.601C46.2022 16.5997 46.3542 16.5983 46.5108 16.5969C46.9899 16.5194 47.194 16.3821 47.5318 16.0351C47.7296 15.4349 47.682 14.8204 47.6849 14.1918C47.6874 14.0568 47.6899 13.9218 47.6925 13.7827C47.6932 13.6522 47.6938 13.5217 47.6945 13.3872C47.6956 13.2683 47.6968 13.1493 47.6979 13.0267C47.6453 12.6199 47.5316 12.3951 47.2868 12.0696C46.8787 11.7683 46.483 11.7898 45.989 11.7888C45.8325 11.7885 45.676 11.7882 45.5147 11.7879C45.4336 11.7884 45.3524 11.7889 45.2688 11.7894C45.0212 11.7908 44.7737 11.7894 44.5261 11.7879C44.3696 11.7882 44.2131 11.7885 44.0519 11.7888C43.9087 11.7891 43.7656 11.7894 43.6181 11.7897C43.2535 11.8209 43.0534 11.8626 42.7541 12.0696ZM49.2468 12.3174C48.9822 12.8528 49.1017 13.5728 49.1014 14.1608C49.0998 14.3092 49.0984 14.4576 49.0968 14.6105C49.0966 14.7532 49.0963 14.8958 49.0961 15.0428C49.0956 15.1736 49.0951 15.3044 49.0946 15.4392C49.125 15.7956 49.1662 15.992 49.3693 16.283C49.7844 16.5878 50.1936 16.5628 50.6939 16.5638C50.7736 16.564 50.8533 16.5642 50.9355 16.5645C51.1035 16.5646 51.2716 16.5642 51.4396 16.5631C51.6961 16.5618 51.9525 16.5631 52.2089 16.5647C52.3726 16.5646 52.5363 16.5642 52.6999 16.5638C52.8482 16.5635 52.9965 16.5632 53.1493 16.5629C53.5215 16.5319 53.7246 16.5032 54.0245 16.283C54.4403 15.6821 54.3147 14.8849 54.3154 14.184C54.32 13.9647 54.32 13.9647 54.3245 13.7409C54.325 13.5997 54.3255 13.4586 54.326 13.3132C54.3275 13.1203 54.3275 13.1203 54.329 12.9235C54.2546 12.4758 54.087 12.27 53.7795 11.9457C53.255 11.6804 52.5616 11.7885 51.9795 11.7852C51.7221 11.783 51.4649 11.7776 51.2076 11.7721C51.0432 11.7709 50.8789 11.7698 50.7145 11.769C50.5653 11.7672 50.4161 11.7654 50.2624 11.7635C49.7849 11.8325 49.5866 11.9783 49.2468 12.3174ZM2.6951 18.1418C2.49731 18.7421 2.54489 19.3566 2.54197 19.9852C2.53944 20.1202 2.53692 20.2552 2.53431 20.3942C2.53368 20.5248 2.53305 20.6553 2.5324 20.7897C2.53125 20.9087 2.53011 21.0277 2.52893 21.1503C2.58112 21.5537 2.70337 21.7809 2.94011 22.1074C3.52379 22.501 4.18955 22.3965 4.87189 22.3944C5.12815 22.394 5.38423 22.3969 5.64047 22.4C5.80429 22.4003 5.96811 22.4004 6.13193 22.4003C6.28035 22.4006 6.42877 22.401 6.58169 22.4014C7.01712 22.3513 7.24754 22.2483 7.59528 21.9835C7.87506 21.4174 7.7515 20.6376 7.75607 20.0162C7.75962 19.856 7.76318 19.6957 7.76684 19.5307C7.76838 19.2999 7.76838 19.2999 7.76995 19.0645C7.77173 18.9233 7.77352 18.7821 7.77536 18.6366C7.70551 18.1867 7.57576 18.0485 7.22777 17.7701C6.70328 17.5048 6.00991 17.6129 5.42773 17.6096C5.17037 17.6074 4.9132 17.602 4.65589 17.5965C4.49152 17.5953 4.32714 17.5942 4.16276 17.5934C4.01356 17.5916 3.86436 17.5898 3.71064 17.5879C3.23089 17.6572 3.03209 17.7954 2.6951 18.1418ZM9.31034 18.2658C9.22096 18.6508 9.22096 18.6508 9.23761 19.0679C9.23792 19.2202 9.23824 19.3725 9.23857 19.5294C9.24204 19.6875 9.24551 19.8456 9.24909 20.0084C9.24878 20.167 9.24846 20.3255 9.24814 20.4889C9.21573 21.4457 9.21573 21.4457 9.67786 22.2313C10.2866 22.4366 10.9198 22.3831 11.5573 22.385C11.8047 22.3862 12.0519 22.3901 12.2993 22.394C12.5342 22.3949 12.5342 22.3949 12.774 22.3959C12.9173 22.3971 13.0605 22.3982 13.2082 22.3994C13.6379 22.3507 13.8667 22.244 14.2105 21.9835C14.4897 21.4186 14.3612 20.6363 14.3637 20.0162C14.3662 19.856 14.3687 19.6957 14.3713 19.5307C14.3719 19.3768 14.3726 19.223 14.3732 19.0645C14.3744 18.9233 14.3755 18.7821 14.3767 18.6366C14.3284 18.2262 14.2527 18.0593 13.9655 17.7701C13.3437 17.5604 12.6845 17.6085 12.0337 17.6028C11.8622 17.6007 11.6906 17.5973 11.5191 17.5926C11.2706 17.5858 11.0223 17.5831 10.7737 17.5813C10.6253 17.5788 10.4769 17.5764 10.3239 17.5738C9.79862 17.6685 9.62335 17.8334 9.31034 18.2658ZM16.0481 18.0179C15.7689 18.5828 15.8974 19.3651 15.895 19.9852C15.8924 20.1454 15.8899 20.3056 15.8873 20.4707C15.8867 20.6246 15.886 20.7784 15.8854 20.9369C15.8842 21.0781 15.8831 21.2193 15.8819 21.3648C15.9302 21.7752 16.0059 21.9421 16.2931 22.2313C16.9147 22.4409 17.5744 22.388 18.2249 22.3918C18.3965 22.3932 18.568 22.3958 18.7395 22.3994C18.988 22.4047 19.2364 22.4067 19.4849 22.408C19.6333 22.4098 19.7818 22.4116 19.9347 22.4135C20.4131 22.344 20.612 22.2049 20.9483 21.8595C21.1461 21.2593 21.0985 20.6448 21.1014 20.0162C21.1039 19.8812 21.1065 19.7462 21.1091 19.6071C21.1097 19.4766 21.1103 19.3461 21.111 19.2116C21.1121 19.0927 21.1133 18.9737 21.1144 18.8511C21.0623 18.4477 20.94 18.2205 20.7033 17.894C20.1196 17.5004 19.4538 17.6048 18.7715 17.607C18.5152 17.6074 18.2591 17.6045 18.0029 17.6014C17.8391 17.6011 17.6753 17.601 17.5114 17.6011C17.363 17.6008 17.2146 17.6004 17.0617 17.6C16.6263 17.6501 16.3958 17.7531 16.0481 18.0179ZM22.7858 17.894C22.5098 18.2911 22.5093 18.649 22.5083 19.1255C22.508 19.267 22.5077 19.4086 22.5073 19.5544C22.5083 19.7017 22.5092 19.8489 22.5102 20.0007C22.5093 20.148 22.5083 20.2953 22.5073 20.447C22.5077 20.5885 22.508 20.7301 22.5083 20.8759C22.5086 21.0051 22.5088 21.1344 22.5091 21.2675C22.5417 21.6208 22.5849 21.8183 22.7858 22.1074C23.2009 22.4122 23.6101 22.3872 24.1104 22.3882C24.1901 22.3884 24.2699 22.3886 24.352 22.3889C24.52 22.389 24.6881 22.3886 24.8561 22.3875C25.1126 22.3862 25.369 22.3875 25.6255 22.3891C25.7891 22.389 25.9528 22.3886 26.1164 22.3882C26.2647 22.3879 26.413 22.3876 26.5658 22.3873C26.938 22.3563 27.1411 22.3276 27.441 22.1074C27.7171 21.7103 27.7175 21.3523 27.7186 20.8759C27.7189 20.7344 27.7192 20.5928 27.7195 20.447C27.7181 20.2261 27.7181 20.2261 27.7167 20.0007C27.7176 19.8534 27.7185 19.7061 27.7195 19.5544C27.719 19.3421 27.719 19.3421 27.7186 19.1255C27.7183 18.9962 27.718 18.867 27.7177 18.7339C27.6852 18.3806 27.642 18.1831 27.441 17.894C27.0259 17.5892 26.6167 17.6142 26.1164 17.6132C25.9969 17.6129 25.9969 17.6129 25.8749 17.6125C25.7068 17.6123 25.5388 17.6128 25.3708 17.6138C25.1143 17.6152 24.8579 17.6138 24.6014 17.6123C24.4377 17.6124 24.2741 17.6127 24.1104 17.6132C23.9621 17.6135 23.8139 17.6138 23.6611 17.6141C23.2889 17.6451 23.0857 17.6738 22.7858 17.894ZM29.2786 18.1418C29.0808 18.7421 29.1284 19.3566 29.1255 19.9852C29.1229 20.1202 29.1204 20.2552 29.1178 20.3942C29.1172 20.5248 29.1165 20.6553 29.1159 20.7897C29.1147 20.9087 29.1136 21.0277 29.1124 21.1503C29.1646 21.5537 29.2869 21.7809 29.5236 22.1074C30.1073 22.501 30.773 22.3965 31.4554 22.3944C31.7116 22.394 31.9677 22.3969 32.224 22.4C32.3878 22.4003 32.5516 22.4004 32.7154 22.4003C32.8638 22.4006 33.0123 22.401 33.1652 22.4014C33.6006 22.3513 33.831 22.2483 34.1788 21.9835C34.458 21.4186 34.3295 20.6363 34.3319 20.0162C34.3344 19.856 34.337 19.6957 34.3396 19.5307C34.3402 19.3768 34.3408 19.223 34.3415 19.0645C34.3426 18.9233 34.3438 18.7821 34.3449 18.6366C34.2966 18.2262 34.2209 18.0593 33.9338 17.7701C33.3122 17.5605 32.6525 17.6133 32.002 17.6096C31.8304 17.6081 31.6588 17.6056 31.4873 17.6019C31.2388 17.5966 30.9905 17.5946 30.7419 17.5934C30.5935 17.5916 30.4451 17.5898 30.2922 17.5879C29.8137 17.6574 29.6149 17.7965 29.2786 18.1418ZM35.8938 18.2658C35.8044 18.6508 35.8044 18.6508 35.8211 19.0679C35.8214 19.2202 35.8217 19.3725 35.8221 19.5294C35.8255 19.6875 35.829 19.8456 35.8326 20.0084C35.8323 20.167 35.8319 20.3255 35.8316 20.4889C35.7992 21.4457 35.7992 21.4457 36.2613 22.2313C36.8701 22.4366 37.5033 22.3831 38.1408 22.385C38.3882 22.3862 38.6354 22.3901 38.8827 22.394C39.1177 22.3949 39.1177 22.3949 39.3575 22.3959C39.5007 22.3971 39.644 22.3982 39.7917 22.3994C40.2214 22.3507 40.4502 22.244 40.794 21.9835C41.0735 21.418 40.9557 20.6447 40.9625 20.0239C40.967 19.8647 40.9716 19.7056 40.9763 19.5415C40.9778 19.3881 40.9792 19.2347 40.9806 19.0766C40.9831 18.936 40.9855 18.7955 40.988 18.6507C40.8916 18.1319 40.7221 17.9561 40.304 17.6461C39.8895 17.5515 39.8895 17.5515 39.435 17.5639C39.353 17.5633 39.271 17.5627 39.1866 17.5621C39.014 17.5616 38.8414 17.5628 38.6689 17.5654C38.4058 17.5687 38.1433 17.5654 37.8802 17.5614C37.7119 17.5618 37.5437 17.5626 37.3754 17.5639C37.1474 17.5649 37.1474 17.5649 36.9148 17.566C36.3883 17.6693 36.2084 17.8306 35.8938 18.2658ZM42.6316 18.0179C42.3518 18.5839 42.4754 19.3638 42.4708 19.9852C42.4672 20.1454 42.4637 20.3056 42.46 20.4707C42.459 20.6246 42.458 20.7784 42.4569 20.9369C42.4551 21.0781 42.4533 21.2193 42.4515 21.3648C42.5213 21.8147 42.6511 21.9529 42.9991 22.2313C43.5236 22.4966 44.217 22.3885 44.7991 22.3918C45.0565 22.3939 45.3137 22.3994 45.571 22.4049C45.7353 22.4061 45.8997 22.4072 46.0641 22.408C46.2133 22.4098 46.3625 22.4116 46.5162 22.4135C46.996 22.3441 47.1948 22.206 47.5318 21.8595C47.7296 21.2593 47.682 20.6448 47.6849 20.0162C47.6874 19.8812 47.6899 19.7462 47.6925 19.6071C47.6932 19.4766 47.6938 19.3461 47.6945 19.2116C47.6956 19.0927 47.6968 18.9737 47.6979 18.8511C47.6457 18.4477 47.5235 18.2205 47.2868 17.894C46.7031 17.5004 46.0373 17.6048 45.355 17.607C45.0987 17.6074 44.8426 17.6045 44.5864 17.6014C44.4226 17.6011 44.2588 17.601 44.0949 17.6011C43.9465 17.6008 43.7981 17.6004 43.6452 17.6C43.2097 17.6501 42.9793 17.7531 42.6316 18.0179ZM49.3693 17.894C49.1009 18.3149 49.0921 18.6698 49.0887 19.1642C49.0872 19.3209 49.0856 19.4777 49.084 19.6392C49.0836 19.8099 49.0833 19.9806 49.0832 20.1512C49.0824 20.3269 49.0816 20.5025 49.0807 20.6781C49.0792 21.0459 49.0788 21.4137 49.0789 21.7816C49.0789 22.2522 49.0756 22.7227 49.0714 23.1933C49.0686 23.556 49.0682 23.9186 49.0683 24.2812C49.068 24.4547 49.0669 24.6282 49.065 24.8016C49.0626 25.0445 49.0636 25.2874 49.0648 25.5303C49.0645 25.6683 49.0641 25.8063 49.0637 25.9485C49.1387 26.4094 49.2865 26.616 49.6143 26.9404C49.9536 27.0036 50.2172 27.0276 50.5561 27.0227C50.6467 27.0233 50.7373 27.0239 50.8306 27.0245C51.0217 27.0249 51.2128 27.0238 51.4039 27.0212C51.6961 27.0179 51.9876 27.0212 52.2798 27.0251C52.4658 27.0247 52.6518 27.0239 52.8377 27.0227C52.9248 27.024 53.0118 27.0252 53.1015 27.0265C53.5326 27.0162 53.7351 26.9843 54.0477 26.675C54.3109 26.2547 54.3303 26.0244 54.329 25.5303C54.3298 25.3731 54.3305 25.216 54.3313 25.0541C54.3296 24.8836 54.3278 24.7132 54.326 24.5428C54.3257 24.367 54.3256 24.1913 54.3256 24.0155C54.3253 23.6479 54.3232 23.2804 54.3199 22.9127C54.3158 22.442 54.3148 21.9713 54.315 21.5006C54.315 21.1379 54.3136 20.7753 54.3118 20.4127C54.3111 20.2391 54.3106 20.0655 54.3104 19.892C54.3099 19.6494 54.3075 19.4068 54.3051 19.1642C54.3042 19.0263 54.3032 18.8883 54.3023 18.7462C54.2699 18.3935 54.2129 18.1893 54.0245 17.894C53.6094 17.5892 53.2002 17.6142 52.6999 17.6132C52.5803 17.6129 52.5803 17.6129 52.4584 17.6125C52.2903 17.6123 52.1223 17.6128 51.9542 17.6138C51.6978 17.6152 51.4414 17.6138 51.1849 17.6123C51.0212 17.6124 50.8576 17.6127 50.6939 17.6132C50.5456 17.6135 50.3973 17.6138 50.2446 17.6141C49.8724 17.6451 49.6692 17.6738 49.3693 17.894ZM2.6951 23.9662C2.49731 24.5665 2.54489 25.181 2.54197 25.8096C2.53944 25.9446 2.53692 26.0796 2.53431 26.2186C2.53368 26.3492 2.53305 26.4797 2.5324 26.6141C2.53125 26.7331 2.53011 26.8521 2.52893 26.9747C2.58156 27.3815 2.69523 27.6062 2.94011 27.9318C3.34814 28.2331 3.7439 28.2116 4.23789 28.2126C4.39439 28.2129 4.55088 28.2132 4.71212 28.2135C4.79327 28.213 4.87442 28.2125 4.95802 28.212C5.20564 28.2106 5.45315 28.2119 5.70077 28.2135C5.85726 28.2132 6.01376 28.2129 6.17499 28.2126C6.31815 28.2123 6.4613 28.212 6.60879 28.2117C6.9734 28.1804 7.17342 28.1388 7.47278 27.9318C7.88524 27.3059 7.76811 26.5757 7.77138 25.8406C7.77541 25.682 7.77944 25.5233 7.78358 25.3599C7.78445 25.207 7.78532 25.0541 7.78622 24.8966C7.78786 24.7569 7.78951 24.6171 7.79121 24.4731C7.6922 23.9567 7.52189 23.7796 7.10526 23.4705C6.69069 23.3779 6.69069 23.3779 6.23625 23.3926C6.11329 23.3922 6.11329 23.3922 5.98784 23.3917C5.81528 23.3918 5.64271 23.3935 5.47017 23.3966C5.20712 23.4008 4.94456 23.3991 4.68149 23.3967C4.51321 23.3976 4.34492 23.3988 4.17664 23.4004C4.02464 23.4017 3.87265 23.4031 3.71605 23.4044C3.23693 23.482 3.03282 23.6193 2.6951 23.9662ZM9.31034 23.9662C9.22031 24.3519 9.22031 24.3519 9.23761 24.7834C9.23792 24.9417 9.23824 25.1 9.23857 25.2631C9.24034 25.3452 9.24212 25.4273 9.24395 25.5118C9.24908 25.7624 9.24898 26.0126 9.24814 26.2632C9.20989 27.2469 9.20989 27.2469 9.67786 28.0557C10.2866 28.261 10.9198 28.2075 11.5573 28.2094C11.8047 28.2106 12.0519 28.2145 12.2993 28.2184C12.5342 28.2193 12.5342 28.2193 12.774 28.2203C12.9173 28.2215 13.0605 28.2226 13.2082 28.2238C13.6379 28.1751 13.8667 28.0684 14.2105 27.8079C14.49 27.2424 14.3723 26.4691 14.379 25.8483C14.3835 25.6891 14.3881 25.53 14.3928 25.3659C14.3943 25.2125 14.3957 25.0591 14.3972 24.901C14.3996 24.7604 14.402 24.6199 14.4045 24.4751C14.3082 23.9562 14.1388 23.7803 13.7205 23.4705C13.3059 23.3779 13.3059 23.3779 12.8515 23.3926C12.7285 23.3922 12.7285 23.3922 12.6031 23.3917C12.4305 23.3918 12.258 23.3935 12.0854 23.3966C11.8224 23.4008 11.5598 23.3991 11.2967 23.3967C11.1285 23.3976 10.9602 23.3988 10.7919 23.4004C10.6399 23.4017 10.4879 23.4031 10.3313 23.4044C9.84155 23.4837 9.63792 23.5901 9.31034 23.9662ZM16.1335 23.7611C15.8775 24.1663 15.8482 24.413 15.8485 24.8923C15.8483 25.0446 15.8481 25.1969 15.8478 25.3538C15.8507 25.5119 15.8537 25.67 15.8567 25.8328C15.8553 25.9914 15.854 26.1499 15.8526 26.3133C15.817 27.1402 15.817 27.1402 16.1596 27.8492C16.5728 28.1825 16.81 28.1955 17.3324 28.197C17.4751 28.1978 17.6179 28.1985 17.7649 28.1992C18.001 28.1994 18.001 28.1994 18.2418 28.1996C18.4086 28.2002 18.5755 28.2008 18.7423 28.2015C19.1961 28.2031 19.6499 28.2039 20.1038 28.2044C20.3872 28.2048 20.6707 28.2053 20.9542 28.2059C21.841 28.2076 22.7277 28.2088 23.6145 28.2092C24.6384 28.2098 25.6624 28.212 26.6863 28.2156C27.4775 28.2182 28.2687 28.2195 29.06 28.2197C29.5326 28.2198 30.0053 28.2205 30.4779 28.2227C30.9227 28.2248 31.3674 28.225 31.8121 28.224C32.053 28.2238 32.2938 28.2255 32.5346 28.2273C32.7503 28.2262 32.7503 28.2262 32.9703 28.2252C33.1573 28.2255 33.1573 28.2255 33.3481 28.2257C33.7466 28.1718 33.9768 28.0438 34.3013 27.8079C34.7094 27.2222 34.5914 26.4564 34.5922 25.7709C34.5952 25.6305 34.5982 25.4902 34.6013 25.3456C34.6114 24.5422 34.6114 24.5422 34.3137 23.8147C33.9013 23.4619 33.6627 23.4544 33.1302 23.4515C32.9854 23.4504 32.8406 23.4493 32.6914 23.4482C32.5317 23.4477 32.3721 23.4472 32.2075 23.4466C32.0383 23.4457 31.8691 23.4446 31.6999 23.4436C31.1434 23.4403 30.5869 23.4384 30.0304 23.4367C29.8389 23.436 29.6474 23.4353 29.4559 23.4347C28.6594 23.432 27.8629 23.4297 27.0665 23.4283C25.9245 23.4263 24.7827 23.4221 23.6408 23.4151C22.8381 23.4103 22.0355 23.4079 21.2328 23.4072C20.7533 23.4068 20.2738 23.4053 19.7943 23.4012C19.3431 23.3975 18.892 23.3967 18.4408 23.3982C18.1964 23.3982 17.9521 23.3952 17.7078 23.3921C16.8527 23.3659 16.8527 23.3659 16.1335 23.7611ZM35.8938 23.9662C35.8038 24.3519 35.8038 24.3519 35.8211 24.7834C35.8214 24.9417 35.8217 25.1 35.8221 25.2631C35.8238 25.3452 35.8256 25.4273 35.8274 25.5118C35.8326 25.7624 35.8325 26.0126 35.8316 26.2632C35.7934 27.2469 35.7934 27.2469 36.2613 28.0557C36.8701 28.261 37.5033 28.2075 38.1408 28.2094C38.3882 28.2106 38.6354 28.2145 38.8827 28.2184C39.1177 28.2193 39.1177 28.2193 39.3575 28.2203C39.5007 28.2215 39.644 28.2226 39.7917 28.2238C40.2214 28.1751 40.4502 28.0684 40.794 27.8079C41.0525 27.2849 40.9543 26.6085 40.9594 26.0331C40.9614 25.8639 40.9648 25.6946 40.9695 25.5255C40.9762 25.2811 40.9785 25.0366 40.9806 24.7921C40.9831 24.6457 40.9855 24.4993 40.988 24.3485C40.9467 23.9507 40.9467 23.9507 40.6606 23.6709C40.2229 23.425 39.9344 23.4066 39.435 23.4047C39.312 23.404 39.312 23.404 39.1866 23.4033C39.014 23.4029 38.8414 23.4038 38.6689 23.4059C38.4059 23.4086 38.1432 23.4059 37.8802 23.4028C37.7119 23.4031 37.5437 23.4037 37.3754 23.4047C37.2234 23.4053 37.0714 23.4058 36.9148 23.4064C36.424 23.4835 36.2216 23.5895 35.8938 23.9662ZM42.5091 24.0902C42.4178 24.4751 42.4178 24.4751 42.432 24.8923C42.4318 25.0446 42.4316 25.1969 42.4313 25.3538C42.4342 25.5119 42.4372 25.67 42.4402 25.8328C42.4388 25.9914 42.4375 26.1499 42.4361 26.3133C42.4005 27.1402 42.4005 27.1402 42.7431 27.8492C43.3398 28.3305 44.011 28.2073 44.7468 28.2094C44.9952 28.2106 45.2436 28.2145 45.492 28.2184C45.7278 28.2193 45.7278 28.2193 45.9684 28.2203C46.1125 28.2215 46.2565 28.2226 46.405 28.2238C46.842 28.1745 47.0649 28.0814 47.4093 27.8079C47.8075 27.2331 47.6945 26.505 47.6925 25.8328C47.6945 25.6984 47.6965 25.564 47.6985 25.4255C47.6986 25.2955 47.6987 25.1656 47.6988 25.0317C47.6991 24.9135 47.6995 24.7953 47.6999 24.6735C47.6454 24.2725 47.522 24.0436 47.2868 23.7184C46.6921 23.3174 45.9986 23.4196 45.3026 23.4178C45.0374 23.4163 44.7726 23.4102 44.5074 23.404C44.338 23.4028 44.1686 23.4019 43.9992 23.4013C43.8457 23.3997 43.6921 23.398 43.5339 23.3963C43.0016 23.4922 42.8254 23.6511 42.5091 24.0902Z" fill="white"/>
<path d="M0.244629 32.1452C18.8408 32.1452 37.437 32.1452 56.5967 32.1452C55.2367 35.2024 55.2367 35.2024 54.8663 35.9713C54.7969 36.1225 54.7969 36.1225 54.7261 36.2768C54.3752 37.002 53.9582 37.6558 53.1694 37.9298C52.4591 38.0879 51.7856 38.1273 51.0598 38.1214C50.9387 38.1214 50.8176 38.1214 50.6929 38.1214C50.2897 38.1212 49.8866 38.1192 49.4834 38.1173C49.1934 38.1168 48.9034 38.1165 48.6133 38.1163C47.9901 38.1156 47.3668 38.1142 46.7436 38.1124C45.7584 38.1097 44.7732 38.1096 43.788 38.1101C43.4505 38.1103 43.113 38.1104 42.7755 38.1106C42.6912 38.1106 42.6068 38.1106 42.52 38.1107C41.5619 38.1111 40.6038 38.111 39.6457 38.1107C39.5144 38.1107 39.5144 38.1107 39.3805 38.1106C37.9602 38.1101 36.5399 38.1067 35.1196 38.1026C33.6601 38.0984 32.2006 38.098 30.7411 38.1009C29.9221 38.1024 29.1032 38.102 28.2842 38.0973C27.5147 38.0928 26.7454 38.093 25.9759 38.0967C25.6933 38.0972 25.4107 38.096 25.128 38.093C24.7427 38.0892 24.3579 38.0914 23.9725 38.0952C23.804 38.0913 23.804 38.0913 23.6321 38.0874C23.3204 38.0942 23.0785 38.109 22.7855 38.2175C22.5751 38.4521 22.4429 38.6755 22.3078 38.9607C22.0567 39.4227 21.5932 39.7416 21.0981 39.8964C20.7822 39.9612 20.4909 39.9688 20.1685 39.9698C19.9686 39.9708 19.9686 39.9708 19.7646 39.9719C19.619 39.9721 19.4734 39.9722 19.3234 39.9723C19.1696 39.973 19.0157 39.9736 18.8572 39.9742C18.4355 39.9758 18.0138 39.9766 17.5921 39.9772C17.3284 39.9776 17.0647 39.9781 16.8009 39.9786C15.9749 39.9803 15.1489 39.9815 14.3229 39.982C13.371 39.9825 12.419 39.9847 11.467 39.9883C10.7302 39.991 9.99341 39.9922 9.25659 39.9924C8.81698 39.9925 8.3774 39.9933 7.9378 39.9955C7.44692 39.9979 6.95609 39.9974 6.4652 39.9966C6.32058 39.9977 6.17596 39.9988 6.02695 40C5.09137 39.9952 4.255 39.9445 3.55129 39.2495C3.02982 38.5692 2.69831 37.7555 2.34569 36.9769C2.22238 36.7046 2.09723 36.4333 1.97166 36.1621C1.36258 34.8348 0.806655 33.4955 0.244629 32.1452Z" fill="white"/>
<path d="M9.37879 0.0149723C9.50756 0.014339 9.63634 0.0137056 9.76901 0.013053C10.1938 0.0113334 10.6186 0.0114494 11.0434 0.0117351C11.3394 0.0112532 11.6354 0.010716 11.9314 0.0101259C12.5515 0.00920165 13.1716 0.00923687 13.7918 0.00988952C14.5854 0.0106074 15.379 0.00850979 16.1727 0.00563341C16.7839 0.0038054 17.3951 0.00369932 18.0064 0.00408557C18.2989 0.00402205 18.5915 0.0033745 18.8841 0.00212611C19.2937 0.000592823 19.7032 0.00143622 20.1128 0.00287042C20.233 0.00192318 20.3531 0.000975942 20.477 0C21.2889 0.00626609 22.0178 0.0922273 22.6716 0.62875C22.7321 0.704849 22.7927 0.780948 22.8551 0.859352C22.9593 0.990243 22.9593 0.990243 23.0657 1.12378C23.4388 1.63614 23.7867 2.16184 24.1256 2.69787C24.1977 2.80953 24.2698 2.9212 24.344 3.03624C24.8683 3.85788 24.8683 3.85788 24.8683 4.13848C25.6137 4.1669 26.358 4.18283 27.1039 4.18765C27.357 4.19099 27.6101 4.19763 27.8631 4.20774C29.2471 4.31388 29.2471 4.31388 30.4901 3.83019C30.8178 3.45215 31.046 3.0477 31.2621 2.59691C31.5439 2.03541 31.8759 1.73501 32.4635 1.53609C33.1297 1.3915 33.7808 1.39384 34.4585 1.39417C34.6463 1.39354 34.6463 1.39354 34.8378 1.3929C35.2507 1.39173 35.6636 1.39148 36.0765 1.39135C36.3642 1.39095 36.6519 1.39054 36.9397 1.3901C37.5425 1.38936 38.1453 1.38913 38.7482 1.3892C39.5196 1.38922 40.291 1.38752 41.0624 1.38539C41.6566 1.38401 42.2508 1.38376 42.845 1.38383C43.1293 1.38368 43.4137 1.38313 43.698 1.38217C44.0962 1.38096 44.4943 1.38132 44.8924 1.38206C45.0092 1.38137 45.1259 1.38067 45.2462 1.37995C46.2605 1.38477 47.1566 1.48768 47.9159 2.22445C48.42 2.89368 48.6275 3.71886 48.8792 4.51025C49.0225 4.95117 49.1666 5.39184 49.3111 5.83239C49.4103 6.13627 49.5085 6.44051 49.6055 6.74511C49.6507 6.88525 49.6959 7.02538 49.7424 7.16977C49.7827 7.29602 49.8229 7.42228 49.8643 7.55237C49.9647 7.87216 49.9647 7.87216 50.2267 8.10403C44.7179 8.10688 39.209 8.10906 33.7002 8.11036C33.0466 8.11052 32.3931 8.11068 31.7396 8.11084C31.6095 8.11087 31.4795 8.1109 31.3454 8.11094C29.2519 8.11147 27.1583 8.11245 25.0647 8.11359C22.9092 8.11476 20.7536 8.11544 18.5981 8.11569C17.3904 8.11585 16.1828 8.11621 14.9752 8.11714C5.1845 8.12442 5.1845 8.12442 0.734863 7.98011C0.935572 7.54643 1.14794 7.30363 1.50817 6.98872C2.08343 6.47839 2.6473 5.95795 3.20712 5.43048C3.2696 5.37185 3.33209 5.31323 3.39647 5.25283C3.46047 5.19223 3.52448 5.13164 3.59042 5.06921C3.7338 4.93959 3.88214 4.81544 4.03396 4.69605C4.78798 4.08913 5.1906 3.37071 5.6427 2.51973C6.67072 0.590782 6.67072 0.590782 7.65111 0.166632C8.23305 0.00892282 8.77888 0.0134461 9.37879 0.0149723Z" fill="white"/>
<path d="M17.7632 25.3294C22.6952 25.3294 27.6272 25.3294 32.7087 25.3294C32.7087 25.6568 32.7087 25.9842 32.7087 26.3215C27.7767 26.3215 22.8447 26.3215 17.7632 26.3215C17.7632 25.9941 17.7632 25.6667 17.7632 25.3294Z" fill="white"/>
<path d="M50.9624 19.505C51.4475 19.505 51.9326 19.505 52.4325 19.505C52.4325 21.3453 52.4325 23.1855 52.4325 25.0816C51.9473 25.0816 51.4622 25.0816 50.9624 25.0816C50.9624 23.2413 50.9624 21.401 50.9624 19.505Z" fill="white"/>
<path d="M44.3462 25.3294C44.8313 25.3294 45.3164 25.3294 45.8162 25.3294C45.8162 25.6568 45.8162 25.9842 45.8162 26.3215C45.3311 26.3215 44.846 26.3215 44.3462 26.3215C44.3462 25.9941 44.3462 25.6667 44.3462 25.3294Z" fill="white"/>
<path d="M4.41064 25.3294C4.89576 25.3294 5.38088 25.3294 5.8807 25.3294C5.8807 25.6568 5.8807 25.9842 5.8807 26.3215C5.39558 26.3215 4.91046 26.3215 4.41064 26.3215C4.41064 25.9941 4.41064 25.6667 4.41064 25.3294Z" fill="white"/>
<path d="M44.3462 19.505C44.8313 19.505 45.3164 19.505 45.8162 19.505C45.8162 19.8324 45.8162 20.1598 45.8162 20.4971C45.3311 20.4971 44.846 20.4971 44.3462 20.4971C44.3462 20.1697 44.3462 19.8423 44.3462 19.505Z" fill="white"/>
<path d="M30.9937 19.505C31.4788 19.505 31.9639 19.505 32.4637 19.505C32.4637 19.8324 32.4637 20.1598 32.4637 20.4971C31.9786 20.4971 31.4935 20.4971 30.9937 20.4971C30.9937 20.1697 30.9937 19.8423 30.9937 19.505Z" fill="white"/>
<path d="M24.3784 19.505C24.8635 19.505 25.3487 19.505 25.8485 19.505C25.8485 19.8324 25.8485 20.1598 25.8485 20.4971C25.3634 20.4971 24.8782 20.4971 24.3784 20.4971C24.3784 20.1697 24.3784 19.8423 24.3784 19.505Z" fill="white"/>
<path d="M17.7632 19.505C18.2483 19.505 18.7334 19.505 19.2332 19.505C19.2332 19.8324 19.2332 20.1598 19.2332 20.4971C18.7481 20.4971 18.263 20.4971 17.7632 20.4971C17.7632 20.1697 17.7632 19.8423 17.7632 19.505Z" fill="white"/>
<path d="M4.41064 19.505C4.89576 19.505 5.38088 19.505 5.8807 19.505C5.8807 19.8324 5.8807 20.1598 5.8807 20.4971C5.39558 20.4971 4.91046 20.4971 4.41064 20.4971C4.41064 20.1697 4.41064 19.8423 4.41064 19.505Z" fill="white"/>
<path d="M50.9624 13.6806C51.4475 13.6806 51.9326 13.6806 52.4325 13.6806C52.4325 14.008 52.4325 14.3354 52.4325 14.6727C51.9473 14.6727 51.4622 14.6727 50.9624 14.6727C50.9624 14.3453 50.9624 14.0179 50.9624 13.6806Z" fill="white"/>
<path d="M44.3462 13.6806C44.8313 13.6806 45.3164 13.6806 45.8162 13.6806C45.8162 14.008 45.8162 14.3354 45.8162 14.6727C45.3311 14.6727 44.846 14.6727 44.3462 14.6727C44.3462 14.3453 44.3462 14.0179 44.3462 13.6806Z" fill="white"/>
<path d="M30.9937 13.6806C31.4788 13.6806 31.9639 13.6806 32.4637 13.6806C32.4637 14.008 32.4637 14.3354 32.4637 14.6727C31.9786 14.6727 31.4935 14.6727 30.9937 14.6727C30.9937 14.3453 30.9937 14.0179 30.9937 13.6806Z" fill="white"/>
<path d="M24.3784 13.6806C24.8635 13.6806 25.3487 13.6806 25.8485 13.6806C25.8485 14.008 25.8485 14.3354 25.8485 14.6727C25.3634 14.6727 24.8782 14.6727 24.3784 14.6727C24.3784 14.3453 24.3784 14.0179 24.3784 13.6806Z" fill="white"/>
<path d="M17.7632 13.6806C18.2483 13.6806 18.7334 13.6806 19.2332 13.6806C19.2332 14.008 19.2332 14.3354 19.2332 14.6727C18.7481 14.6727 18.263 14.6727 17.7632 14.6727C17.7632 14.3453 17.7632 14.0179 17.7632 13.6806Z" fill="white"/>
<path d="M4.41064 13.6806C4.89576 13.6806 5.38088 13.6806 5.8807 13.6806C5.8807 14.008 5.8807 14.3354 5.8807 14.6727C5.39558 14.6727 4.91046 14.6727 4.41064 14.6727C4.41064 14.3453 4.41064 14.0179 4.41064 13.6806Z" fill="white"/>
<path d="M37.7314 25.3294C38.1761 25.3294 38.6208 25.3294 39.079 25.3294C39.079 25.6568 39.079 25.9842 39.079 26.3215C38.6343 26.3215 38.1896 26.3215 37.7314 26.3215C37.7314 25.9941 37.7314 25.6667 37.7314 25.3294Z" fill="white"/>
<path d="M11.1479 25.3294C11.5926 25.3294 12.0373 25.3294 12.4955 25.3294C12.4955 25.6568 12.4955 25.9842 12.4955 26.3215C12.0508 26.3215 11.6061 26.3215 11.1479 26.3215C11.1479 25.9941 11.1479 25.6667 11.1479 25.3294Z" fill="white"/>
<path d="M37.7314 19.505C38.1761 19.505 38.6208 19.505 39.079 19.505C39.079 19.8324 39.079 20.1598 39.079 20.4971C38.6343 20.4971 38.1896 20.4971 37.7314 20.4971C37.7314 20.1697 37.7314 19.8423 37.7314 19.505Z" fill="white"/>
<path d="M11.1479 19.505C11.5926 19.505 12.0373 19.505 12.4955 19.505C12.4955 19.8324 12.4955 20.1598 12.4955 20.4971C12.0508 20.4971 11.6061 20.4971 11.1479 20.4971C11.1479 20.1697 11.1479 19.8423 11.1479 19.505Z" fill="white"/>
<path d="M37.7314 13.6806C38.1761 13.6806 38.6208 13.6806 39.079 13.6806C39.079 14.008 39.079 14.3354 39.079 14.6727C38.6343 14.6727 38.1896 14.6727 37.7314 14.6727C37.7314 14.3453 37.7314 14.0179 37.7314 13.6806Z" fill="white"/>
<path d="M11.1479 13.6806C11.5926 13.6806 12.0373 13.6806 12.4955 13.6806C12.4955 14.008 12.4955 14.3354 12.4955 14.6727C12.0508 14.6727 11.6061 14.6727 11.1479 14.6727C11.1479 14.3453 11.1479 14.0179 11.1479 13.6806Z" fill="white"/>
</svg>
