<svg width="33" height="40" viewBox="0 0 33 40" fill="none" xmlns="http://www.w3.org/2000/svg">
<path d="M12.743 19.6018C13.43 19.9902 13.43 19.9902 13.7287 20.2087C13.7915 20.2544 13.8543 20.3001 13.9191 20.3471C13.9846 20.3952 14.0502 20.4432 14.1178 20.4928C14.2596 20.5958 14.4016 20.6989 14.5435 20.8018C14.6154 20.854 14.6872 20.9061 14.7613 20.9598C15.1663 21.252 15.5756 21.5384 15.9846 21.8251C16.0429 21.8659 16.1013 21.9068 16.1614 21.949C16.2458 22.0072 16.2458 22.0072 16.3319 22.0666C16.4457 22.1479 16.5568 22.2331 16.6652 22.3214C16.843 22.4683 16.843 22.4683 17.1243 22.6311C17.5318 22.5693 17.8514 22.2633 18.1749 22.0186C18.2943 21.9298 18.4138 21.8412 18.5333 21.7527C18.5953 21.7067 18.6574 21.6607 18.7213 21.6133C19.039 21.3801 19.3612 21.1534 19.6838 20.9271C19.7469 20.8828 19.8101 20.8385 19.8751 20.7929C20.4464 20.3929 21.02 19.9964 21.595 19.6018C22.0884 20.014 22.5549 20.4477 23.0171 20.8942C23.1328 21.0056 23.1328 21.0056 23.2508 21.1192C23.9571 21.8004 24.659 22.4861 25.3594 23.1733C25.8292 23.6342 26.3005 24.0934 26.7755 24.549C27.1917 24.948 27.6049 25.3499 28.0148 25.7553C28.2313 25.9692 28.449 26.1815 28.6702 26.3906C30.1173 27.7664 30.1173 27.7664 30.1561 28.3917C30.1334 28.7489 30.0341 29.0669 29.9106 29.4026C29.8763 29.5564 29.8436 29.7105 29.8142 29.8652C29.7805 29.9953 29.7456 30.1252 29.7094 30.2547C29.69 30.3254 29.6706 30.3961 29.6506 30.469C28.6635 33.9567 26.3047 36.792 23.1475 38.558C20.3766 40.0427 16.8437 40.3887 13.816 39.5599C13.702 39.5297 13.588 39.4995 13.4706 39.4684C10.1353 38.4653 7.41432 36.1679 5.76668 33.1297C5.01864 31.7335 4.46757 30.1894 4.33806 28.6008C4.32173 28.51 4.3054 28.4193 4.28857 28.3259C4.36632 27.7779 4.72166 27.5129 5.10961 27.1374C5.19159 27.0557 5.27357 26.9739 5.35803 26.8896C5.5824 26.6659 5.80864 26.4441 6.03527 26.2226C6.27195 25.9907 6.50686 25.7569 6.74197 25.5234C7.18723 25.0817 7.63406 24.6415 8.08148 24.2019C8.59086 23.7013 9.09847 23.1989 9.60593 22.6964C10.6497 21.6629 11.6956 20.6316 12.743 19.6018Z" fill="white"/>
<path d="M22.2201 0C22.5025 0.110204 22.7577 0.222575 23.0133 0.385631C23.0783 0.42685 23.1434 0.468068 23.2104 0.510535C23.3149 0.577574 23.3149 0.577574 23.4216 0.645967C23.4957 0.693072 23.5699 0.740176 23.6462 0.788708C23.8049 0.889562 23.9635 0.990571 24.122 1.09172C24.4436 1.29686 24.7659 1.50091 25.0882 1.705C25.336 1.86195 25.5836 2.01911 25.8312 2.17631C26.1647 2.388 26.4984 2.59936 26.8323 2.81045C26.9153 2.86301 26.9984 2.91557 27.084 2.96972C27.2372 3.06663 27.3904 3.16349 27.5437 3.26025C27.6934 3.35502 27.8418 3.45182 27.989 3.55041C28.2299 3.70589 28.4787 3.83074 28.7366 3.95588C29.9316 4.57313 29.9316 4.57313 30.1913 5.11467C30.3511 5.72625 30.3128 6.35233 30.2916 6.97854C30.2911 7.18763 30.2913 7.39672 30.2924 7.60581C30.2929 8.17079 30.2824 8.73508 30.2699 9.2999C30.2598 9.83112 30.258 10.3623 30.2562 10.8936C30.2523 11.9452 30.2404 12.9964 30.2235 14.0478C30.207 15.0684 30.1944 16.0889 30.1868 17.1096C30.1863 17.1727 30.1858 17.2357 30.1854 17.3006C30.183 17.6169 30.1808 17.9332 30.1785 18.2495C30.16 20.8685 30.1284 23.4872 30.0886 26.106C30.0474 26.0699 30.0063 26.0338 29.9639 25.9966C29.8816 25.9251 29.8816 25.9251 29.7975 25.8521C29.7164 25.7814 29.7164 25.7814 29.6338 25.7093C29.3527 25.4828 29.0409 25.3159 28.7267 25.1395C27.6897 24.5325 26.733 23.8347 25.8022 23.0766C25.7171 23.0074 25.6319 22.9381 25.5442 22.8667C23.2569 20.9589 22.1189 18.885 21.8537 15.9216C21.6635 13.528 21.6973 11.124 21.7674 8.72613C21.7705 8.61952 21.7735 8.51292 21.7767 8.40308C21.8584 5.59786 22.0076 2.79832 22.2201 0Z" fill="white"/>
<path d="M12.2056 0C12.443 2.89445 12.6019 5.78998 12.6918 8.69272C12.6952 8.79853 12.6986 8.90435 12.702 9.01337C12.9991 18.5935 12.9991 18.5935 9.9609 21.8805C9.44851 22.4187 8.89456 22.9045 8.32169 23.3773C8.25212 23.4351 8.25212 23.4351 8.18114 23.4941C5.02635 26.106 5.02635 26.106 4.33717 26.106C4.29632 23.4243 4.2647 20.7427 4.24585 18.0608C4.24361 17.7437 4.24129 17.4267 4.23893 17.1096C4.23846 17.0465 4.23799 16.9834 4.23751 16.9184C4.22974 15.8981 4.21565 14.878 4.19919 13.8579C4.18244 12.8101 4.17253 11.7623 4.16891 10.7144C4.16668 10.1262 4.16113 9.53823 4.14809 8.95009C4.1359 8.39583 4.13221 7.84214 4.1349 7.28775C4.13441 7.08491 4.13087 6.88204 4.12399 6.6793C4.0759 5.18867 4.0759 5.18867 4.51378 4.7056C4.94451 4.35 5.41631 4.08823 5.91772 3.84495C6.18066 3.71484 6.41778 3.56311 6.66124 3.40003C6.80671 3.30794 6.95224 3.21594 7.09783 3.12403C7.26339 3.01927 7.42895 2.91451 7.5945 2.80975C7.67677 2.75773 7.75904 2.70572 7.8438 2.65213C8.17306 2.44386 8.50208 2.23521 8.83107 2.0265C8.99335 1.92358 9.15568 1.82071 9.31804 1.71792C9.75096 1.44375 10.1831 1.16847 10.6143 0.891686C10.7048 0.833799 10.7953 0.775913 10.8885 0.716272C11.0631 0.604529 11.2375 0.492471 11.4117 0.380063C11.4898 0.330216 11.5678 0.280369 11.6482 0.229012C11.7516 0.162533 11.7516 0.162533 11.8571 0.0947111C12.0268 0 12.0268 0 12.2056 0Z" fill="white"/>
<path d="M2.90675 12.3848C2.93626 17.736 2.96577 23.0873 2.99617 28.6008C0.359985 27.3564 0.359985 27.3564 0.0454931 26.7297C0.0363594 26.5627 0.0330202 26.3954 0.0323338 26.2281C0.0316941 26.1215 0.0310543 26.0148 0.0303951 25.9049C0.0301411 25.786 0.0298987 25.6672 0.0296665 25.5483C0.0291065 25.4237 0.0285121 25.299 0.027886 25.1743C0.0263286 24.835 0.0253857 24.4957 0.0246488 24.1564C0.0241884 23.9444 0.0236453 23.7325 0.0230832 23.5205C0.0213794 22.8573 0.0201068 22.1942 0.0193622 21.531C0.0184886 20.7654 0.0161358 19.9999 0.012522 19.2343C0.00982506 18.6427 0.00850137 18.051 0.00820523 17.4594C0.00799506 17.106 0.00719356 16.7526 0.00494476 16.3992C0.00286243 16.0666 0.00248488 15.734 0.00340338 15.4014C0.00346875 15.2215 0.00176233 15.0416 0 14.8616C0.00566642 13.8789 0.00566642 13.8789 0.40315 13.4539C0.848363 13.0753 1.41454 12.8704 1.95673 12.6688C2.02876 12.641 2.1008 12.6133 2.17502 12.5847C2.70158 12.3848 2.70158 12.3848 2.90675 12.3848Z" fill="white"/>
<path d="M13.6362 2.13835C14.5804 2.13835 15.5246 2.13835 16.4974 2.13835C16.5297 3.58092 16.5297 3.58092 16.5367 4.19824C16.5415 4.61871 16.5472 5.03904 16.5581 5.4594C16.5669 5.79853 16.5717 6.13751 16.5738 6.47674C16.5753 6.60582 16.5782 6.73488 16.5825 6.86389C16.6154 7.87686 16.6154 7.87686 16.3206 8.23184C16.1182 8.38778 15.9128 8.51353 15.6927 8.64257C15.165 9.26281 15.1285 10.0258 15.1325 10.8088C15.1323 10.8849 15.1321 10.9609 15.1319 11.0393C15.1318 11.1989 15.1321 11.3586 15.1329 11.5182C15.1339 11.7604 15.1329 12.0026 15.1318 12.2448C15.1319 12.401 15.1321 12.5571 15.1325 12.7133C15.1321 12.7846 15.1317 12.8559 15.1314 12.9294C15.1373 13.6522 15.2214 14.3055 15.6927 14.8795C15.9427 15.1149 16.2111 15.313 16.4974 15.5032C16.5297 15.7174 16.5297 15.7174 16.5279 15.9896C16.5279 16.1421 16.5279 16.1421 16.5278 16.2977C16.5264 16.4079 16.5251 16.518 16.5236 16.6315C16.5232 16.744 16.5229 16.8565 16.5225 16.9724C16.5212 17.2715 16.5188 17.5706 16.5158 17.8697C16.5131 18.1749 16.5119 18.4801 16.5105 18.7852C16.5076 19.3841 16.5031 19.983 16.4974 20.5818C16.146 20.3855 15.806 20.1901 15.4803 19.9529C15.4126 19.9038 15.3448 19.8547 15.275 19.8041C15.2063 19.7539 15.1376 19.7036 15.0668 19.6519C14.929 19.5517 14.7911 19.4516 14.6533 19.3515C14.563 19.2856 14.563 19.2856 14.4709 19.2184C14.2754 19.0711 14.2754 19.0711 14.1074 18.9788C13.7803 18.7797 13.6538 18.6931 13.5592 18.3094C13.5565 18.1871 13.5574 18.0646 13.5609 17.9423C13.5604 17.8746 13.5598 17.8069 13.5593 17.7372C13.5583 17.5107 13.5617 17.2845 13.5651 17.058C13.5653 16.8955 13.5652 16.733 13.5648 16.5706C13.5647 16.1297 13.5683 15.6889 13.5727 15.248C13.5766 14.7872 13.577 14.3265 13.5777 13.8657C13.5797 12.9931 13.5848 12.1207 13.5911 11.2482C13.5981 10.2549 13.6015 9.26154 13.6047 8.2682C13.6112 6.22489 13.6224 4.18163 13.6362 2.13835Z" fill="white"/>
<path d="M17.9287 2.13835C18.8729 2.13835 19.8172 2.13835 20.79 2.13835C20.8273 4.26744 20.856 6.39646 20.8734 8.52581C20.8817 9.5146 20.893 10.5032 20.9114 11.4918C20.9275 12.3539 20.9378 13.2159 20.9414 14.0781C20.9435 14.5345 20.9484 14.9904 20.9602 15.4466C21.0345 18.4471 21.0345 18.4471 20.4447 19.0919C20.1183 19.3616 19.7769 19.5393 19.3836 19.693C19.0573 19.8327 18.7868 20.0417 18.5043 20.2533C18.0302 20.5818 18.0302 20.5818 17.9287 20.5818C17.9121 19.9289 17.8994 19.2761 17.8917 18.623C17.8879 18.3197 17.8829 18.0166 17.8748 17.7134C17.8655 17.3644 17.862 17.0154 17.8589 16.6664C17.8552 16.558 17.8515 16.4497 17.8477 16.3381C17.8473 15.5983 17.8473 15.5983 18.0853 15.3205C18.2657 15.1863 18.4484 15.0787 18.644 14.9686C19.25 14.3171 19.2838 13.5872 19.285 12.7394C19.2853 12.6629 19.2856 12.5865 19.2859 12.5077C19.2863 12.3465 19.2865 12.1853 19.2865 12.024C19.2867 11.7795 19.2883 11.5349 19.29 11.2903C19.2903 11.1329 19.2905 10.9756 19.2906 10.8182C19.2912 10.746 19.2918 10.6739 19.2925 10.5996C19.2896 9.87369 19.2069 9.21915 18.7335 8.64257C18.4834 8.40715 18.2151 8.20912 17.9287 8.01888C17.8965 7.77421 17.8965 7.77421 17.8983 7.45884C17.8982 7.40146 17.8982 7.34407 17.8982 7.28495C17.8983 7.09498 17.9004 6.90508 17.9025 6.71511C17.903 6.58353 17.9034 6.45194 17.9037 6.32035C17.9047 5.97377 17.9073 5.62722 17.9103 5.28066C17.9135 4.86496 17.9148 4.44926 17.9163 4.03355C17.9189 3.4018 17.9241 2.77011 17.9287 2.13835Z" fill="white"/>
<path d="M31.5186 22.0965C31.8727 22.0965 32.2268 22.0965 32.5916 22.0965C32.9941 22.4976 32.9941 22.4976 32.9955 22.9457C32.9966 23.0445 32.9978 23.1432 32.9989 23.2449C32.9982 23.3511 32.9975 23.4572 32.9967 23.5666C32.9971 23.676 32.9974 23.7854 32.9978 23.8982C32.998 24.1294 32.9974 24.3607 32.9959 24.592C32.994 24.9463 32.9959 25.3005 32.9981 25.6549C32.9979 25.8795 32.9974 26.1041 32.9967 26.3287C32.9975 26.4349 32.9982 26.5411 32.9989 26.6505C32.9978 26.7492 32.9967 26.8479 32.9955 26.9496C32.9951 27.0798 32.9951 27.0798 32.9947 27.2126C32.9492 27.4424 32.9492 27.4424 32.5916 27.7988C32.208 27.7988 31.8244 27.7988 31.4292 27.7988C31.4587 25.9171 31.4882 24.0353 31.5186 22.0965Z" fill="white"/>
<path d="M31.5195 13.543C31.8736 13.543 32.2277 13.543 32.5925 13.543C32.995 13.944 32.995 13.944 32.9964 14.3922C32.9976 14.4909 32.9987 14.5897 32.9999 14.6914C32.9991 14.7975 32.9984 14.9037 32.9977 15.0131C32.998 15.1225 32.9983 15.2319 32.9987 15.3446C32.9989 15.5759 32.9983 15.8072 32.9968 16.0385C32.9949 16.3928 32.9968 16.747 32.9991 17.1014C32.9988 17.326 32.9984 17.5506 32.9977 17.7752C32.9984 17.8814 32.9991 17.9876 32.9999 18.097C32.9987 18.1957 32.9976 18.2944 32.9964 18.3961C32.996 18.5263 32.996 18.5263 32.9956 18.6591C32.9502 18.8889 32.9502 18.8889 32.5925 19.2453C32.2384 19.2453 31.8843 19.2453 31.5195 19.2453C31.5195 17.3636 31.5195 15.4818 31.5195 13.543Z" fill="white"/>
</svg>
