<svg width="38" height="28" viewBox="0 0 38 28" fill="none" xmlns="http://www.w3.org/2000/svg">
<path d="M3.8378 0.0243606C3.97364 0.0240079 4.10948 0.0235737 4.24532 0.0230653C4.61776 0.021913 4.99019 0.0219359 5.36263 0.0221586C5.76464 0.0221971 6.16665 0.0211553 6.56866 0.0202609C7.35598 0.0186947 8.14329 0.0181752 8.93061 0.0180699C9.57071 0.0179802 10.2108 0.0175923 10.8509 0.0169943C12.6664 0.015333 14.4818 0.0144624 16.2973 0.0146039C16.3951 0.0146114 16.493 0.0146189 16.5938 0.0146267C16.7407 0.0146383 16.7407 0.0146383 16.8907 0.0146501C18.4781 0.0147268 20.0655 0.0129214 21.6529 0.010261C23.2835 0.00754979 24.914 0.00624785 26.5446 0.0064108C27.4598 0.0064734 28.375 0.00595667 29.2902 0.00392438C30.0694 0.00220503 30.8487 0.00179722 31.6279 0.00307711C32.0253 0.00369248 32.4226 0.00370648 32.82 0.00206707C33.1843 0.000579726 33.5485 0.000856543 33.9128 0.00249803C34.1059 0.00292305 34.2991 0.00150184 34.4922 0C35.5115 0.00759022 36.3704 0.187551 37.1241 0.905643C37.7888 1.64723 37.9788 2.3749 37.9755 3.35083C37.976 3.44542 37.9764 3.54001 37.9768 3.63746C37.978 3.95422 37.9779 4.27096 37.9777 4.58773C37.9783 4.81492 37.9789 5.04212 37.9797 5.26931C37.9812 5.82233 37.9817 6.37534 37.9819 6.92836C37.9819 7.37808 37.9823 7.82781 37.9829 8.27754C37.9846 9.55365 37.9855 10.8298 37.9853 12.1059C37.9853 12.1746 37.9853 12.2434 37.9853 12.3142C37.9853 12.3831 37.9853 12.4519 37.9853 12.5228C37.9852 13.6379 37.987 14.753 37.9897 15.8681C37.9924 17.0142 37.9937 18.1602 37.9936 19.3062C37.9935 19.9492 37.994 20.5922 37.9961 21.2351C37.998 21.84 37.9979 22.4449 37.9965 23.0498C37.9963 23.2716 37.9968 23.4933 37.9979 23.715C37.9994 24.0183 37.9985 24.3215 37.997 24.6248C37.998 24.712 37.999 24.7991 38 24.889C37.9907 25.772 37.7012 26.5084 37.0886 27.1481C36.1356 28.0211 35.0057 28.0022 33.7663 27.9979C33.6333 27.9982 33.5002 27.9985 33.3672 27.9988C33.0043 27.9996 32.6413 27.9992 32.2784 27.9986C31.8859 27.9982 31.4935 27.9989 31.101 27.9994C30.3333 28.0002 29.5655 28.0001 28.7978 27.9995C28.1736 27.9991 27.5494 27.999 26.9252 27.9992C26.8362 27.9993 26.7473 27.9993 26.6556 27.9993C26.4749 27.9994 26.2941 27.9994 26.1133 27.9995C24.4199 28 22.7265 27.9994 21.033 27.9984C19.5812 27.9976 18.1294 27.9977 16.6775 27.9986C14.99 27.9996 13.3025 28 11.6149 27.9994C11.4349 27.9993 11.2548 27.9993 11.0747 27.9992C10.9861 27.9992 10.8975 27.9992 10.8062 27.9991C10.1831 27.999 9.55992 27.9993 8.93676 27.9997C8.17694 28.0002 7.41713 28.0001 6.65731 27.9991C6.26992 27.9986 5.88254 27.9984 5.49516 27.999C5.14004 27.9996 4.78493 27.9993 4.42981 27.9983C4.24158 27.998 4.05335 27.9986 3.86512 27.9992C2.66211 27.994 1.74302 27.8972 0.831423 27.0685C0.174848 26.3772 -0.0074417 25.5516 0.00223603 24.6267C0.00144945 24.4843 0.00144959 24.4843 0.000647113 24.3389C-0.000634909 24.0231 0.000772202 23.7073 0.00218832 23.3915C0.0018296 23.1641 0.00130826 22.9367 0.000636993 22.7093C-0.000546499 22.1572 2.93889e-05 21.6052 0.00145892 21.0532C0.00306181 20.4095 0.00275167 19.7658 0.0023976 19.1222C0.00184143 17.9733 0.00318017 16.8245 0.00551942 15.6757C0.0077862 14.5623 0.00845681 13.449 0.00746256 12.3356C0.00638025 11.1214 0.00620023 9.9073 0.00756666 8.69315C0.00771122 8.56356 0.00785541 8.43397 0.00799895 8.30439C0.00807075 8.24064 0.0081422 8.17689 0.00821618 8.11121C0.00866454 7.66311 0.00849087 7.21502 0.00808714 6.76693C0.00757019 6.16333 0.00859566 5.55974 0.0106411 4.95615C0.0111676 4.73486 0.011214 4.51356 0.0107405 4.29227C0.0101746 3.98978 0.011365 3.68735 0.0129927 3.38487C0.0124232 3.29768 0.0118539 3.2105 0.0112671 3.12068C0.0199606 2.22981 0.257129 1.44282 0.902486 0.804303C1.8532 0.0998363 2.68389 0.0215232 3.8378 0.0243606ZM2.13425 19.2948C1.83476 21.2909 1.83476 21.2909 2.45996 23.7995C2.77723 24.0522 3.1029 24.0234 3.49119 24.0231C3.55218 24.0232 3.61317 24.0232 3.67601 24.0233C3.88071 24.0235 4.0854 24.023 4.2901 24.0224C4.4367 24.0224 4.5833 24.0224 4.7299 24.0225C5.12825 24.0225 5.52661 24.022 5.92497 24.0213C6.34114 24.0207 6.75731 24.0207 7.17348 24.0205C7.96172 24.0203 8.74997 24.0195 9.53821 24.0185C10.4355 24.0175 11.3329 24.017 12.2302 24.0165C14.0762 24.0155 15.9222 24.0138 17.7682 24.0117C17.7682 22.4551 17.7682 20.8985 17.7682 19.2948C12.609 19.2948 7.44979 19.2948 2.13425 19.2948ZM20.137 19.2948C20.137 20.8514 20.137 22.408 20.137 24.0117C22.0667 24.0181 23.9965 24.0233 25.9263 24.0264C26.8223 24.0279 27.7183 24.0299 28.6143 24.0331C29.3953 24.0359 30.1763 24.0377 30.9573 24.0384C31.3708 24.0387 31.7843 24.0396 32.1978 24.0417C32.5872 24.0436 32.9765 24.0442 33.3658 24.0437C33.5086 24.0438 33.6513 24.0444 33.7941 24.0455C33.9894 24.0469 34.1845 24.0465 34.3798 24.0458C34.5436 24.0462 34.5436 24.0462 34.7106 24.0466C35.061 24.0062 35.2846 23.9173 35.5814 23.7287C36.2459 22.4056 35.7709 20.7741 35.7709 19.2948C30.6117 19.2948 25.4525 19.2948 20.137 19.2948Z" fill="white"/>
</svg>
