<svg width="316" height="312" viewBox="0 0 316 312" fill="none" xmlns="http://www.w3.org/2000/svg">
<g opacity="0.25">
<path d="M101.267 9.71958C102.109 9.00464 103.371 9.10771 104.086 9.9498L293.176 232.683C293.89 233.524 293.788 234.785 292.947 235.501L214.797 301.975C213.956 302.69 212.694 302.588 211.978 301.747L22.5485 79.1826C21.832 78.3408 21.9344 77.0773 22.7771 76.3618L101.267 9.71958Z" fill="#00FFA3"/>
<g style="mix-blend-mode:multiply">
<path d="M255.432 135.154C242.27 111.224 225.893 81.4418 227.222 66.1641C227.631 61.4904 229.613 58.3279 233.115 56.7638C241.138 53.1829 256.428 58.2162 271.161 69.2857C288.862 82.5831 306.576 105.447 303.211 129.736L305.382 130.038C308.88 104.809 290.68 81.2103 272.478 67.5336C256.887 55.8198 241.085 50.8061 232.222 54.7621C227.997 56.6476 225.513 60.5238 225.038 65.9731C223.651 81.9137 239.514 110.76 253.511 136.211C263.722 154.778 274.28 173.978 271.05 177.187C270.487 177.746 268.275 178.539 259.891 173.861C228.647 156.417 190.598 89.9425 167.864 50.2213C158.463 33.7985 151.675 21.9417 148.569 19.082C146.035 16.7512 143.065 15.6592 139.741 15.8366C130.885 16.3084 122.585 25.6501 122.236 26.0465L123.883 27.4931C123.961 27.4035 131.912 18.4486 139.858 18.0262C142.571 17.8808 145.003 18.7787 147.085 20.6954C149.921 23.3274 157.009 35.6725 165.96 51.3102C184.603 83.8822 213.493 134.355 240.758 161.467C246.906 167.581 252.975 172.51 258.822 175.774C266.244 179.918 270.492 180.833 272.595 178.742C276.792 174.572 269.205 160.198 255.432 135.154Z" fill="#412672"/>
<path d="M115.201 26.4613L129.629 18.1645L132.745 21.83L122.728 35.3149L115.201 26.4613Z" fill="#EDCDE9"/>
<path d="M132.908 21.9504C132.964 21.8745 132.96 21.7701 132.899 21.6982L131.143 19.6325C131.07 19.5467 130.944 19.5353 130.858 19.6081L118.386 30.2072C118.3 30.2801 118.291 30.4087 118.363 30.4945C118.436 30.5788 118.565 30.5903 118.649 30.5173L130.966 20.0496L132.485 21.8383L122.564 35.1924C122.506 35.2713 122.513 35.376 122.572 35.4459C122.582 35.4581 122.593 35.469 122.605 35.4766C122.696 35.545 122.823 35.526 122.89 35.4352L132.908 21.9504Z" fill="#412672"/>
<path d="M212.085 298.561L25.9542 79.5636C25.1724 78.6438 25.2841 77.2631 26.2044 76.4819L100.894 13.0012C101.814 12.2199 103.193 12.3319 103.976 13.2519L290.107 232.249C290.888 233.169 290.776 234.548 289.856 235.331L215.167 298.81C214.247 299.593 212.867 299.48 212.085 298.561Z" fill="#412672"/>
<path d="M114.171 58.935L127.23 47.8359L116.007 34.6302L102.948 45.7294L114.171 58.935Z" fill="#B064B0"/>
<path d="M125.92 72.7589L138.979 61.6598L128.283 49.0744L115.224 60.172L125.92 72.7589Z" fill="#B064B0"/>
<path d="M137.847 86.7899L150.905 75.6907L140.032 62.8984L126.973 73.9975L137.847 86.7899Z" fill="#B064B0"/>
<path d="M84.9605 83.1052L61.0829 55.0117L47.8771 66.2351L71.7551 94.3302L84.9605 83.1052Z" fill="#5B2580"/>
<path d="M96.1419 68.0381L75.0109 43.174L62.3205 53.9588L83.4534 78.823L96.1419 68.0381Z" fill="#5B2580"/>
<path d="M149.772 100.821L162.83 89.7218L151.958 76.9296L138.898 88.0286L149.772 100.821Z" fill="#B064B0"/>
<path d="M114.953 33.3928L103.029 19.3603L89.9702 30.4595L101.895 44.4904L114.953 33.3928Z" fill="#5B2580"/>
<path d="M106.708 52.6619L88.7324 31.5121L76.2487 42.1212L94.2241 63.2709L106.708 52.6619Z" fill="#5B2580"/>
<path d="M233.249 199.038L246.308 187.938L235.61 175.351L222.55 186.45L233.249 199.038Z" fill="#B064B0"/>
<path d="M221.499 185.213L234.557 174.114L223.508 161.115L210.45 172.213L221.499 185.213Z" fill="#B064B0"/>
<path d="M46.6386 67.2878L32.9612 78.9126L48.0431 96.658L61.7206 85.0316L46.6386 67.2878Z" fill="#5B2580"/>
<path d="M161.872 115.059L174.93 103.959L163.883 90.9606L150.824 102.06L161.872 115.059Z" fill="#B064B0"/>
<path d="M271.129 243.606L284.187 232.507L259.635 203.62L246.577 214.719L271.129 243.606Z" fill="#5B2580"/>
<path d="M245.524 213.482L258.584 202.383L247.359 189.177L234.3 200.276L245.524 213.482Z" fill="#B064B0"/>
<path d="M173.622 128.883L186.681 117.784L175.983 105.196L162.925 116.295L173.622 128.883Z" fill="#B064B0"/>
<path d="M209.398 170.975L222.457 159.876L211.583 147.084L198.524 158.183L209.398 170.975Z" fill="#B064B0"/>
<path d="M197.473 156.945L210.532 145.846L199.658 133.053L186.6 144.152L197.473 156.945Z" fill="#B064B0"/>
<path d="M185.547 142.914L198.606 131.815L187.734 119.022L174.675 130.122L185.547 142.914Z" fill="#B064B0"/>
<path d="M96.4748 94.1437L107.128 106.678L119.817 95.8935L109.164 83.3588L96.4748 94.1437Z" fill="#B064B0"/>
<path d="M130.667 80.852L119.751 68.0089L107.267 78.618L118.185 91.4628L130.667 80.852Z" fill="#B064B0"/>
<path d="M108.113 82.1205L97.1952 69.2756L84.5054 80.062L95.4225 92.9052L108.113 82.1205Z" fill="#B064B0"/>
<path d="M118.698 66.77L107.76 53.8991L95.2764 64.5097L106.216 77.3791L118.698 66.77Z" fill="#B064B0"/>
<path d="M84.9855 109.894L95.7711 122.585L108.975 111.361L98.1905 98.6709L84.9855 109.894Z" fill="#B064B0"/>
<path d="M72.8078 95.5675L83.933 108.658L97.1375 97.4341L86.0129 84.3442L72.8078 95.5675Z" fill="#B064B0"/>
<path d="M166.4 122.894L155.571 110.153L143.087 120.762L153.916 133.503L166.4 122.894Z" fill="#B064B0"/>
<path d="M120.15 121.999L131.066 134.844L143.757 124.059L132.839 111.214L120.15 121.999Z" fill="#B064B0"/>
<path d="M96.8225 123.824L107.893 136.847L121.099 125.624L110.028 112.599L96.8225 123.824Z" fill="#B064B0"/>
<path d="M132.119 136.082L143.036 148.927L155.726 138.141L144.808 125.296L132.119 136.082Z" fill="#B064B0"/>
<path d="M142.549 94.832L131.72 82.0906L119.236 92.6996L130.065 105.441L142.549 94.832Z" fill="#B064B0"/>
<path d="M108.181 107.917L119.097 120.762L131.786 109.975L120.87 97.1306L108.181 107.917Z" fill="#B064B0"/>
<path d="M154.518 108.914L143.602 96.0692L131.118 106.68L142.034 119.524L154.518 108.914Z" fill="#B064B0"/>
<path d="M156.509 194.048L167.294 206.739L180.5 195.514L169.715 182.825L156.509 194.048Z" fill="#B064B0"/>
<path d="M227.409 222.482L216.491 209.637L203.802 220.422L214.718 233.267L227.409 222.482Z" fill="#B064B0"/>
<path d="M108.946 138.086L119.731 150.775L132.936 139.551L122.15 126.862L108.946 138.086Z" fill="#B064B0"/>
<path d="M204.515 223.77L193.73 211.08L180.524 222.303L191.309 234.994L204.515 223.77Z" fill="#B064B0"/>
<path d="M226.541 218.954L237.458 231.798L249.941 221.188L239.025 208.343L226.541 218.954Z" fill="#B064B0"/>
<path d="M215.44 208.399L204.391 195.4L191.702 206.185L202.75 219.184L215.44 208.399Z" fill="#B064B0"/>
<path d="M250.995 222.426L238.511 233.035L257.408 255.268L269.89 244.659L250.995 222.426Z" fill="#5B2580"/>
<path d="M192.362 236.231L203.433 249.256L216.637 238.033L205.566 225.007L192.362 236.231Z" fill="#5B2580"/>
<path d="M62.7733 86.2703L49.0959 97.8951L62.9279 114.17L76.6059 102.546L62.7733 86.2703Z" fill="#5B2580"/>
<path d="M120.783 152.014L131.497 164.62L144.702 153.397L133.987 140.79L120.783 152.014Z" fill="#B064B0"/>
<path d="M144.386 179.785L155.456 192.81L168.662 181.587L157.591 168.561L144.386 179.785Z" fill="#B064B0"/>
<path d="M192.677 209.843L181.552 196.753L168.347 207.976L179.471 221.066L192.677 209.843Z" fill="#B064B0"/>
<path d="M178.369 136.976L167.451 124.133L154.969 134.742L165.885 147.586L178.369 136.976Z" fill="#B064B0"/>
<path d="M203.339 194.161L192.421 181.316L179.732 192.103L190.649 204.947L203.339 194.161Z" fill="#B064B0"/>
<path d="M132.549 165.857L143.334 178.547L156.54 167.324L145.753 154.633L132.549 165.857Z" fill="#B064B0"/>
<path d="M214.276 179.224L203.271 166.276L190.787 176.887L201.792 189.833L214.276 179.224Z" fill="#B064B0"/>
<path d="M144.088 150.164L155.136 163.163L167.826 152.378L156.777 139.379L144.088 150.164Z" fill="#B064B0"/>
<path d="M216.321 264.422L229.036 279.382L242.242 268.158L229.527 253.199L216.321 264.422Z" fill="#5B2580"/>
<path d="M226.245 193.306L215.328 180.462L202.845 191.072L213.761 203.917L226.245 193.306Z" fill="#B064B0"/>
<path d="M190.251 150.956L179.422 138.215L166.938 148.825L177.767 161.567L190.251 150.956Z" fill="#B064B0"/>
<path d="M203.246 251.547L189.568 263.172L200.354 275.861L214.031 264.236L203.246 251.547Z" fill="#5B2580"/>
<path d="M202.22 165.038L191.302 152.194L178.819 162.803L189.736 175.648L202.22 165.038Z" fill="#B064B0"/>
<path d="M168.158 178.484L178.68 190.864L191.37 180.079L180.847 167.699L168.158 178.484Z" fill="#B064B0"/>
<path d="M201.405 277.1L214.12 292.06L227.797 280.435L215.084 265.475L201.405 277.1Z" fill="#5B2580"/>
<path d="M167.12 209.041L153.442 220.666L164.49 233.665L178.167 222.04L167.12 209.041Z" fill="#5B2580"/>
<path d="M156.189 164.402L167.105 177.246L179.795 166.46L168.877 153.617L156.189 164.402Z" fill="#B064B0"/>
<path d="M190.971 237.103L177.292 248.729L188.517 261.934L202.194 250.309L190.971 237.103Z" fill="#5B2580"/>
<path d="M179.22 223.279L165.543 234.904L176.24 247.491L189.917 235.866L179.22 223.279Z" fill="#5B2580"/>
<path d="M92.5001 121.245L78.8216 132.869L152.39 219.429L166.067 207.803L92.5001 121.245Z" fill="#B064B0"/>
<path d="M77.6583 103.783L63.98 115.409L77.7685 131.632L91.4467 120.007L77.6583 103.783Z" fill="#5B2580"/>
<path d="M228.474 251.96L217.689 239.271L204.484 250.495L215.27 263.185L228.474 251.96Z" fill="#5B2580"/>
<path d="M237.973 207.106L227.297 194.545L214.814 205.154L225.489 217.715L237.973 207.106Z" fill="#B064B0"/>
<path d="M215.771 234.505L243.479 267.105L256.169 256.321L228.46 223.719L215.771 234.505Z" fill="#5B2580"/>
<path d="M114.287 57.4105L125.708 47.7025L115.891 36.1542L104.469 45.8604L114.287 57.4105Z" fill="#EDCDE9"/>
<path d="M125.959 71.145L137.381 61.4372L128.025 50.4287L116.604 60.1366L125.959 71.145Z" fill="#EDCDE9"/>
<path d="M137.984 85.2918L149.406 75.5856L139.895 64.3949L128.473 74.1027L137.984 85.2918Z" fill="#EDCDE9"/>
<path d="M81.8749 81.1533L60.9905 56.58L49.4409 66.3963L70.3253 90.9696L81.8749 81.1533Z" fill="#8D3EA4"/>
<path d="M93.3613 66.5478L74.8787 44.8007L63.78 54.2343L82.2629 75.9814L93.3613 66.5478Z" fill="#8D3EA4"/>
<path d="M149.709 99.088L161.131 89.3802L151.62 78.1911L140.199 87.899L149.709 99.088Z" fill="#EDCDE9"/>
<path d="M113.387 33.2071L102.958 20.9354L91.5357 30.6431L101.966 42.915L113.387 33.2071Z" fill="#8D3EA4"/>
<path d="M104.419 51.5546L88.6965 33.0575L77.7781 42.3367L93.4995 60.8338L104.419 51.5546Z" fill="#8D3EA4"/>
<path d="M233.396 197.553L244.818 187.846L235.462 176.837L224.039 186.545L233.396 197.553Z" fill="#EDCDE9"/>
<path d="M221.651 183.734L233.073 174.027L223.41 162.657L211.989 172.365L221.651 183.734Z" fill="#EDCDE9"/>
<path d="M46.7274 69.1291L34.7643 79.2968L47.9553 94.817L59.9182 84.6492L46.7274 69.1291Z" fill="#8D3EA4"/>
<path d="M161.999 113.548L173.419 103.84L163.756 92.4706L152.335 102.179L161.999 113.548Z" fill="#EDCDE9"/>
<path d="M271.332 242.188L282.754 232.481L260.409 206.19L248.989 215.898L271.332 242.188Z" fill="#8D3EA4"/>
<path d="M245.639 211.957L257.061 202.25L247.245 190.7L235.823 200.407L245.639 211.957Z" fill="#EDCDE9"/>
<path d="M173.729 127.35L185.151 117.642L175.793 106.633L164.373 116.341L173.729 127.35Z" fill="#EDCDE9"/>
<path d="M209.535 169.477L220.956 159.769L211.446 148.582L200.026 158.288L209.535 169.477Z" fill="#EDCDE9"/>
<path d="M197.587 155.42L209.009 145.714L199.498 134.525L188.078 144.231L197.587 155.42Z" fill="#EDCDE9"/>
<path d="M185.673 141.402L197.093 131.694L187.584 120.505L176.162 130.212L185.673 141.402Z" fill="#EDCDE9"/>
<path d="M97.9374 94.2532L107.255 105.216L118.355 95.7843L109.037 84.8197L97.9374 94.2532Z" fill="#EDCDE9"/>
<path d="M129.201 80.7119L119.652 69.4788L108.734 78.7581L118.282 89.9926L129.201 80.7119Z" fill="#EDCDE9"/>
<path d="M106.631 81.9916L97.0835 70.7571L85.985 80.1907L95.5332 91.4253L106.631 81.9916Z" fill="#EDCDE9"/>
<path d="M117.231 66.6282L107.663 55.3709L96.7455 64.6518L106.312 75.9074L117.231 66.6282Z" fill="#EDCDE9"/>
<path d="M86.489 109.987L95.9225 121.085L107.472 111.269L98.0387 100.171L86.489 109.987Z" fill="#EDCDE9"/>
<path d="M74.4428 95.8126L84.1729 107.263L95.7218 97.4461L85.9924 85.9963L74.4428 95.8126Z" fill="#EDCDE9"/>
<path d="M164.938 122.761L155.466 111.616L144.548 120.896L154.019 132.04L164.938 122.761Z" fill="#EDCDE9"/>
<path d="M121.546 122.199L131.094 133.433L142.191 124.001L132.644 112.767L121.546 122.199Z" fill="#EDCDE9"/>
<path d="M98.2292 123.801L107.911 135.193L119.461 125.375L109.779 113.984L98.2292 123.801Z" fill="#EDCDE9"/>
<path d="M133.463 136.052L143.011 147.286L154.111 137.853L144.563 126.618L133.463 136.052Z" fill="#EDCDE9"/>
<path d="M141.088 94.6988L131.617 83.5538L120.698 92.8345L130.17 103.978L141.088 94.6988Z" fill="#EDCDE9"/>
<path d="M109.638 108.02L119.185 119.254L130.285 109.821L120.736 98.5858L109.638 108.02Z" fill="#EDCDE9"/>
<path d="M153.051 108.773L143.503 97.5406L132.585 106.82L142.133 118.054L153.051 108.773Z" fill="#EDCDE9"/>
<path d="M158.013 194.141L167.447 205.239L178.995 195.423L169.563 184.323L158.013 194.141Z" fill="#EDCDE9"/>
<path d="M225.845 222.423L216.296 211.19L205.198 220.622L214.746 231.857L225.845 222.423Z" fill="#EDCDE9"/>
<path d="M110.367 138.081L119.799 149.18L131.349 139.364L121.917 128.264L110.367 138.081Z" fill="#EDCDE9"/>
<path d="M203.536 224.298L194.104 213.198L182.554 223.014L191.986 234.114L203.536 224.298Z" fill="#EDCDE9"/>
<path d="M228.009 219.094L237.557 230.327L248.474 221.047L238.927 209.813L228.009 219.094Z" fill="#EDCDE9"/>
<path d="M213.952 208.26L204.288 196.89L193.19 206.324L202.852 217.693L213.952 208.26Z" fill="#EDCDE9"/>
<path d="M251.967 225.156L241.049 234.435L257.575 253.882L268.494 244.601L251.967 225.156Z" fill="#8D3EA4"/>
<path d="M193.883 236.345L203.565 247.737L215.115 237.92L205.433 226.528L193.883 236.345Z" fill="#8D3EA4"/>
<path d="M62.7827 88.0202L50.8206 98.1865L62.9183 112.421L74.8811 102.254L62.7827 88.0202Z" fill="#8D3EA4"/>
<path d="M122.282 152.101L131.652 163.125L143.202 153.309L133.832 142.285L122.282 152.101Z" fill="#EDCDE9"/>
<path d="M145.908 179.898L155.59 191.291L167.14 181.474L157.458 170.082L145.908 179.898Z" fill="#EDCDE9"/>
<path d="M191.151 209.725L181.422 198.277L169.872 208.093L179.601 219.542L191.151 209.725Z" fill="#EDCDE9"/>
<path d="M176.902 136.835L167.354 125.603L156.435 134.882L165.984 146.116L176.902 136.835Z" fill="#EDCDE9"/>
<path d="M201.858 194.032L192.31 182.798L181.212 192.232L190.76 203.466L201.858 194.032Z" fill="#EDCDE9"/>
<path d="M134.052 165.95L143.486 177.048L155.036 167.232L145.602 156.133L134.052 165.95Z" fill="#EDCDE9"/>
<path d="M212.803 179.077L203.178 167.753L192.26 177.033L201.885 188.357L212.803 179.077Z" fill="#EDCDE9"/>
<path d="M145.576 150.303L155.238 161.673L166.338 152.239L156.675 140.87L145.576 150.303Z" fill="#EDCDE9"/>
<path d="M217.947 264.657L229.068 277.74L240.616 267.924L229.497 254.841L217.947 264.657Z" fill="#8D3EA4"/>
<path d="M224.812 193.206L215.264 181.972L204.345 191.253L213.895 202.486L224.812 193.206Z" fill="#EDCDE9"/>
<path d="M188.789 150.822L179.317 139.679L168.399 148.958L177.87 160.102L188.789 150.822Z" fill="#EDCDE9"/>
<path d="M203.065 253.072L191.102 263.239L200.536 274.337L212.497 264.169L203.065 253.072Z" fill="#8D3EA4"/>
<path d="M200.752 164.899L191.205 153.665L180.286 162.944L189.833 174.178L200.752 164.899Z" fill="#EDCDE9"/>
<path d="M169.6 178.568L178.802 189.396L189.902 179.965L180.698 169.136L169.6 178.568Z" fill="#EDCDE9"/>
<path d="M203.061 277.309L214.18 290.393L226.143 280.226L215.023 267.141L203.061 277.309Z" fill="#8D3EA4"/>
<path d="M166.982 210.618L155.019 220.785L164.683 232.155L176.644 221.987L166.982 210.618Z" fill="#8D3EA4"/>
<path d="M157.961 164.876L167.509 176.11L178.609 166.677L169.061 155.442L157.961 164.876Z" fill="#EDCDE9"/>
<path d="M190.894 238.75L178.93 248.918L188.746 260.468L200.71 250.3L190.894 238.75Z" fill="#8D3EA4"/>
<path d="M179.033 224.796L167.069 234.963L176.427 245.972L188.389 235.806L179.033 224.796Z" fill="#8D3EA4"/>
<path d="M92.9983 123.571L81.0356 133.739L151.981 217.209L163.943 207.042L92.9983 123.571Z" fill="#EDCDE9"/>
<path d="M77.665 105.529L65.7019 115.697L77.7619 129.886L89.7242 119.718L77.665 105.529Z" fill="#8D3EA4"/>
<path d="M227.234 252.179L217.801 241.079L206.251 250.896L215.684 261.995L227.234 252.179Z" fill="#8D3EA4"/>
<path d="M236.521 206.983L227.183 195.997L216.266 205.276L225.603 216.262L236.521 206.983Z" fill="#EDCDE9"/>
<path d="M223.433 230.832L217.968 235.477L243.677 265.727L254.777 256.294L229.066 226.044L223.433 230.832Z" fill="#8D3EA4"/>
</g>
</g>
</svg>
