<svg width="40" height="50" viewBox="0 0 40 50" fill="none" xmlns="http://www.w3.org/2000/svg">
<path d="M18.0755 0.0251045C15.5729 0.259727 14.3901 0.474796 12.8455 0.934261C5.58201 3.12405 1.15355 8.46166 0.11731 16.2921C-0.0391034 17.5141 -0.0391034 21.053 0.11731 22.3531C1.134 30.6137 5.58201 40.0279 11.0272 45.473C13.5396 47.9757 15.7684 49.3345 18.2222 49.8428C19.9623 50.2045 21.5166 49.9504 23.4523 48.9923C30.3833 45.5415 37.5099 33.7518 39.1621 22.9984C39.4065 21.3462 39.4651 17.8172 39.2598 16.2921C38.6048 11.414 36.6301 7.44498 33.5018 4.70774C30.7548 2.30288 27.1671 0.758293 23.0612 0.201069C22.0152 0.064209 18.8576 -0.0531006 18.0755 0.0251045ZM10.3526 26.4003C11.3498 26.6936 12.5229 27.2606 13.3831 27.8765C14.5758 28.727 15.8564 30.2716 16.4625 31.5718C16.8633 32.4223 17.2446 33.8104 17.3228 34.6707C17.4108 35.6385 17.2837 37.6132 17.1273 37.711C16.6776 37.9847 13.9013 37.9261 12.7184 37.6132C11.1054 37.1929 9.56078 36.2935 8.3388 35.0715C7.46875 34.2015 6.90175 33.3901 6.37385 32.2659C5.71887 30.8679 5.58201 30.1641 5.57224 28.3164C5.56246 27.4268 5.59179 26.5861 5.64067 26.4395C5.72865 26.1071 5.92417 26.0777 7.95754 26.1168C9.25773 26.1364 9.59011 26.1755 10.3526 26.4003ZM33.668 26.2635C33.8049 26.4883 33.8929 27.8081 33.8342 28.8932C33.7169 31.2296 32.7491 33.351 31.0383 35.0715C29.8163 36.2935 28.2718 37.1929 26.6587 37.6132C25.4759 37.9261 22.6995 37.9847 22.2498 37.711C22.0934 37.6132 21.9663 35.6385 22.0543 34.6707C22.3378 31.5522 24.2832 28.7172 27.216 27.1238C27.9003 26.7523 28.7801 26.4395 29.7675 26.2146C30.6082 26.0191 33.5409 26.0582 33.668 26.2635Z" fill="#00FFA3"/>
</svg>
