<svg width="701" height="78" viewBox="0 0 701 78" fill="none" xmlns="http://www.w3.org/2000/svg">
<path d="M54.2012 77L51.5645 64.4023H31.1543L28.5664 77H0.783203V52.3906L6.78906 51.1699L21.1934 2H61.5254L75.9785 51.1699L81.9844 52.3906V77H54.2012ZM35.3535 47.6543H47.3652L41.3594 19.3828L35.3535 47.6543ZM127.297 58.25C128.859 58.25 130.324 58.071 131.691 57.7129C133.059 57.3223 134.328 56.834 135.5 56.248C136.672 55.6621 137.73 54.9948 138.674 54.2461C139.65 53.4974 140.497 52.7487 141.213 52H149.367V77H89.7969V55.8086L96.0469 54.5879V24.4121L89.7969 23.1914V2H133.547V23.1914L127.297 24.4121V58.25ZM156.008 2H199.758V23.1914L193.508 24.4121V54.5879L199.758 55.8086V77H156.008V55.8086L162.258 54.5879V24.4121L156.008 23.1914V2ZM247.219 58.25C249.432 58.25 251.516 58.071 253.469 57.7129C255.422 57.3223 257.212 56.834 258.84 56.248C260.5 55.6621 261.997 54.9948 263.332 54.2461C264.667 53.4974 265.839 52.7487 266.848 52H275.002V77H209.719V55.8086L215.969 54.5879V24.5098L209.719 23.2891V2H275.002V27H267.141C266.099 26.2839 264.895 25.5514 263.527 24.8027C262.16 24.054 260.63 23.3867 258.938 22.8008C257.277 22.1823 255.471 21.694 253.518 21.3359C251.564 20.9453 249.465 20.75 247.219 20.75V34.0801L261.867 30.9062V48.1914L247.219 45.0176V58.25ZM307.668 40.4277V54.5879L313.918 55.7598V77H282.668V55.8086L288.918 54.5879V24.4121L282.668 23.1914V2H320.168L345.168 40.4277V24.5098L338.918 23.1914V2H370.168V23.1914L363.918 24.4121V54.5879L370.168 55.8086V77H332.619L307.668 40.4277ZM377.639 38.6211C377.639 31.8177 378.615 26.0723 380.568 21.3848C382.554 16.6973 385.37 12.8561 389.016 9.86133C392.499 6.99674 396.584 4.7832 401.271 3.2207C405.959 1.6582 411.346 0.876953 417.434 0.876953C421.633 0.876953 425.36 1.05599 428.615 1.41406C431.87 1.77214 434.768 2.24414 437.307 2.83008C439.878 3.41602 442.157 4.08333 444.143 4.83203C446.161 5.58073 448.033 6.36198 449.758 7.17578V29.4902H435.061C433.4 27.1465 431.545 25.4212 429.494 24.3145C427.476 23.2077 425.393 22.6543 423.244 22.6543C421.421 22.6543 419.647 23.0124 417.922 23.7285C416.229 24.4447 414.715 25.4863 413.381 26.8535C412.046 28.2207 410.972 29.8971 410.158 31.8828C409.344 33.8359 408.938 36.082 408.938 38.6211C408.938 44.2526 410.207 48.3704 412.746 50.9746C415.318 53.5788 418.964 54.8809 423.684 54.8809C424.855 54.8809 426.027 54.8158 427.199 54.6855C428.404 54.5553 429.608 54.36 430.812 54.0996V48.1914H421.438V34.8125H451.809V70.457C449.237 71.5312 446.503 72.5566 443.605 73.5332C440.741 74.4772 437.86 75.3073 434.963 76.0234C432.098 76.707 429.283 77.179 426.516 77.4395C423.749 77.7324 421.193 77.8789 418.85 77.8789C415.008 77.8789 411.33 77.6022 407.814 77.0488C404.299 76.4954 401.011 75.5026 397.951 74.0703C394.924 72.638 392.157 70.8477 389.65 68.6992C387.144 66.5182 384.995 63.9629 383.205 61.0332C381.447 58.071 380.08 54.7344 379.104 51.0234C378.127 47.2799 377.639 43.1458 377.639 38.6211ZM497.023 58.25C499.237 58.25 501.32 58.071 503.273 57.7129C505.227 57.3223 507.017 56.834 508.645 56.248C510.305 55.6621 511.802 54.9948 513.137 54.2461C514.471 53.4974 515.643 52.7487 516.652 52H524.807V77H459.523V55.8086L465.773 54.5879V24.5098L459.523 23.2891V2H524.807V27H516.945C515.904 26.2839 514.699 25.5514 513.332 24.8027C511.965 24.054 510.435 23.3867 508.742 22.8008C507.082 22.1823 505.275 21.694 503.322 21.3359C501.369 20.9453 499.27 20.75 497.023 20.75V34.0801L511.672 30.9062V48.1914L497.023 45.0176V58.25ZM583.693 77L581.057 64.4023H560.646L558.059 77H530.275V52.3906L536.281 51.1699L550.686 2H591.018L605.471 51.1699L611.477 52.3906V77H583.693ZM564.846 47.6543H576.857L570.852 19.3828L564.846 47.6543ZM700.49 77H669.436C668.459 75.1445 667.45 73.1751 666.408 71.0918C665.367 69.0085 664.357 66.8438 663.381 64.5977C662.404 62.3516 661.493 60.0241 660.646 57.6152C659.8 55.2064 659.084 52.7324 658.498 50.1934H656.789V77H619.289V55.8086L625.539 54.5879V24.4121L619.289 23.1914V2H661.818C667.45 2 672.316 2.26042 676.418 2.78125C680.52 3.30208 684.003 4.05078 686.867 5.02734C689.732 5.97135 692.043 7.14323 693.801 8.54297C695.591 9.91016 696.975 11.4727 697.951 13.2305C698.96 14.9557 699.628 16.86 699.953 18.9434C700.311 20.9941 700.49 23.1751 700.49 25.4863C700.49 27.8301 700.262 29.9622 699.807 31.8828C699.383 33.7708 698.618 35.5124 697.512 37.1074C696.405 38.7025 694.891 40.1673 692.971 41.502C691.05 42.804 688.609 44.041 685.646 45.2129C686.265 46.515 687.193 48.0449 688.43 49.8027C689.667 51.528 691.001 53.3021 692.434 55.125C693.866 56.9154 695.298 58.6732 696.73 60.3984C698.195 62.0911 699.449 63.5397 700.49 64.7441V77ZM656.789 35.7891C658.677 35.7891 660.386 35.7077 661.916 35.5449C663.479 35.3822 664.797 35.0078 665.871 34.4219C666.978 33.8359 667.824 32.9733 668.41 31.834C668.996 30.6947 669.289 29.1647 669.289 27.2441C669.289 25.3561 668.996 23.8587 668.41 22.752C667.824 21.6126 666.978 20.7337 665.871 20.1152C664.797 19.4967 663.479 19.0898 661.916 18.8945C660.386 18.6992 658.677 18.6016 656.789 18.6016V35.7891Z" fill="white"/>
</svg>
