<svg width="312" height="333" viewBox="0 0 312 333" fill="none" xmlns="http://www.w3.org/2000/svg">
<g opacity="0.25">
<path d="M157.707 45.9533L169.341 40.8084L174.98 38.8071L181.011 37.5552L188.492 36.8809L195.531 36.8207L201.906 37.6817L208.367 39.071L214.386 41.0743L220.491 43.6059L226.153 46.7515L229.445 48.6561L232.208 50.6466L234.358 52.1948L237.821 55.1558L240.45 57.9815L243.385 61.0285L246.32 64.0754L251.22 70.8692L255.592 77.749L259.743 84.9358L263.009 93.3508L265.661 101.324L267.293 111.36L267.782 121.04L267.572 129.749L266.391 139.158L264.547 149.488L263.121 154.058L261.474 158.934L257.603 170.136L255.784 173.956L257.626 175.283L258.326 176.254L258.719 177.003L258.891 178.06L258.566 179.806L256.63 182.494L249.331 192.627L242.033 202.76L241.063 203.46L238.95 203.803L228.628 222.018L218.184 237.814L211.549 247.025L204.521 255.488L196.658 263.815L189.679 270.914L187.075 273.235L184.47 275.556L180.146 278.97L174.851 283.084L171.632 284.963L171.054 286.413L169.948 287.948L168.843 289.483L168.179 290.404L167.294 291.633L166.41 292.861L165.439 293.561L160.23 298.203L154.407 302.403L147.269 305.19L140.267 307.142L134.678 307.78L130.894 307.853L127.025 307.398L119.201 305.959L113.096 303.428L108.269 300.417L105.505 298.427L103.577 296.572L100.985 295.638L95.409 293.02L86.5902 287.135L82.169 281.618L79.2959 273.953L75.2311 267.294L69.6568 253.019L60.6533 249.333L51.4416 242.698L47.9781 239.737L45.2639 236.383L40.1427 229.896L33.6837 216.849L31.8563 200.61L33.2347 185.746L39.146 170.417L44.4539 163.048L51.2112 156.256L58.7545 150.963L69.3318 145.99L73.4717 144.774L74.1351 143.853L80.7829 131.386L89.1507 117.826L94.2374 110.764L96.2279 108.001L96.415 107.093L95.9702 106.416L95.8843 105.888L95.7126 104.831L95.6267 104.303L96.2043 102.854L112.802 79.81L113.676 78.596L114.119 77.9819L115.089 77.2819L116.367 76.803L117.73 76.8524L118.873 77.2088L120.728 75.2806L126.072 69.8029L136.933 59.9041L147.83 51.8969L157.707 45.9533Z" fill="#00FFA3"/>
<g style="mix-blend-mode:multiply">
<path d="M174.892 198.466L177.824 199.221C180.841 187.513 183.23 175.396 184.33 163.629L181.315 163.348L180.944 166.353L184.268 166.763C184.927 166.845 185.592 166.737 186.168 166.479C186.744 166.221 187.241 165.818 187.612 165.302C187.953 164.83 188.185 164.257 188.26 163.65L188.859 158.802L185.854 158.431L185.742 161.455C188.13 161.549 190.547 160.827 192.509 159.292L192.509 159.292C193.292 158.681 193.98 157.967 194.556 157.169C195.579 155.751 196.229 154.068 196.444 152.284C196.458 152.158 196.467 151.96 196.463 151.834L195.605 122.199L192.578 122.287L195.582 122.658C195.774 121.118 195.52 119.6 194.923 118.275C194.326 116.947 193.392 115.799 192.207 114.946C191.122 114.161 189.816 113.629 188.403 113.455L178.227 112.198L177.856 115.203L179.625 112.747L179.624 112.746C179.208 112.446 178.735 112.261 178.226 112.198L175.583 111.872L175.584 111.872C173.418 111.598 171.216 112.211 169.497 113.56L169.497 113.559C168.865 114.052 168.314 114.628 167.856 115.263C167.07 116.354 166.556 117.628 166.394 118.985L169.402 119.34L166.487 118.519L158.407 147.216C158.372 147.338 158.332 147.54 158.316 147.665C158.075 149.607 158.394 151.514 159.145 153.185C159.897 154.858 161.075 156.306 162.568 157.381L162.568 157.382L164.324 154.944L162.42 157.267L162.568 157.382L164.324 154.944L162.42 157.267L162.57 157.383C163.731 158.219 165.063 158.797 166.477 159.098L167.106 156.135L164.102 155.765L163.505 160.592L163.506 160.588C163.389 161.528 163.648 162.485 164.245 163.243C164.323 163.342 164.425 163.456 164.516 163.544L164.628 163.652C164.719 163.741 164.863 163.861 164.966 163.935C165.441 164.277 166.013 164.511 166.634 164.585L166.62 164.584L170.634 165.079L171.006 162.075L168.005 161.678C167.289 167.098 165.204 178.953 159.245 198.252L162.138 199.145L164.166 196.898C162.632 195.514 161.01 194.188 159.28 192.942C154.199 189.282 148.701 186.6 143.029 184.834L142.129 187.724L145.092 187.104C142.453 174.482 135.519 162.706 124.709 154.194L122.836 156.573L125.775 157.3C128.003 148.281 131.558 136.727 136.765 126.436L134.063 125.07L132.487 127.655L134.485 128.873L134.49 128.877C135.284 129.358 136.214 129.499 137.059 129.325C137.904 129.156 138.71 128.665 139.254 127.909L155.022 106.017C155.596 105.223 155.801 104.24 155.65 103.346C155.507 102.45 155.003 101.589 154.209 101.019L151.913 99.365L150.143 101.821L152.415 103.821C156.664 98.9929 162.688 93.2139 170.329 88.4436C176.159 84.802 183.428 81.4706 192.037 79.7721C200.65 78.076 210.61 77.9933 221.945 80.9193L222.702 77.989L219.808 78.8782C223.304 90.222 223.503 103.282 222.044 115.8C220.592 128.317 217.509 140.274 214.627 149.438L217.514 150.347L219.284 147.89L218.435 147.279C217.645 146.708 216.667 146.5 215.77 146.649C214.873 146.791 214.006 147.299 213.438 148.092L195.799 172.581C195.221 173.378 194.999 174.399 195.19 175.36L195.191 175.368C195.366 176.252 195.873 177.048 196.611 177.579L196.747 177.67L196.778 177.69L196.809 177.71L198.762 178.929L200.365 176.36L198.174 174.272C196.121 176.428 186.586 186.158 173.104 196.023L174.892 198.466L176.68 200.909C190.588 190.728 200.332 180.781 202.556 178.449C203.183 177.791 203.482 176.882 203.368 175.98C203.254 175.08 202.738 174.273 201.967 173.792L200.029 172.582L200.015 172.574L198.381 175.122L200.15 172.666L198.706 174.671L201.131 174.191C201.012 173.585 200.661 173.032 200.15 172.666L198.706 174.671L201.131 174.191L201.132 174.198L198.704 174.674L200.712 176.12C201.11 175.572 201.264 174.86 201.132 174.198L198.704 174.674L200.712 176.12L218.351 151.63L216.343 150.184L216.738 152.626C217.357 152.53 217.961 152.175 218.351 151.63L216.343 150.184L214.897 152.192C215.439 152.584 216.121 152.73 216.738 152.626L216.343 150.184L214.897 152.192L215.745 152.803C216.534 153.371 217.548 153.526 218.469 153.22C219.392 152.913 220.112 152.181 220.402 151.254C223.364 141.832 226.542 129.546 228.058 116.498C229.567 103.452 229.437 89.6252 225.595 77.0993C225.286 76.0934 224.478 75.3211 223.459 75.0573C211.262 71.9016 200.315 71.9639 190.865 73.8316C181.411 75.6972 173.458 79.35 167.122 83.3082C158.835 88.4858 152.409 94.6662 147.871 99.8213C147.307 100.462 147.039 101.312 147.136 102.161C147.231 103.009 147.68 103.778 148.374 104.278L150.671 105.932L152.117 103.924L149.676 104.325C149.773 104.941 150.125 105.54 150.671 105.932L152.117 103.924L149.676 104.325L152.118 103.925L150.109 102.478C149.714 103.023 149.571 103.71 149.676 104.325L152.118 103.925L150.109 102.478L134.341 124.37L136.35 125.817L135.86 123.39C135.278 123.506 134.717 123.847 134.341 124.37L136.35 125.817L135.86 123.39L136.349 125.814L137.633 123.701C137.086 123.368 136.44 123.271 135.86 123.39L136.349 125.814L137.633 123.701L137.637 123.704L135.639 122.486C134.92 122.046 134.044 121.928 133.233 122.158C132.424 122.39 131.741 122.952 131.361 123.704C125.846 134.623 122.201 146.544 119.898 155.846C119.612 156.999 120.031 158.217 120.963 158.951C130.621 166.558 136.801 177.053 139.166 188.344C139.392 189.421 140.178 190.288 141.229 190.615C146.302 192.194 151.202 194.586 155.742 197.855C157.275 198.959 158.725 200.143 160.109 201.393C160.876 202.085 161.945 202.338 162.941 202.064C163.936 201.791 164.726 201.025 165.031 200.039C171.077 180.452 173.241 168.267 174.006 162.471C174.113 161.669 173.895 160.863 173.4 160.222C172.906 159.583 172.18 159.169 171.377 159.07L167.362 158.574L167.348 158.573L167.055 161.034L168.504 159.022C168.18 158.788 167.783 158.624 167.348 158.573L167.055 161.034L168.504 159.022L166.735 161.478L168.842 159.304L168.73 159.195L166.623 161.37L169.001 159.496L167.052 161.03L169.514 161.339C169.595 160.688 169.416 160.024 169.001 159.496L167.052 161.03L169.514 161.339L169.515 161.334L170.11 156.507C170.303 154.948 169.271 153.5 167.735 153.175C167.107 153.041 166.561 152.795 166.109 152.47L164.339 154.926L166.258 152.585L166.107 152.469L166.106 152.468C165.483 152.021 164.982 151.406 164.669 150.706C164.356 150.005 164.224 149.23 164.326 148.408L161.321 148.037L164.235 148.857L172.315 120.16C172.363 119.988 172.386 119.873 172.407 119.696C172.44 119.41 172.558 119.093 172.769 118.802C172.89 118.633 173.042 118.473 173.22 118.334L173.222 118.333C173.712 117.957 174.247 117.812 174.839 117.88L174.841 117.88L177.485 118.206L177.855 115.202L176.086 117.659L176.086 117.66C176.502 117.959 176.976 118.145 177.485 118.208L187.66 119.464C188.045 119.512 188.378 119.649 188.669 119.858C188.984 120.085 189.241 120.4 189.4 120.755C189.558 121.111 189.624 121.496 189.573 121.916C189.558 122.041 189.548 122.249 189.552 122.375L190.411 152.009L193.438 151.922L190.432 151.559C190.332 152.372 190.059 153.049 189.643 153.63C189.407 153.957 189.123 154.253 188.784 154.519L188.786 154.518C187.977 155.144 187.028 155.439 185.967 155.405C184.397 155.346 183.043 156.5 182.85 158.059L182.251 162.907L184.709 163.21L182.699 161.763C182.462 162.09 182.301 162.49 182.251 162.907L184.709 163.21L182.699 161.763L184.707 163.209L183.698 160.95C183.299 161.129 182.957 161.407 182.699 161.763L184.707 163.209L185.01 160.754C184.558 160.697 184.094 160.772 183.698 160.95L184.707 163.209L185.01 160.754L181.686 160.343C180.872 160.242 180.057 160.474 179.418 160.989C178.779 161.503 178.377 162.249 178.301 163.066C177.243 174.408 174.92 186.233 171.961 197.71C171.641 198.95 172.134 200.254 173.193 200.972C174.253 201.69 175.647 201.665 176.68 200.909L174.892 198.466ZM239.21 200.583L237.602 203.148C238.395 203.646 239.338 203.798 240.193 203.628C241.048 203.462 241.862 202.967 242.407 202.207L258.176 180.315C258.747 179.525 258.954 178.542 258.804 177.645C258.662 176.748 258.154 175.885 257.363 175.317L253.714 172.689L251.945 175.146L254.679 176.446C259.222 166.889 264.928 152.29 267.102 135.498C268.187 127.103 268.384 118.155 267.079 109.031C265.775 99.9083 262.961 90.6093 258.047 81.5688C250.225 67.1714 240.936 56.9302 231.206 49.9247C218.989 41.1217 206.122 37.4524 194.751 36.8392C189.061 36.5304 183.74 36.9785 179.019 37.9255C174.296 38.8756 170.177 40.3169 166.852 42.0488L168.253 44.7329L167.343 41.8453C167.01 41.9509 165.329 42.5039 162.59 43.733C154.383 47.4149 136.739 57.1639 118.534 78.7705L120.848 80.7212L122.618 78.2647L120.444 76.6989C119.654 76.1275 118.675 75.9201 117.779 76.0694C116.881 76.2111 116.015 76.7186 115.446 77.5116L97.8072 102.001C97.2245 102.81 97.0104 103.818 97.1984 104.783L97.2068 104.822C97.3871 105.69 97.8903 106.473 98.6198 106.999L98.7393 107.08L98.774 107.102L98.8474 107.149L100.685 108.27L102.262 105.686L99.8182 103.898C99.6691 104.102 99.4536 104.399 99.177 104.783C95.9193 109.308 84.2614 125.894 74.325 145.185L77.0163 146.571L76.3085 143.628C63.5735 146.686 51.8001 154.142 43.5582 165.586C34.4185 178.274 31.2874 193.519 33.6202 207.847C35.9474 222.175 43.7476 235.643 56.4367 244.781C61.5176 248.442 67.0152 251.124 72.6873 252.89L73.5871 249.999L70.6242 250.62C72.3445 258.843 75.8878 266.7 81.1345 273.536L83.5365 271.693L80.5361 272.096C80.6195 272.716 80.7281 273.361 80.8817 274.025C81.4238 276.363 82.4501 278.951 84.2108 281.558C85.9688 284.166 88.4537 286.785 91.8596 289.237C95.3436 291.745 99.7882 294.085 105.439 296.118L106.465 293.27L104.341 295.428C105.659 296.725 107.086 297.969 108.657 299.1C117.319 305.334 128.918 308.199 140.927 306.25C152.935 304.293 163.019 297.902 169.259 289.245C170.398 287.665 171.407 286.007 172.276 284.289L169.573 282.924L171.231 285.456C172.5 284.627 173.776 283.764 175.056 282.855C189.841 272.362 203.954 257.725 217.318 239.172C225.394 227.96 233.196 215.315 240.703 201.277L238.034 199.85L236.433 202.42L237.609 203.152L237.602 203.148L239.21 200.583L240.81 198.014L239.635 197.28C238.92 196.835 238.066 196.708 237.252 196.925C236.438 197.143 235.762 197.679 235.364 198.422C227.967 212.255 220.3 224.673 212.405 235.634C199.341 253.774 185.652 267.915 171.55 277.918C170.344 278.775 169.133 279.595 167.915 280.391C167.473 280.68 167.109 281.087 166.87 281.56C166.149 282.99 165.304 284.376 164.346 285.707C159.099 292.998 150.419 298.574 139.956 300.273C129.492 301.979 119.482 299.44 112.196 294.187C110.921 293.269 109.727 292.234 108.588 291.112C108.273 290.802 107.906 290.571 107.489 290.422C102.277 288.546 98.3444 286.446 95.3983 284.324C92.5143 282.246 90.5648 280.149 89.2295 278.171C87.8965 276.193 87.1685 274.325 86.7794 272.653C86.6804 272.23 86.6017 271.774 86.5373 271.289C86.4659 270.765 86.2595 270.269 85.9375 269.849C81.2547 263.747 78.0886 256.73 76.5507 249.379C76.3256 248.302 75.5387 247.436 74.4871 247.109C69.4147 245.529 64.5149 243.137 59.9753 239.868C48.6346 231.698 41.6848 219.697 39.5968 206.875C37.5146 194.052 40.3031 180.467 48.4711 169.125C55.8408 158.896 66.325 152.257 77.7241 149.515C78.5757 149.31 79.3064 148.736 79.7082 147.957C89.4088 129.114 100.935 112.698 104.09 108.322C104.358 107.95 104.564 107.665 104.705 107.473C105.203 106.792 105.395 105.923 105.232 105.096C105.068 104.269 104.558 103.54 103.839 103.101L102 101.98L100.424 104.565L102.074 102.026L102.04 102.004L100.389 104.542L102.158 102.086L100.716 104.088L103.133 103.583C103.01 102.989 102.663 102.448 102.158 102.086L100.716 104.088L103.133 103.583L100.17 104.203L103.141 103.623L100.716 104.096L102.72 105.539C103.123 104.979 103.271 104.285 103.141 103.623L100.716 104.096L102.72 105.539L120.359 81.0502L118.351 79.6041L118.748 82.046C119.365 81.9499 119.97 81.5942 120.359 81.0502L118.351 79.6041L116.905 81.6118C117.447 82.0036 118.13 82.1493 118.748 82.046L118.351 79.6041L116.905 81.6118L119.079 83.1777C120.361 84.1012 122.146 83.8805 123.164 82.6725C134.857 68.7967 146.233 60.0776 154.754 54.7998C159.014 52.161 162.559 50.383 165.069 49.2571C167.576 48.1316 169.061 47.6516 169.161 47.6208C169.332 47.567 169.495 47.5001 169.652 47.4173C172.371 45.9964 175.991 44.7073 180.21 43.8628C186.544 42.5894 194.227 42.3044 202.399 43.8542C210.576 45.4047 219.247 48.7753 227.668 54.8377C236.606 61.2784 245.282 70.7671 252.727 84.4602C257.271 92.8221 259.87 101.398 261.085 109.888C262.908 122.618 261.598 135.157 258.989 146.25C256.382 157.341 252.482 166.971 249.211 173.845C248.583 175.166 248.989 176.748 250.176 177.602L253.824 180.23L255.27 178.223L252.829 178.62C252.926 179.239 253.281 179.84 253.824 180.23L255.27 178.223L253.263 176.777C252.87 177.318 252.724 178.004 252.829 178.62L255.27 178.223L253.263 176.777L237.494 198.669L239.503 200.115L239.026 197.686C238.436 197.8 237.871 198.145 237.494 198.669L239.503 200.115L240.817 198.018C240.271 197.674 239.614 197.568 239.026 197.686L239.503 200.115L240.817 198.018L240.81 198.014L239.21 200.583Z" fill="#C5BBE3"/>
<path d="M168.456 45.2488C168.456 45.2488 140.355 53.7496 113.362 91.2262C138.964 109.667 141.932 111.804 141.932 111.804C141.932 111.804 178.06 49.9115 245.266 86.484C242.449 69.1468 206.678 42.3467 182.735 41.4443" fill="#2E3089"/>
<path d="M168.309 44.7648C168.235 44.7862 140.023 53.3448 112.952 90.9309C112.874 91.039 112.842 91.175 112.863 91.3069C112.884 91.4379 112.958 91.5573 113.067 91.6352C138.669 110.076 141.637 112.213 141.637 112.213C141.752 112.297 141.898 112.328 142.037 112.297C142.176 112.268 142.296 112.182 142.368 112.058C142.368 112.058 142.417 111.975 142.52 111.805C142.831 111.298 143.615 110.056 144.862 108.325C149.464 101.933 160.39 88.8674 177.197 81.2765C194.007 73.6907 216.679 71.5114 245.025 86.9268C245.195 87.0192 245.4 87.0068 245.559 86.8943C245.716 86.7827 245.796 86.5926 245.765 86.4025C245.019 81.85 242.125 76.7803 237.857 71.6902C233.586 66.6034 227.928 61.5023 221.613 56.952C209.382 48.1498 194.7 41.398 182.754 40.9391C182.475 40.9287 182.241 41.146 182.231 41.4246C182.22 41.7025 182.437 41.9375 182.716 41.9479C194.322 42.3769 208.913 49.0422 221.023 57.7708C227.281 62.2784 232.882 67.3324 237.084 72.34C241.289 77.3434 244.081 82.307 244.769 86.5644L245.266 86.4835L245.507 86.0403C216.934 70.4802 193.832 72.6414 176.781 80.3565C159.728 88.0663 148.708 101.262 144.043 107.735C142.358 110.075 141.503 111.538 141.496 111.55L141.932 111.804L142.227 111.395C142.227 111.395 139.258 109.257 113.656 90.8164L113.361 91.2258L113.771 91.5207C127.229 72.8352 140.955 61.3846 151.307 54.6054C156.484 51.2153 160.817 48.994 163.852 47.6215C165.368 46.9354 166.561 46.4616 167.372 46.1591C167.777 46.008 168.087 45.9005 168.294 45.8307L168.528 45.7543L168.602 45.7306C168.869 45.6504 169.02 45.3685 168.938 45.102C168.858 44.8353 168.576 44.6845 168.31 44.7654" fill="#080C14"/>
<path d="M118.351 79.6041L152.117 103.924L136.349 125.816L100.712 104.093L118.351 79.6041Z" fill="#3756AE"/>
<path d="M118.351 79.6041L118.056 80.0135L151.412 104.039L136.212 125.142L101.44 103.946L118.76 79.899L118.351 79.6041L117.942 79.3092L100.303 103.798C100.221 103.912 100.19 104.055 100.217 104.193C100.246 104.331 100.33 104.451 100.45 104.524L136.086 126.248C136.311 126.385 136.604 126.325 136.758 126.111L152.526 104.219C152.604 104.111 152.637 103.974 152.615 103.843C152.594 103.712 152.52 103.593 152.412 103.515L118.646 79.1947C118.538 79.1168 118.402 79.0847 118.271 79.106C118.139 79.1267 118.02 79.2011 117.942 79.3092L118.351 79.6041Z" fill="#080C14"/>
<path d="M133.83 124.299L102.938 105.697C102.938 105.697 83.3642 132.031 71.4142 159.634C98.1775 167.076 119.048 172.528 119.048 172.528C119.048 172.528 122.67 146.063 133.83 124.299Z" fill="#242659"/>
<path d="M133.83 124.299L134.09 123.867L103.199 105.265C102.976 105.131 102.689 105.187 102.534 105.396C102.532 105.398 102.187 105.862 101.56 106.731C97.4629 112.422 81.3471 135.425 70.9517 159.434C70.8939 159.567 70.8963 159.72 70.9596 159.851C71.0223 159.983 71.1386 160.081 71.2795 160.12C98.0457 167.563 118.919 173.015 118.92 173.015C119.059 173.052 119.209 173.028 119.328 172.947C119.448 172.867 119.528 172.739 119.548 172.597C119.547 172.595 119.604 172.189 119.724 171.426C120.562 166.091 124.557 143.48 134.279 124.529C134.399 124.294 134.317 124.004 134.09 123.867L133.83 124.299L133.381 124.07C122.172 145.938 118.555 172.431 118.547 172.459L119.048 172.528L119.175 172.04C119.171 172.038 117.871 171.699 115.497 171.072C108.375 169.19 91.6185 164.729 71.5502 159.148L71.4144 159.634L71.8779 159.835C82.2152 135.954 98.3031 112.979 102.379 107.321C103.002 106.457 103.343 105.999 103.344 105.998L102.939 105.697L102.678 106.129L133.569 124.732L133.83 124.299Z" fill="#080C14"/>
<path d="M132.725 229.812C115.568 253.632 82.3486 259.033 58.5283 241.876C34.7072 224.719 29.3056 191.5 46.4626 167.679C63.6202 143.858 96.839 138.457 120.66 155.614C144.48 172.771 149.883 205.991 132.725 229.812Z" fill="#2E3089"/>
<path d="M132.726 229.812L132.316 229.517C123.817 241.315 111.346 248.549 98.0445 250.713C84.7429 252.874 70.6218 249.965 58.8234 241.467C47.0242 232.968 39.7904 220.496 37.627 207.196C35.4646 193.894 38.3742 179.773 46.8722 167.974C55.3708 156.175 67.8425 148.941 81.1444 146.778C94.4451 144.616 108.566 147.525 120.365 156.024C132.164 164.522 139.398 176.993 141.562 190.295C143.723 203.596 140.814 217.717 132.316 229.517L132.726 229.812L133.135 230.107C150.455 206.058 145.002 172.525 120.955 155.205C96.9081 137.884 63.3743 143.337 46.0534 167.384C28.7335 191.431 34.1865 224.965 58.2331 242.286C82.2799 259.606 115.814 254.153 133.135 230.107L132.726 229.812Z" fill="#080C14"/>
<path d="M132.473 225.652C118.394 245.199 91.1354 249.631 71.5885 235.552C52.0416 221.473 47.6082 194.214 61.6872 174.667C75.7668 155.119 103.026 150.688 122.573 164.767C142.12 178.846 146.553 206.104 132.473 225.652Z" fill="#242659"/>
<path d="M132.474 225.652L132.064 225.357C125.105 235.019 114.893 240.943 104.001 242.715C93.1078 244.485 81.5448 242.102 71.8835 235.143C62.2214 228.184 56.2977 217.971 54.5259 207.08C52.7556 196.187 55.1373 184.624 62.0967 174.962C69.056 165.3 79.2692 159.377 90.161 157.605C101.053 155.834 112.616 158.217 122.278 165.177C131.939 172.135 137.863 182.348 139.636 193.24C141.406 204.132 139.023 215.695 132.064 225.357L132.474 225.652L132.883 225.947C147.125 206.173 142.641 178.599 122.868 164.358C103.094 150.115 75.5211 154.599 61.2779 174.372C47.0364 194.146 51.52 221.719 71.2937 235.962C91.0666 250.204 118.641 245.721 132.883 225.947L132.474 225.652Z" fill="#080C14"/>
<path d="M115.273 198.052C112.725 206.779 105.253 212.276 98.5858 210.327C91.9198 208.38 88.5826 199.727 91.1315 191C93.681 182.272 101.152 176.776 107.819 178.724C114.485 180.671 117.822 189.325 115.273 198.052Z" fill="#8B3DA3"/>
<path d="M115.274 198.052L114.789 197.911C114.114 200.225 113.084 202.304 111.816 204.065C110.113 206.429 107.981 208.216 105.709 209.236C103.435 210.257 101.03 210.515 98.7278 209.844C97.6923 209.541 96.7417 209.068 95.8844 208.451C91.5044 205.314 89.5259 198.278 91.6157 191.141C92.2919 188.826 93.3216 186.747 94.5896 184.987C96.2923 182.623 98.4235 180.836 100.696 179.815C102.97 178.796 105.375 178.537 107.677 179.209C108.713 179.511 109.663 179.984 110.52 180.601C114.901 183.738 116.879 190.774 114.789 197.911L115.274 198.052L115.758 198.193C117.931 190.735 115.94 183.279 111.11 179.782C110.163 179.101 109.108 178.575 107.96 178.24C105.405 177.493 102.739 177.791 100.283 178.896C97.8242 180 95.5657 181.907 93.7708 184.397C92.4338 186.253 91.355 188.435 90.648 190.858C88.4746 198.316 90.465 205.773 95.2946 209.27C96.2404 209.951 97.2965 210.477 98.4443 210.812C101 211.559 103.666 211.262 106.122 210.157C108.58 209.052 110.839 207.146 112.634 204.655C113.971 202.798 115.05 200.617 115.758 198.193L115.274 198.052Z" fill="#080C14"/>
<path d="M168.456 45.2486C168.456 45.2486 192.58 34.4452 213.742 59.8333C234.907 85.2203 226.006 131.22 213.546 163.386C239.149 181.827 245.324 186.274 245.324 186.274C245.324 186.274 281.078 131.438 254.902 83.2796C229.552 36.6419 187.548 35.2423 168.456 45.2486Z" fill="#1EB7F1"/>
<mask id="mask0_100_15427" style="mask-type:luminance" maskUnits="userSpaceOnUse" x="168" y="40" width="97" height="147">
<path d="M168.57 45.2033C168.57 45.2033 192.717 34.4493 213.83 59.8585C234.945 85.2666 225.952 131.222 213.428 163.344C238.995 181.819 245.161 186.274 245.161 186.274C245.161 186.274 281.027 131.536 254.945 83.3624C229.687 36.7098 187.684 35.2371 168.57 45.2033Z" fill="white"/>
</mask>
<g mask="url(#mask0_100_15427)">
<path d="M281.142 171.049L200.364 112.844L191.784 124.721L272.562 182.926L281.142 171.049Z" fill="#8B3DA3"/>
<path d="M272.147 135.107L191.367 76.9012L182.787 88.7786L263.566 146.985L272.147 135.107Z" fill="#8B3DA3"/>
<path d="M285.935 115.577L205.156 57.3713L196.576 69.2478L277.355 127.454L285.935 115.577Z" fill="#8B3DA3"/>
<path d="M264.863 70.9376L184.084 12.7316L175.504 24.6081L256.284 82.8141L264.863 70.9376Z" fill="#8B3DA3"/>
</g>
<path d="M168.456 45.2488L168.662 45.7091L168.705 45.6905C169.182 45.4856 173.586 43.6743 180.03 43.4854C186.476 43.2981 194.951 44.7192 203.652 50.9838C206.886 53.3128 210.152 56.3132 213.355 60.1559C223.817 72.6984 226.884 90.4114 225.75 109.037C224.618 127.657 219.292 147.159 213.076 163.204C212.993 163.419 213.065 163.661 213.251 163.795C238.854 182.236 245.029 186.684 245.029 186.684C245.141 186.764 245.28 186.796 245.417 186.77C245.552 186.745 245.671 186.666 245.746 186.55C245.763 186.523 254.725 172.78 260.414 152.976C266.101 133.178 268.521 107.282 255.345 83.0384C247.823 69.1996 238.828 59.3073 229.386 52.5067C218.128 44.3979 206.24 40.6865 195.47 39.896C184.699 39.1057 175.049 41.2258 168.222 44.8017C167.981 44.9277 167.884 45.2233 168.002 45.4687C168.121 45.7138 168.414 45.8202 168.662 45.7091L168.456 45.2488L168.691 45.695C175.316 42.2205 184.803 40.1219 195.396 40.9021C205.991 41.6812 217.694 45.3288 228.797 53.3255C238.108 60.0324 247.001 69.8003 254.459 83.5202C267.46 107.435 265.091 133.037 259.444 152.697C256.621 162.524 252.982 170.857 250.05 176.729C248.584 179.664 247.294 181.985 246.373 183.57C245.912 184.363 245.543 184.972 245.289 185.381C245.036 185.791 244.901 185.997 244.901 185.998L245.324 186.274L245.619 185.865C245.619 185.865 239.444 181.417 213.841 162.976L213.546 163.386L214.017 163.568C220.261 147.447 225.614 127.866 226.757 109.099C227.897 90.3364 224.833 72.3554 214.131 59.5099C210.877 55.6068 207.548 52.5465 204.242 50.165C195.058 43.5473 186.054 42.1912 179.366 42.501C172.675 42.8096 168.289 44.7713 168.25 44.7879L168.456 45.2488Z" fill="#080C14"/>
<path d="M216.342 150.184L255.27 178.223L239.502 200.115L198.703 174.673L216.342 150.184Z" fill="#3756AE"/>
<path d="M216.342 150.184L216.047 150.593L254.566 178.337L239.369 199.437L199.428 174.53L216.751 150.479L216.342 150.184L215.933 149.889L198.294 174.378C198.212 174.492 198.181 174.633 198.208 174.77C198.235 174.908 198.317 175.027 198.436 175.101L239.235 200.543C239.46 200.683 239.757 200.625 239.912 200.41L255.68 178.518C255.758 178.409 255.79 178.273 255.768 178.141C255.747 178.01 255.673 177.891 255.565 177.813L216.637 149.774C216.529 149.697 216.392 149.664 216.261 149.685C216.13 149.706 216.01 149.781 215.933 149.889L216.342 150.184Z" fill="#080C14"/>
<path d="M169.254 270.044C152.096 293.865 118.877 299.267 95.057 282.11C71.2358 264.952 65.8341 231.734 82.9918 207.912C100.149 184.091 133.368 178.69 157.189 195.847C181.01 213.004 186.411 246.223 169.254 270.044Z" fill="#2E3089"/>
<path d="M169.254 270.044L168.844 269.749C160.345 281.547 147.874 288.782 134.573 290.945C121.271 293.108 107.151 290.198 95.3518 281.701C83.5526 273.202 76.3186 260.731 74.1551 247.428C71.993 234.128 74.9031 220.006 83.4011 208.207C91.899 196.409 104.371 189.175 117.672 187.011C130.974 184.849 145.095 187.758 156.894 196.257C168.693 204.755 175.926 217.227 178.089 230.528C180.252 243.829 177.341 257.951 168.844 269.749L169.254 270.044L169.663 270.339C186.983 246.292 181.53 212.758 157.484 195.438C133.437 178.118 99.9026 183.571 82.5823 207.618C65.2616 231.665 70.7153 265.198 94.762 282.52C118.809 299.839 152.342 294.386 169.663 270.339L169.254 270.044Z" fill="#080C14"/>
<path d="M155.678 273.583C143.797 290.079 120.79 293.82 104.294 281.939C87.7969 270.056 84.0565 247.05 95.9381 230.554C107.82 214.057 130.825 210.317 147.323 222.199C163.819 234.081 167.561 257.087 155.678 273.583Z" fill="#161C37"/>
<path d="M155.679 273.583L155.269 273.288C149.409 281.425 140.81 286.413 131.636 287.905C122.463 289.395 112.727 287.389 104.59 281.529C96.4535 275.668 91.4652 267.068 89.9722 257.896C88.482 248.723 90.488 238.986 96.3478 230.849C102.209 222.713 110.809 217.725 119.981 216.232C129.154 214.741 138.892 216.748 147.028 222.609C155.165 228.469 160.153 237.068 161.645 246.242C163.136 255.415 161.13 265.152 155.269 273.288L155.679 273.583L156.088 273.878C168.134 257.154 164.341 233.835 147.618 221.79C130.895 209.744 107.575 213.536 95.529 230.259C83.4849 246.983 87.2768 270.302 104 282.348C120.723 294.392 144.043 290.601 156.088 273.878L155.679 273.583Z" fill="#080C14"/>
<path d="M237.829 199.071L201.229 176.249C201.229 176.249 173.667 206.233 140.237 218.222C134.905 235.796 105.711 239.555 92.9845 250.963C80.259 262.372 76.2971 284.439 112.349 294.565C148.4 304.689 196.163 277.262 237.829 199.071Z" fill="#242659"/>
<path d="M237.829 199.071L238.095 198.642L201.496 175.821C201.29 175.692 201.022 175.729 200.858 175.907C200.857 175.909 200.433 176.369 199.618 177.209C193.915 183.088 169.177 207.314 140.066 217.747C139.916 217.8 139.8 217.921 139.754 218.075C139.129 220.131 138.17 221.994 136.938 223.704C132.44 229.965 124.223 234.188 115.695 238.062C107.17 241.947 98.3537 245.48 92.6469 250.587C90.9738 252.088 89.4494 253.769 88.1407 255.586C84.8632 260.137 82.9361 265.544 83.4934 271.029C84.0485 276.515 87.1132 282.033 93.6504 286.735C98.1105 289.948 104.186 292.796 112.212 295.049C127.092 299.231 143.933 297.06 161.455 287.696C178.981 278.332 197.205 261.784 214.938 237.163C222.85 226.179 230.665 213.587 238.274 199.308C238.398 199.074 238.32 198.783 238.095 198.642L237.829 199.071L237.383 198.833C229.793 213.076 222.003 225.631 214.12 236.574C196.453 261.103 178.326 277.541 160.98 286.807C143.631 296.073 127.081 298.177 112.485 294.078C104.544 291.848 98.5759 289.041 94.2401 285.916C87.8848 281.333 85.0284 276.103 84.4975 270.926C83.9686 265.749 85.7906 260.576 88.9595 256.176C90.2233 254.421 91.6991 252.792 93.3207 251.338C98.8093 246.41 107.562 242.867 116.113 238.98C124.661 235.085 133.029 230.845 137.757 224.294C139.048 222.504 140.062 220.538 140.719 218.368L140.237 218.222L140.407 218.696C173.996 206.641 201.571 176.613 201.601 176.59L201.229 176.249L200.963 176.677L237.561 199.499L237.829 199.071Z" fill="#080C14"/>
<path d="M140.353 302.716C120.004 306.025 101.175 294.364 98.2975 276.673C95.4204 258.98 109.586 241.956 129.936 238.646C150.285 235.337 169.115 246.997 171.991 264.689C174.868 282.382 160.703 299.406 140.353 302.716Z" fill="#3756AE"/>
<path d="M140.354 302.716L140.273 302.219C129.296 304.003 118.777 301.378 111.038 295.803C104.595 291.16 100.08 284.486 98.7955 276.592C97.5125 268.697 99.6794 260.937 104.32 254.491C109.894 246.751 119.04 240.929 130.016 239.144C140.993 237.359 151.513 239.984 159.252 245.559C165.695 250.201 170.209 256.876 171.494 264.771C172.776 272.665 170.609 280.426 165.969 286.871C160.395 294.611 151.249 300.434 140.273 302.219L140.354 302.716L140.435 303.214C151.667 301.387 161.047 295.429 166.787 287.461C171.566 280.828 173.821 272.789 172.49 264.609C171.16 256.427 166.474 249.517 159.841 244.74C151.872 239.001 141.087 236.322 129.854 238.148C118.621 239.975 109.242 245.933 103.501 253.901C98.7224 260.534 96.4687 268.573 97.7996 276.754C99.1301 284.934 103.815 291.846 110.448 296.622C118.417 302.361 129.202 305.04 140.435 303.214L140.354 302.716Z" fill="#080C14"/>
<path d="M181.147 158.38L171.946 158.325C171.946 158.325 170.839 189.804 136.886 266.806C139.963 273.174 147.082 271.98 147.082 271.98C147.082 271.98 177.974 210.102 181.147 158.38Z" fill="#242659"/>
<path d="M181.147 158.381L181.15 157.876L171.948 157.821C171.676 157.819 171.45 158.036 171.441 158.308L171.437 158.393C171.345 160.232 169.299 192.048 136.425 266.603C136.365 266.738 136.368 266.892 136.432 267.026C137.227 268.674 138.295 269.857 139.445 270.685C141.199 271.947 143.125 272.39 144.605 272.523C146.088 272.657 147.136 272.483 147.165 272.478C147.325 272.451 147.46 272.351 147.533 272.206C147.541 272.175 178.458 210.293 181.651 158.412C181.659 158.274 181.611 158.138 181.515 158.037C181.421 157.935 181.288 157.877 181.15 157.876L181.147 158.381L180.643 158.35C179.063 184.125 170.562 212.493 162.451 234.401C158.396 245.355 154.439 254.697 151.496 261.299C150.026 264.599 148.808 267.215 147.959 269.005C147.534 269.899 147.202 270.588 146.976 271.052C146.75 271.516 146.63 271.755 146.63 271.756L147.082 271.98L146.997 271.483L146.963 271.488C146.563 271.553 142.939 271.972 140.035 269.866C139.014 269.129 138.067 268.087 137.341 266.587L136.886 266.807L137.348 267.01C171.32 189.965 172.446 158.427 172.449 158.344L171.945 158.326L171.941 158.83L181.144 158.886L181.147 158.381Z" fill="#080C14"/>
<path d="M177.788 115.751L187.964 117.008C190.515 117.323 192.344 119.669 192.03 122.22L192.885 151.936C192.425 155.658 189.004 158.326 185.284 157.867L170.442 156.033C166.722 155.573 164.053 152.152 164.513 148.432L172.576 119.817C172.891 117.265 175.236 115.435 177.788 115.751Z" fill="#161C37"/>
<path d="M177.788 115.751L177.725 116.252L187.902 117.509C188.617 117.598 189.265 117.863 189.814 118.258C191.014 119.123 191.722 120.599 191.529 122.159L191.526 122.235L192.38 151.951L192.885 151.936L192.385 151.874C192.25 152.957 191.848 153.94 191.25 154.771C189.941 156.586 187.707 157.658 185.346 157.365L170.504 155.531C169.422 155.397 168.439 154.995 167.608 154.397C165.793 153.088 164.72 150.854 165.013 148.493L164.513 148.431L164.998 148.568L173.061 119.954L173.076 119.879C173.165 119.164 173.431 118.515 173.826 117.966C174.69 116.766 176.166 116.058 177.725 116.252L177.788 115.751L177.849 115.25C175.909 115.011 174.077 115.889 173.007 117.376C172.517 118.057 172.184 118.868 172.074 119.756L172.576 119.817L172.09 119.681L164.027 148.294L164.012 148.369C163.674 151.113 164.916 153.701 167.018 155.216C167.981 155.909 169.126 156.378 170.381 156.533L185.222 158.367C187.966 158.705 190.554 157.463 192.069 155.36C192.762 154.398 193.231 153.253 193.386 151.998L193.389 151.922L192.534 122.206L192.03 122.22L192.53 122.282C192.769 120.341 191.891 118.51 190.403 117.439C189.723 116.949 188.913 116.617 188.025 116.508L177.849 115.25L177.788 115.751Z" fill="#080C14"/>
<path d="M175.144 115.425L185.319 116.682C187.872 116.997 189.701 119.343 189.385 121.893L190.242 151.61C189.782 155.33 186.362 157.999 182.64 157.54L167.799 155.706C164.078 155.246 161.409 151.825 161.869 148.104L169.932 119.491C170.247 116.94 172.593 115.109 175.144 115.425Z" fill="#161C37"/>
<path d="M175.144 115.425L175.082 115.925L185.258 117.182C185.973 117.271 186.622 117.537 187.171 117.932C188.371 118.796 189.079 120.273 188.885 121.832L188.881 121.908L189.738 151.625L190.242 151.61L189.74 151.548C189.607 152.63 189.204 153.613 188.606 154.444C187.298 156.26 185.064 157.332 182.702 157.04L167.861 155.206C166.779 155.072 165.796 154.668 164.965 154.07C163.149 152.762 162.077 150.528 162.371 148.166L161.869 148.104L162.355 148.241L170.417 119.628L170.433 119.553C170.521 118.837 170.787 118.188 171.182 117.639C172.047 116.44 173.523 115.731 175.082 115.925L175.144 115.425L175.206 114.924C173.264 114.685 171.434 115.563 170.363 117.05C169.873 117.731 169.541 118.542 169.432 119.429L169.932 119.491L169.446 119.354L161.383 147.967L161.369 148.043C161.029 150.786 162.272 153.375 164.375 154.889C165.337 155.583 166.483 156.052 167.737 156.207L182.578 158.041C185.322 158.378 187.911 157.136 189.425 155.033C190.118 154.071 190.587 152.926 190.742 151.672L190.746 151.596L189.89 121.879L189.385 121.893L189.886 121.956C190.126 120.014 189.247 118.184 187.76 117.113C187.08 116.623 186.268 116.291 185.381 116.181L175.206 114.924L175.144 115.425Z" fill="#080C14"/>
<path d="M184.706 163.211L167.058 161.029L167.717 155.695L185.365 157.877L184.706 163.211Z" fill="#161C37"/>
<path d="M184.706 163.211L184.768 162.71L167.62 160.591L168.155 156.258L184.803 158.315L184.205 163.149L184.706 163.211L185.207 163.272L185.866 157.938C185.901 157.662 185.704 157.41 185.427 157.376L167.778 155.195C167.647 155.178 167.512 155.216 167.407 155.298C167.302 155.38 167.233 155.502 167.216 155.634L166.557 160.968C166.523 161.244 166.72 161.496 166.996 161.531L184.645 163.712C184.776 163.728 184.911 163.69 185.016 163.609C185.121 163.526 185.19 163.405 185.207 163.272L184.706 163.211Z" fill="#080C14"/>
<path d="M129.34 270.975C125.323 276.552 126.588 284.328 132.165 288.344C137.742 292.361 145.518 291.098 149.535 285.521C153.552 279.944 152.288 272.167 146.711 268.15C141.134 264.133 133.357 265.398 129.34 270.975Z" fill="#161C37"/>
<path d="M129.34 270.974L128.931 270.68C124.751 276.483 126.068 284.574 131.87 288.754C137.673 292.933 145.765 291.619 149.945 285.815C154.125 280.012 152.808 271.921 147.006 267.74C141.202 263.561 133.111 264.876 128.931 270.68L129.34 270.974L129.75 271.269C131.678 268.593 134.505 266.954 137.522 266.462C140.539 265.972 143.739 266.631 146.416 268.559C149.093 270.487 150.732 273.314 151.223 276.33C151.713 279.348 151.054 282.549 149.126 285.226C147.198 287.902 144.371 289.541 141.354 290.032C138.337 290.522 135.137 289.863 132.46 287.935C129.784 286.007 128.144 283.181 127.653 280.164C127.163 277.146 127.822 273.946 129.75 271.269L129.34 270.974Z" fill="#080C14"/>
<path d="M131.75 272.711C128.693 276.956 129.656 282.876 133.901 285.934C138.147 288.992 144.067 288.03 147.125 283.784C150.182 279.54 149.219 273.619 144.974 270.561C140.728 267.503 134.808 268.466 131.75 272.711Z" fill="#242659"/>
<path d="M131.751 272.711L131.341 272.416C128.121 276.888 129.135 283.123 133.606 286.344C138.078 289.564 144.313 288.55 147.534 284.079C150.754 279.607 149.74 273.373 145.269 270.152C140.797 266.931 134.563 267.945 131.341 272.416L131.751 272.711L132.16 273.006C133.609 270.995 135.731 269.765 137.997 269.396C140.265 269.028 142.668 269.522 144.679 270.971C146.69 272.419 147.92 274.541 148.289 276.808C148.658 279.076 148.163 281.478 146.715 283.49C145.266 285.5 143.145 286.73 140.877 287.099C138.611 287.468 136.207 286.973 134.196 285.525C132.185 284.076 130.955 281.953 130.585 279.686C130.217 277.419 130.712 275.017 132.16 273.006L131.751 272.711Z" fill="#080C14"/>
<path d="M84.6214 220.324C85.4726 218.911 86.3172 217.49 87.2044 216.096C88.1627 214.751 89.0641 213.358 90.0746 212.047C91.1328 210.774 92.1021 209.422 93.2606 208.233L94.9454 206.398C95.5264 205.807 96.1408 205.246 96.7381 204.669C97.9039 203.48 99.2353 202.474 100.517 201.413C101.176 200.906 101.87 200.443 102.546 199.956L103.566 199.235L104.634 198.586C107.445 196.793 110.485 195.362 113.63 194.246C119.939 192.051 126.727 191.301 133.345 191.955C139.957 192.618 146.467 194.442 152.299 197.551C149.297 196.184 146.166 195.126 142.973 194.357C139.789 193.556 136.543 193.01 133.276 192.799C130.011 192.595 126.732 192.624 123.49 193.026C120.25 193.43 117.062 194.196 113.993 195.287C110.917 196.351 107.929 197.713 105.16 199.443L104.106 200.068L103.1 200.766C102.433 201.237 101.748 201.683 101.095 202.173C99.8342 203.214 98.4991 204.166 97.3108 205.296C96.7064 205.847 96.084 206.382 95.4915 206.947L93.7729 208.708C92.589 209.847 91.5938 211.16 90.4982 212.384C89.4306 213.635 88.4673 214.971 87.4456 216.263L84.6214 220.324Z" fill="#5C45A5"/>
<path d="M116.544 294.961C118.814 295.995 121.181 296.795 123.594 297.377C126 297.981 128.454 298.395 130.924 298.554C133.392 298.707 135.871 298.686 138.32 298.383C140.769 298.077 143.178 297.498 145.499 296.673C147.824 295.869 150.081 294.84 152.176 293.532L152.971 293.059L153.732 292.532C154.236 292.177 154.753 291.839 155.247 291.467C156.201 290.682 157.209 289.962 158.107 289.108C161.803 285.81 164.955 281.912 167.698 277.75C165.248 282.096 162.2 286.135 158.54 289.582C157.659 290.48 156.652 291.241 155.684 292.044C155.186 292.427 154.661 292.775 154.15 293.144L153.38 293.689L152.572 294.18C150.448 295.536 148.149 296.616 145.773 297.461C141.004 299.119 135.874 299.686 130.871 299.191C125.875 298.691 120.954 297.311 116.544 294.961Z" fill="#6682CA"/>
<path d="M47.322 178.041C48.1738 176.629 49.0176 175.207 49.9054 173.812C50.8645 172.468 51.7652 171.076 52.7756 169.763C53.8347 168.491 54.8039 167.139 55.9625 165.95L57.6465 164.116C58.2283 163.524 58.8421 162.964 59.4391 162.385C60.6049 161.196 61.9366 160.192 63.2179 159.131C63.877 158.623 64.571 158.161 65.2473 157.674L66.2671 156.952L67.3347 156.302C70.1459 154.509 73.1859 153.079 76.3305 151.962C82.6405 149.768 89.4274 149.018 96.0473 149.672C102.658 150.336 109.169 152.16 115.001 155.269C111.998 153.902 108.868 152.842 105.674 152.074C102.491 151.273 99.2435 150.727 95.977 150.516C92.7118 150.313 89.433 150.341 86.191 150.743C82.9515 151.147 79.763 151.914 76.6952 153.005C73.6178 154.068 70.6303 155.43 67.8601 157.16L66.808 157.785L65.8011 158.483C65.1337 158.954 64.4485 159.399 63.7961 159.891C62.536 160.931 61.2001 161.882 60.0126 163.013C59.4076 163.565 58.7844 164.098 58.1926 164.665L56.474 166.424C55.2895 167.564 54.2949 168.876 53.1986 170.101C52.132 171.352 51.1691 172.687 50.1475 173.98L47.322 178.041Z" fill="#5C45A5"/>
</g>
</g>
</svg>
