<svg width="17" height="17" viewBox="0 0 17 17" fill="none" xmlns="http://www.w3.org/2000/svg">
<path fill-rule="evenodd" clip-rule="evenodd" d="M14.0516 6.92777L15.8345 5.14483L15.8345 5.14482C16.3701 4.60925 16.6379 4.34146 16.7827 4.05347C17.0668 3.4883 17.0668 2.82203 16.7827 2.25686C16.6379 1.96888 16.3701 1.70109 15.8346 1.16553L15.8345 1.16551L15.8345 1.16551L15.8345 1.1655C15.299 0.629926 15.0312 0.362138 14.7432 0.217363C14.178 -0.0667578 13.5117 -0.0667578 12.9466 0.217363C12.6586 0.362138 12.3908 0.629927 11.8552 1.16551L10.0497 2.97101C11.0084 4.61321 12.3874 5.98171 14.0516 6.92777ZM8.59526 4.42546L1.76846 11.2523C1.3434 11.6773 1.13087 11.8899 0.991137 12.1509C0.851402 12.412 0.792457 12.7068 0.674567 13.2962L0.06434 16.3474C-0.002182 16.68 -0.035443 16.8463 0.059165 16.9409C0.153773 17.0355 0.320078 17.0022 0.652688 16.9357L3.70382 16.3255C4.29327 16.2076 4.588 16.1486 4.8491 16.0089C5.11019 15.8692 5.32272 15.6566 5.74778 15.2316L12.5934 8.38599C10.9802 7.37546 9.61563 6.02023 8.59526 4.42546Z" fill="#00FFA3"/>
</svg>
