<svg width="22" height="22" viewBox="0 0 22 22" fill="none" xmlns="http://www.w3.org/2000/svg">
<path d="M3.39454 0.0613461C2.55665 0.216055 1.89493 0.559855 1.25899 1.1701C0.782037 1.62993 0.425396 2.1843 0.219146 2.77736C-0.00429097 3.44347 5.8942e-06 3.22859 5.8942e-06 10.9984C5.8942e-06 18.7683 -0.00429097 18.5534 0.219146 19.2195C0.618756 20.3841 1.61563 21.3812 2.78008 21.7808C3.36446 21.9785 3.66524 22 5.77071 22C7.65274 22 7.76016 21.9957 7.92344 21.9141C8.27578 21.7422 8.30156 21.6218 8.26719 20.1005L8.23711 18.8628L8.06094 18.8972C7.96211 18.9144 7.53672 18.9273 7.11133 18.9273C6.01563 18.923 5.58164 18.7941 5.06602 18.3128C4.78672 18.0549 4.76094 18.0119 4.48594 17.4103C4.16797 16.7098 3.74258 16.164 3.36446 15.9706C3.19688 15.8804 2.92188 15.5667 2.92188 15.4592C2.92188 15.2916 3.42461 15.2401 3.80703 15.369C4.33555 15.5495 4.75664 15.8976 5.13047 16.4691C5.61172 17.1954 6.15313 17.5693 6.78477 17.608C7.16719 17.6295 7.62266 17.565 8.00938 17.4404L8.28867 17.3501L8.35742 17.0278C8.43906 16.6625 8.6625 16.1984 8.86016 16.0007L8.98906 15.8632L8.86446 15.8417C8.8 15.8288 8.64961 15.8073 8.5293 15.7901C7.25313 15.6354 6.00703 15.0853 5.30235 14.372C4.87266 13.9336 4.58047 13.448 4.33985 12.7389C4.08204 12.0084 4.02188 11.5872 4.02188 10.5472C4.02188 9.63614 4.02618 9.58887 4.13789 9.21499C4.33555 8.57036 4.65352 7.98161 4.98868 7.62492L5.10899 7.49599L5.02735 7.22095C4.89844 6.81269 4.85118 6.27121 4.89844 5.81997C4.92422 5.6094 4.95 5.40312 4.96289 5.36874C4.97149 5.33436 5.02735 5.13667 5.0875 4.9304C5.19922 4.56511 5.20352 4.55651 5.35391 4.52643C5.775 4.44908 7.00391 4.90031 7.93633 5.48477L8.2457 5.67816L8.64531 5.58791C9.58203 5.38593 10.102 5.32576 11 5.32576C11.898 5.32576 12.418 5.38593 13.3547 5.58791L13.7543 5.67816L14.0637 5.48907C15.0992 4.85304 16.1391 4.45767 16.5902 4.52643L16.7879 4.55651L16.9039 4.9304C17.0758 5.50626 17.1102 5.7684 17.0887 6.37865C17.0758 6.78691 17.0457 7.01038 16.9812 7.21666L16.891 7.49599L17.0113 7.62492C17.3508 7.98591 17.6687 8.58326 17.8578 9.21499C17.9523 9.5373 17.9738 9.71349 17.991 10.2722C18.0512 12.0212 17.5785 13.5039 16.6848 14.3763C15.9672 15.0768 14.9488 15.5452 13.707 15.7472C13.4836 15.7815 13.2344 15.8245 13.157 15.8374L13.0152 15.8589L13.1613 16.0265C13.3719 16.2758 13.5266 16.5766 13.6297 16.9591C13.7156 17.2728 13.7242 17.4232 13.7457 19.4645C13.7758 21.9527 13.7543 21.8195 14.1453 21.9355C14.3301 21.9871 14.6824 22 16.2895 22C18.3305 22 18.6398 21.9785 19.2199 21.7808C20.3801 21.3812 21.3812 20.3798 21.7809 19.2195C22.0043 18.5534 22 18.7683 22 10.9984C22 3.22859 22.0043 3.44347 21.7809 2.77736C21.3812 1.61274 20.3844 0.615721 19.2199 0.216055C18.5539 -0.00741386 18.7773 -0.00311661 10.9613 0.00118065C5.07032 0.00547791 3.65664 0.0140724 3.39454 0.0613461Z" fill="#00FFA3"/>
</svg>
