<svg width="22" height="22" viewBox="0 0 22 22" fill="none" xmlns="http://www.w3.org/2000/svg">
<path d="M1.77054 0.0830784C1.35369 0.194811 1.02709 0.383898 0.704779 0.701908C0.382472 1.02851 0.193385 1.35082 0.0859487 1.78486C0 2.11147 0 2.27907 0 10.9986C0 19.7181 0 19.8857 0.0859487 20.2123C0.193385 20.6463 0.382472 20.9686 0.704779 21.2952C1.03138 21.6175 1.35369 21.8066 1.78773 21.9141C2.11434 22 2.28194 22 11.0014 22C19.7209 22 19.8885 22 20.2151 21.9141C20.6492 21.8066 20.9715 21.6175 21.2981 21.2952C21.6204 20.9686 21.8095 20.6463 21.9169 20.2123C22.0029 19.8857 22.0029 19.7181 22.0029 10.9986C22.0029 2.27907 22.0029 2.11147 21.9169 1.78486C21.8052 1.34223 21.6204 1.02422 21.2766 0.684719C20.9371 0.353817 20.6664 0.194811 20.2151 0.0830784C19.8885 -0.00287056 19.7123 -0.00287056 10.9842 0.0014267C2.3464 0.0014267 2.07566 0.00572395 1.77054 0.0830784ZM9.8927 6.12957C10.9413 7.65946 11.8179 8.91431 11.8437 8.91861C11.8652 8.9229 12.9267 7.71103 14.203 6.22411C15.4794 4.7372 16.5623 3.47805 16.6139 3.43078C16.6955 3.35343 16.7557 3.34913 17.3402 3.35772L17.9762 3.37062L15.2774 6.50774C13.7948 8.23102 12.5485 9.68355 12.5055 9.73082C12.4282 9.81677 12.4841 9.90272 15.4536 14.2216C17.1167 16.6454 18.479 18.6308 18.479 18.6351C18.479 18.6437 17.4777 18.648 16.2529 18.648H14.0268L11.9941 15.6828C10.8725 14.054 9.94427 12.7261 9.93137 12.739C9.91418 12.7476 8.76247 14.0798 7.3701 15.7L4.83462 18.648H4.17711H3.5153L3.6872 18.4417C3.78174 18.33 5.09676 16.8001 6.60946 15.0467L9.35981 11.8495L6.84152 8.19234C5.46204 6.17684 4.14703 4.26448 3.92356 3.93788L3.5196 3.34913H5.74997H7.98464L9.8927 6.12957Z" fill="#00FFA3"/>
<path d="M5.38038 4.43204C5.56947 4.71997 14.5855 17.6037 14.6285 17.651C14.6671 17.6896 14.9164 17.7025 15.677 17.6939L16.6697 17.681L12.0156 11.02L7.3572 4.35898L6.33871 4.34609L5.31592 4.3375L5.38038 4.43204Z" fill="#00FFA3"/>
</svg>
