<svg width="472" height="473" viewBox="0 0 472 473" fill="none" xmlns="http://www.w3.org/2000/svg">
<path fill-rule="evenodd" clip-rule="evenodd" d="M236.001 230.475C304.915 230.475 363.094 241.082 381.603 255.611C355.004 244.076 299.799 236.148 236.001 236.148C172.202 236.148 116.997 244.076 90.399 255.611C108.909 241.082 167.086 230.475 236.001 230.475Z" fill="#00FFA3"/>
<path fill-rule="evenodd" clip-rule="evenodd" d="M236.001 240.153C325.755 240.153 398.52 255.841 398.52 275.192C398.52 288.156 365.863 299.475 317.324 305.535C326.598 302.352 331.967 298.585 331.967 294.548C331.967 283.121 289.002 273.857 236.001 273.857C182.999 273.857 140.035 283.121 140.035 294.548C140.035 298.585 145.404 302.352 154.677 305.535C106.138 299.475 73.4828 288.156 73.4828 275.192C73.4828 255.841 146.245 240.153 236.001 240.153ZM148.735 263.512C154.632 263.512 159.413 265.071 159.413 266.994C159.413 268.917 154.632 270.476 148.735 270.476C142.838 270.476 138.056 268.917 138.056 266.994C138.056 265.071 142.838 263.512 148.735 263.512ZM323.267 263.512C329.163 263.512 333.945 265.071 333.945 266.994C333.945 268.917 329.163 270.476 323.267 270.476C317.37 270.476 312.589 268.917 312.589 266.994C312.589 265.071 317.37 263.512 323.267 263.512ZM236.001 253.167C244.478 253.167 251.352 255.408 251.352 258.172C251.352 260.937 244.478 263.179 236.001 263.179C227.523 263.179 220.649 260.937 220.649 258.172C220.649 255.408 227.523 253.167 236.001 253.167Z" fill="#00FFA3"/>
<path fill-rule="evenodd" clip-rule="evenodd" d="M236.001 178.082C271.885 178.082 301.795 200.279 308.534 229.726C286.986 227.013 262.276 225.47 236.001 225.47C209.725 225.47 185.015 227.013 163.467 229.726C170.206 200.279 200.116 178.082 236.001 178.082ZM247.282 194.758C245.455 194.549 244.14 192.898 244.347 191.069C244.559 189.24 246.209 187.927 248.04 188.136C248.136 188.147 281.628 191.739 284.998 215.686C285.248 217.507 283.978 219.187 282.155 219.439C280.336 219.691 278.655 218.419 278.401 216.598C275.762 197.829 247.363 194.767 247.282 194.758Z" fill="#00FFA3"/>
<path fill-rule="evenodd" clip-rule="evenodd" d="M236.001 283.201C278.743 283.201 313.393 290.672 313.393 299.887C313.393 309.103 278.743 316.573 236.001 316.573C193.258 316.573 158.609 309.103 158.609 299.887C158.609 290.672 193.258 283.201 236.001 283.201Z" fill="#00FFA3"/>
<path d="M163.909 332.865C164.69 331.195 166.675 330.472 168.344 331.249C170.013 332.026 170.737 334.011 169.96 335.68L107.223 470.5C106.444 472.17 104.46 472.894 102.79 472.117C101.12 471.339 100.396 469.354 101.173 467.684L163.909 332.865Z" fill="#00FFA3"/>
<path d="M308.088 332.865C307.311 331.195 305.326 330.472 303.657 331.249C301.988 332.026 301.264 334.011 302.041 335.68L364.778 470.5C365.555 472.17 367.54 472.894 369.209 472.117C370.883 471.339 371.606 469.354 370.829 467.684L308.088 332.865Z" fill="#00FFA3"/>
<path fill-rule="evenodd" clip-rule="evenodd" d="M234.581 64.9216C232.75 64.9216 231.262 63.433 231.262 61.6021V45.6083C231.262 43.7773 232.75 42.2887 234.585 42.2887C236.416 42.2887 237.901 43.7773 237.901 45.6083V61.6021C237.901 63.433 236.416 64.9216 234.585 64.9216H234.581Z" fill="#FEFEFE"/>
<path fill-rule="evenodd" clip-rule="evenodd" d="M282.255 171.87C280.424 171.866 278.939 170.382 278.939 168.547C278.939 167.854 279.159 167.177 279.562 166.612C286.055 157.534 289.544 146.645 289.544 135.478C289.544 105.918 265.569 81.9424 236.008 81.9424C206.444 81.9424 182.469 105.918 182.469 135.478C182.469 146.645 185.957 157.534 192.45 166.612C192.943 167.208 193.212 167.958 193.212 168.731C193.212 170.562 191.727 172.047 189.892 172.047C188.746 172.047 187.677 171.455 187.073 170.482C179.776 160.273 175.845 148.026 175.845 135.478C175.845 102.248 202.794 75.2995 236.024 75.2995C269.254 75.2995 296.202 102.248 296.202 135.478C296.202 148.026 292.271 160.273 284.975 170.478C284.351 171.351 283.347 171.87 282.274 171.87C282.27 171.87 282.263 171.87 282.255 171.87Z" fill="#FEFEFE"/>
<path fill-rule="evenodd" clip-rule="evenodd" d="M197.82 75.5303H197.816C196.631 75.5303 195.535 74.8957 194.943 73.8725L186.946 60.025C186.661 59.525 186.511 58.9557 186.511 58.3826C186.511 56.5516 188 55.063 189.835 55.063C191.012 55.063 192.1 55.6862 192.696 56.7055L200.686 70.5491C200.974 71.0568 201.128 71.63 201.128 72.2108C201.128 74.0417 199.643 75.5303 197.812 75.5303H197.82Z" fill="#FEFEFE"/>
<path fill-rule="evenodd" clip-rule="evenodd" d="M171.279 103.106C171.275 103.106 171.271 103.106 171.267 103.106C170.691 103.106 170.121 102.952 169.621 102.664L155.774 94.6706C154.746 94.0782 154.113 92.9781 154.113 91.7934C154.113 89.9586 155.6 88.47 157.434 88.47C158.017 88.47 158.589 88.6238 159.093 88.9162L172.945 96.9093C173.972 97.5055 174.602 98.5979 174.602 99.7864C174.602 101.617 173.118 103.106 171.283 103.106H171.279Z" fill="#FEFEFE"/>
<path fill-rule="evenodd" clip-rule="evenodd" d="M162.094 140.252H146.1C144.267 140.252 142.78 138.767 142.78 136.932C142.78 135.101 144.267 133.613 146.1 133.613H162.094C163.924 133.613 165.413 135.101 165.413 136.932C165.413 138.767 163.924 140.252 162.094 140.252Z" fill="#FEFEFE"/>
<path fill-rule="evenodd" clip-rule="evenodd" d="M325.913 137.413H309.908C308.073 137.413 306.588 135.925 306.588 134.09C306.588 132.259 308.073 130.774 309.908 130.774H325.901C327.736 130.774 329.221 132.259 329.221 134.09C329.221 135.925 327.736 137.413 325.901 137.413H325.913Z" fill="#FEFEFE"/>
<path fill-rule="evenodd" clip-rule="evenodd" d="M299.311 100.644C297.476 100.644 295.991 99.1595 295.991 97.3247C295.991 96.14 296.622 95.0437 297.649 94.4514L311.5 86.4544C312.004 86.1621 312.577 86.0082 313.158 86.0082C314.993 86.0082 316.481 87.4968 316.481 89.3278C316.481 90.5164 315.847 91.6126 314.82 92.205L300.968 100.198C300.468 100.49 299.895 100.644 299.314 100.644H299.311Z" fill="#FEFEFE"/>
<path fill-rule="evenodd" clip-rule="evenodd" d="M271.727 74.1264C269.896 74.1264 268.407 72.6416 268.407 70.8068C268.407 70.2222 268.561 69.649 268.854 69.1451L276.851 55.3015C277.439 54.263 278.543 53.6206 279.735 53.6206C281.57 53.6206 283.055 55.1092 283.055 56.9401C283.055 57.5325 282.897 58.1095 282.601 58.6211L274.612 72.4647C274.016 73.4917 272.919 74.1264 271.735 74.1264C271.735 74.1264 271.731 74.1264 271.727 74.1264Z" fill="#FEFEFE"/>
<path d="M232.977 358.137C232.977 356.45 234.316 353.426 236.001 353.244C237.685 353.426 239.024 356.45 239.024 358.137C239.074 362.076 240.674 364.514 243.186 367.026L250.86 374.699C251.848 375.69 253.514 379.057 252.51 380.058C251.51 381.06 248.225 379.317 247.232 378.325L243.617 374.87C240.44 371.692 238.924 372.709 239.024 375.96V378.19C239.074 382.128 240.674 384.567 243.186 387.078L255.953 399.845C256.945 400.836 258.607 404.202 257.603 405.204C256.603 406.205 253.318 404.462 252.325 403.471L243.617 394.922C240.44 391.744 238.924 392.762 239.024 396.014V397.128C239.074 401.067 240.674 403.505 243.186 406.017L256.906 419.579C257.899 420.57 259.561 423.936 258.557 424.938C257.557 425.939 254.272 424.197 253.279 423.205L243.617 413.861C240.44 410.683 238.924 411.7 239.024 414.952V419.409C239.074 423.347 240.674 425.786 243.186 428.297L251.552 436.329C252.545 437.321 254.206 440.687 253.206 441.688C252.202 442.69 248.917 440.947 247.925 439.956L243.617 436.142C240.44 432.964 238.924 433.981 239.024 437.232C238.451 470.26 232.277 461.904 232.977 437.232C233.077 433.981 231.562 432.964 228.385 436.142L223.611 440.265C222.619 441.257 219.334 442.999 218.334 441.998C217.33 440.997 218.995 437.63 219.984 436.639L228.815 428.297C231.327 425.786 232.927 423.347 232.977 419.409V414.952C233.077 411.7 231.562 410.683 228.385 413.861L218.722 423.205C217.73 424.197 214.445 425.939 213.441 424.938C212.441 423.936 214.102 420.57 215.095 419.579L228.815 406.017C231.327 403.505 232.927 401.067 232.977 397.128V396.014C233.077 392.762 231.562 391.744 228.385 394.922L219.676 403.471C218.684 404.462 215.399 406.205 214.399 405.204C213.395 404.202 215.056 400.836 216.049 399.845L228.815 387.078C231.327 384.567 232.927 382.128 232.977 378.19V375.96C233.077 372.709 231.562 371.692 228.385 374.87L224.769 378.325C223.776 379.317 220.491 381.06 219.491 380.058C218.487 379.057 220.153 375.69 221.142 374.699L228.815 367.026C231.327 364.514 232.927 362.076 232.977 358.137Z" fill="#FEFEFE"/>
<path d="M183.642 399.319C183.642 397.5 185.088 394.239 186.903 394.042C186.915 394.045 186.93 394.047 186.946 394.048C186.957 394.047 186.973 394.045 186.988 394.042C188.804 394.239 190.25 397.5 190.25 399.319C190.304 403.567 192.027 406.196 194.735 408.904L198.131 412.425C199.201 413.493 200.993 417.124 199.912 418.204C198.832 419.283 195.289 417.405 194.22 416.335C193.4 415.713 190.119 412.406 190.25 418.541V420.944C190.304 425.191 192.027 427.821 194.735 430.53L201.62 437.373C202.69 438.441 204.482 442.071 203.401 443.152C202.32 444.231 198.778 442.352 197.708 441.283L195.2 438.988C191.773 435.561 190.138 436.658 190.25 440.166C190.085 467.232 183.422 463.197 183.642 440.166C183.749 436.658 182.118 435.561 178.687 438.988L176.183 441.283C175.114 442.352 171.567 444.231 170.487 443.152C169.41 442.071 171.202 438.441 172.271 437.373L179.157 430.53C181.865 427.821 183.588 425.191 183.642 420.944V418.541C183.769 412.406 180.487 415.713 179.672 416.335C178.603 417.405 175.06 419.283 173.979 418.204C172.898 417.124 174.691 413.493 175.76 412.425L179.157 408.904C181.865 406.196 183.588 403.567 183.642 399.319Z" fill="#FEFEFE"/>
<path d="M281.751 399.319C281.751 397.5 283.198 394.239 285.013 394.042C285.028 394.045 285.044 394.047 285.055 394.048C285.071 394.047 285.086 394.045 285.098 394.042C286.913 394.239 288.36 397.5 288.36 399.319C288.413 403.567 290.137 406.196 292.848 408.904L296.241 412.425C297.31 413.493 299.103 417.124 298.022 418.204C296.941 419.283 293.399 417.405 292.329 416.335C291.514 415.713 288.233 412.406 288.36 418.541V420.944C288.413 425.191 290.137 427.821 292.848 430.53L299.73 437.373C300.799 438.441 302.592 442.071 301.515 443.152C300.434 444.231 296.887 442.352 295.822 441.283L293.314 438.988C289.883 435.561 288.252 436.658 288.36 440.166C288.198 467.232 281.532 463.197 281.751 440.166C281.863 436.658 280.228 435.561 276.801 438.988L274.293 441.283C273.224 442.352 269.681 444.231 268.6 443.152C267.519 442.071 269.312 438.441 270.381 437.373L277.266 430.53C279.974 427.821 281.697 425.191 281.751 420.944V418.541C281.882 412.406 278.601 415.713 277.782 416.335C276.712 417.405 273.17 419.283 272.089 418.204C271.008 417.124 272.804 413.493 273.87 412.425L277.266 408.904C279.974 406.196 281.697 403.567 281.751 399.319Z" fill="#FEFEFE"/>
<path d="M323.124 446.675C323.124 445.148 324.228 441.65 325.755 441.65C327.282 441.65 328.656 445.148 328.656 446.675V464.647C328.656 466.174 327.417 469.002 325.89 469.002C324.363 469.002 323.124 466.174 323.124 464.647V446.675Z" fill="#FEFEFE"/>
<path d="M338.699 455.047C339.464 453.725 341.961 451.561 343.284 452.325C344.607 453.088 344.253 456.49 343.488 457.813L338.51 466.432C337.749 467.755 335.264 469.585 333.941 468.821C332.617 468.058 332.96 464.99 333.721 463.667L338.699 455.047Z" fill="#FEFEFE"/>
<path d="M312.369 464.828C311.619 463.498 311.366 460.95 312.696 460.2C314.027 459.45 316.435 460.782 317.185 462.112L318.07 463.678C318.82 465.007 319.132 468.079 317.801 468.829C316.47 469.579 314.004 467.724 313.254 466.393L312.369 464.828Z" fill="#FEFEFE"/>
<path d="M148.877 446.675C148.877 445.148 147.774 441.65 146.247 441.65C144.72 441.65 143.347 445.148 143.347 446.675V464.647C143.347 466.174 144.584 469.002 146.112 469.002C147.638 469.002 148.877 466.174 148.877 464.647V446.675Z" fill="#FEFEFE"/>
<path d="M133.301 455.047C132.538 453.725 130.04 451.561 128.718 452.325C127.396 453.088 127.748 456.49 128.512 457.813L133.489 466.432C134.253 467.755 136.739 469.585 138.061 468.821C139.383 468.058 139.042 464.99 138.278 463.667L133.301 455.047Z" fill="#FEFEFE"/>
<path d="M159.632 464.828C160.382 463.498 160.636 460.95 159.305 460.2C157.975 459.45 155.564 460.782 154.814 462.112L153.932 463.678C153.182 465.007 152.871 468.079 154.202 468.829C155.531 469.579 157.998 467.724 158.748 466.393L159.632 464.828Z" fill="#FEFEFE"/>
<path d="M236.001 3.05176e-05C301.168 3.05176e-05 360.17 26.4179 402.878 69.1258C445.586 111.834 472 170.832 472 236.002C472 301.171 445.586 360.171 402.878 402.879C391.681 414.075 379.364 424.148 366.113 432.922L362.813 426.14C375.333 417.772 386.984 408.204 397.593 397.594C438.947 356.239 464.526 299.107 464.526 236.002C464.526 172.897 438.947 115.765 397.593 74.411C356.239 33.0532 299.107 7.47766 236.001 7.47766C172.895 7.47766 115.763 33.0532 74.4083 74.411C33.0535 115.765 7.47534 172.897 7.47534 236.002C7.47534 299.107 33.0535 356.239 74.4083 397.594C85.0181 408.204 96.6689 417.772 109.19 426.14L105.887 432.922C92.6354 424.148 80.3184 414.075 69.1231 402.879C26.4152 360.171 0 301.171 0 236.002C0 170.832 26.4152 111.834 69.1231 69.1258C111.831 26.4179 170.833 3.05176e-05 236.001 3.05176e-05Z" fill="#FEFEFE"/>
<path fill-rule="evenodd" clip-rule="evenodd" d="M93.4388 176.391C100.221 176.391 105.719 181.889 105.719 188.671C105.719 195.454 100.221 200.952 93.4388 200.952C86.6567 200.952 81.1584 195.454 81.1584 188.671C81.1584 181.889 86.6567 176.391 93.4388 176.391Z" fill="#FEFEFE"/>
<path fill-rule="evenodd" clip-rule="evenodd" d="M38.1763 237.794C40.093 237.794 41.647 239.348 41.647 241.264C41.647 243.181 40.093 244.735 38.1763 244.735C36.2596 244.735 34.7059 243.181 34.7059 241.264C34.7059 239.348 36.2596 237.794 38.1763 237.794Z" fill="#FEFEFE"/>
<path fill-rule="evenodd" clip-rule="evenodd" d="M82.4933 326.427C86.4741 326.427 89.7013 329.655 89.7013 333.636C89.7013 337.617 86.4741 340.844 82.4933 340.844C78.5125 340.844 75.2849 337.617 75.2849 333.636C75.2849 329.655 78.5125 326.427 82.4933 326.427Z" fill="#FEFEFE"/>
<path fill-rule="evenodd" clip-rule="evenodd" d="M127.611 346.717C128.791 346.717 129.747 347.673 129.747 348.852C129.747 350.032 128.791 350.988 127.611 350.988C126.432 350.988 125.476 350.032 125.476 348.852C125.476 347.673 126.432 346.717 127.611 346.717Z" fill="#FEFEFE"/>
<path fill-rule="evenodd" clip-rule="evenodd" d="M103.317 372.346C105.529 372.346 107.322 374.139 107.322 376.35C107.322 378.562 105.529 380.355 103.317 380.355C101.105 380.355 99.3127 378.562 99.3127 376.35C99.3127 374.139 101.105 372.346 103.317 372.346Z" fill="#FEFEFE"/>
<path fill-rule="evenodd" clip-rule="evenodd" d="M94.7739 103.241C96.9853 103.241 98.7781 105.033 98.7781 107.245C98.7781 109.457 96.9853 111.249 94.7739 111.249C92.5622 111.249 90.7693 109.457 90.7693 107.245C90.7693 105.033 92.5622 103.241 94.7739 103.241Z" fill="#FEFEFE"/>
<path fill-rule="evenodd" clip-rule="evenodd" d="M378.564 176.391C371.779 176.391 366.282 181.889 366.282 188.671C366.282 195.454 371.779 200.952 378.564 200.952C385.346 200.952 390.842 195.454 390.842 188.671C390.842 181.889 385.346 176.391 378.564 176.391Z" fill="#FEFEFE"/>
<path fill-rule="evenodd" clip-rule="evenodd" d="M433.823 237.794C431.908 237.794 430.354 239.348 430.354 241.264C430.354 243.181 431.908 244.735 433.823 244.735C435.743 244.735 437.296 243.181 437.296 241.264C437.296 239.348 435.743 237.794 433.823 237.794Z" fill="#FEFEFE"/>
<path fill-rule="evenodd" clip-rule="evenodd" d="M389.508 326.427C385.526 326.427 382.299 329.655 382.299 333.636C382.299 337.617 385.526 340.844 389.508 340.844C393.489 340.844 396.716 337.617 396.716 333.636C396.716 329.655 393.489 326.427 389.508 326.427Z" fill="#FEFEFE"/>
<path fill-rule="evenodd" clip-rule="evenodd" d="M344.392 346.717C343.211 346.717 342.253 347.673 342.253 348.852C342.253 350.032 343.211 350.988 344.392 350.988C345.569 350.988 346.527 350.032 346.527 348.852C346.527 347.673 345.569 346.717 344.392 346.717Z" fill="#FEFEFE"/>
<path fill-rule="evenodd" clip-rule="evenodd" d="M368.687 372.346C366.475 372.346 364.678 374.139 364.678 376.35C364.678 378.562 366.475 380.355 368.687 380.355C370.894 380.355 372.691 378.562 372.691 376.35C372.691 374.139 370.894 372.346 368.687 372.346Z" fill="#FEFEFE"/>
<path fill-rule="evenodd" clip-rule="evenodd" d="M377.226 103.241C375.018 103.241 373.221 105.033 373.221 107.245C373.221 109.457 375.018 111.249 377.226 111.249C379.437 111.249 381.234 109.457 381.234 107.245C381.234 105.033 379.437 103.241 377.226 103.241Z" fill="#FEFEFE"/>
</svg>
