<svg width="29" height="22" viewBox="0 0 29 22" fill="none" xmlns="http://www.w3.org/2000/svg">
<path fill-rule="evenodd" clip-rule="evenodd" d="M0.87868 0.87868C0 1.75736 0 3.17157 0 6V16C0 18.8284 0 20.2426 0.87868 21.1213C1.75736 22 3.17157 22 6 22H22.2857C25.1141 22 26.5284 22 27.407 21.1213C28.2857 20.2426 28.2857 18.8284 28.2857 16V6C28.2857 3.17157 28.2857 1.75736 27.407 0.87868C26.5284 0 25.1141 0 22.2857 0H6C3.17157 0 1.75736 0 0.87868 0.87868ZM5.26904 5.45367C4.80951 5.14732 4.18865 5.27149 3.88229 5.73102C3.57594 6.19055 3.70011 6.81142 4.15964 7.11777L13.0335 13.0337C13.7053 13.4816 14.5805 13.4816 15.2523 13.0337L24.1262 7.11777C24.5857 6.81142 24.7099 6.19055 24.4035 5.73102C24.0972 5.27149 23.4763 5.14732 23.0168 5.45367L14.1429 11.3696L5.26904 5.45367Z" fill="#00FFA3"/>
</svg>
