<svg width="683" height="683" viewBox="0 0 683 683" fill="none" xmlns="http://www.w3.org/2000/svg">
<g clip-path="url(#clip0_352_1099)">
<path d="M463.999 1.33336C452.399 2.93336 434.133 8.40002 423.066 13.3334C403.866 22 382.133 39.6 368.799 57.2L363.466 64.2667L355.999 63.4667C301.733 57.3334 259.199 61.3334 212.533 76.6667C175.066 88.9334 165.733 96 173.466 105.867C177.333 110.8 181.599 110.4 198.399 103.2C238.266 86.1334 287.866 78 331.199 81.3334C342.266 82.1334 351.466 83.0667 351.733 83.3334C351.999 83.6 350.399 89.0667 348.133 95.6C338.133 124.933 337.466 156.133 346.399 184.933L348.933 192.933L339.733 207.467C334.799 215.467 329.733 224.533 328.533 227.6L326.266 233.333L301.466 232.667C227.333 230.667 221.466 230.667 218.133 232.133C214.266 234 211.333 240 212.666 244C214.533 250 216.666 250.267 266.666 251.2C316.266 252.133 325.999 252.933 338.266 257.467C347.866 261.2 354.533 267.333 363.466 280.8C371.999 293.733 381.066 302.4 392.133 307.867C399.866 311.733 406.799 313.6 430.666 318C462.533 323.867 480.266 342.533 488.799 379.333C492.933 396.667 493.199 397.467 497.733 400C502.266 402.533 507.999 400.533 510.399 395.6C513.733 388.667 505.599 359.067 495.199 340.267C489.066 329.333 471.199 311.2 462.266 306.8C458.666 305.067 455.999 303.6 456.266 303.333C456.533 303.2 463.866 298.933 472.666 294C498.399 279.467 521.599 263.333 550.933 239.733C558.133 234 564.266 229.333 564.666 229.333C566.533 229.333 581.999 264.133 587.333 280.4C597.599 311.733 601.733 338.133 601.599 372C601.599 399.867 599.466 417.2 593.066 442C587.333 464.4 587.333 464.133 590.666 468.4C594.399 473.067 600.933 473.333 604.933 469.067C610.799 462.8 618.933 423.733 621.333 390.933C625.466 335.467 611.866 272.933 585.333 224.533L580.133 215.2L596.133 199.2C637.599 158.133 666.133 120.133 677.199 91.3334C681.066 81.2 681.866 77.6 681.866 68C681.999 53.6 680.933 51.6 661.066 28C641.333 4.53336 639.333 3.33336 618.666 3.46669C601.066 3.46669 593.599 5.20002 570.666 14.2667L555.466 20.2667L547.999 16.2667C538.666 11.2 523.466 5.73336 511.333 3.20002C499.733 0.666691 475.466 -0.266642 463.999 1.33336ZM512.266 23.8667C528.533 28.1334 549.999 38.9334 559.599 47.8667L562.533 50.6667L559.866 57.0667C547.066 86.8 515.733 126.267 484.666 151.333C455.333 175.067 421.066 193.333 388.266 202.4C377.066 205.6 376.799 205.467 371.599 194.4C362.666 175.333 359.333 158.4 360.399 136.667C361.866 107.067 373.333 80.8 394.133 58.6667C412.933 38.8 437.866 25.6 464.666 21.3334C476.399 19.6 500.399 20.8 512.266 23.8667ZM633.466 26.5334C641.466 36.4 630.933 64.8 607.199 96.9334L597.199 110.533L587.599 106C582.266 103.467 574.399 100.533 570.133 99.3334C565.866 98.2667 561.999 97.0667 561.599 96.8C561.333 96.4 563.199 92.6667 565.733 88.4C573.066 76.2667 579.866 62 581.199 56C582.533 49.7334 581.066 42.6667 577.199 37.2L574.799 33.7334L587.066 29.6C604.533 23.6 608.666 22.8 620.399 23.0667C629.599 23.3334 631.199 23.7334 633.466 26.5334ZM659.199 57.0667C663.466 63.2 663.733 69.8667 660.133 80.1334C651.199 106.267 624.933 141.867 585.333 181.333C538.799 228 492.399 262.533 444.266 286.4L423.866 296.533L415.599 294.8C411.199 293.867 405.066 291.867 402.133 290.4L396.666 287.6L401.333 285.6C429.466 273.467 458.933 257.067 483.333 240.267C542.266 199.333 599.333 144.533 629.866 99.6C639.333 85.4667 649.333 66.8 651.999 57.6C652.933 54.5334 654.133 52 654.666 52C655.199 52 657.199 54.2667 659.199 57.0667ZM571.066 120.667C576.266 122.4 581.066 124.533 581.733 125.2C583.599 127.067 568.666 143.467 546.133 164.133L527.599 181.067L517.866 169.6L508.266 158L521.999 144C529.599 136.267 538.399 126.8 541.599 122.8L547.333 115.733L554.533 116.533C558.533 117.067 565.999 118.933 571.066 120.667ZM501.466 180.933C506.266 186.667 510.533 192 511.066 192.933C512.799 195.733 450.266 240.267 447.999 237.867C445.999 235.733 443.999 222.667 443.999 212.267V202L455.066 195.733C462.933 191.2 488.799 174.133 492.799 170.8C492.799 170.667 496.799 175.333 501.466 180.933ZM424.399 222.267C424.799 228 426.399 236.4 427.733 240.933L430.399 249.333L424.399 252.667C413.199 258.8 385.599 270.667 382.266 270.667C381.333 270.667 378.933 268 376.933 264.8C371.999 256.933 359.466 245.467 351.599 241.6L345.333 238.533L348.933 231.6C350.799 227.867 353.866 222.4 355.599 219.6L358.933 214.4L362.399 217.733C371.733 226.4 379.466 226.533 403.333 218.4C412.933 215.067 421.333 212.267 422.133 212.267C423.066 212.133 423.866 216 424.399 222.267Z" fill="white"/>
<path d="M510.133 45.4666C503.6 50.6666 505.6 57.3333 517.2 69.6C522.667 75.4666 528.933 76.4 533.333 72C537.867 67.4666 536.8 62.4 529.333 53.4666C519.733 42 516.4 40.5333 510.133 45.4666Z" fill="#00FFA3"/>
<path d="M451.873 140.259C453.34 138.793 454.807 135.326 455.207 132.526C457.073 121.193 464.94 114.659 476.54 114.659C484.273 114.659 488.54 111.326 488.54 105.326C488.54 102.126 487.607 99.9927 484.94 97.7261C477.873 91.5927 459.74 95.0594 448.407 104.659C437.873 113.859 432.007 133.193 438.007 139.859C441.207 143.459 448.54 143.593 451.873 140.259Z" fill="#00FFA3"/>
<path d="M382.133 152.133C376.266 156.667 377.333 162.4 385.733 172.267C391.733 179.333 393.599 180.667 397.733 181.067C403.599 181.6 407.999 177.733 407.999 172.133C407.999 165.733 393.599 149.333 387.999 149.333C386.666 149.333 384.133 150.533 382.133 152.133Z" fill="#00FFA3"/>
<path d="M133.866 115.867C74.2662 155.867 28.3996 221.867 9.99955 294C2.66622 322.667 0.799549 338.267 0.799549 371.333C0.666216 403.067 2.53288 419.067 8.79955 445.2C35.8662 556 123.2 644.533 233.2 672.667C308 691.733 388.266 682.133 456.933 646C491.733 627.6 524.133 601.333 550.133 570.267C568.8 548 592 510 592 501.733C592 494 584.266 489.6 577.333 493.333C576 494 571.6 500.933 567.466 508.667C559.733 523.333 551.066 536.8 541.066 549.6L535.2 557.2L529.2 553.2C519.333 546.667 509.866 543.733 495.866 543.067C481.066 542.267 472.266 543.867 460.8 549.333C431.866 563.2 415.6 598.133 423.733 629.067L426.266 638.8L421.466 640.8C411.6 645.067 385.466 653.2 372.666 656C255.866 681.467 134.533 631.6 67.3329 530.667C39.4662 488.933 22.9329 437.6 20.5329 385.067L19.5996 366.267L25.5996 369.867C43.7329 380.533 69.7329 384.133 90.6662 378.8C108.533 374.4 120.133 367.867 133.466 354.667C151.2 337.333 158.4 321.067 159.6 296.533C161.066 268.133 153.2 247.6 133.466 227.867C119.466 213.867 105.866 206.4 87.5996 202.933C81.1996 201.733 76.1329 200.267 76.3996 199.733C76.5329 199.2 80.3996 194 85.0662 188.133C96.5329 173.6 121.2 150 136.933 138.533C152.133 127.467 154.666 124.8 154.666 120.4C154.666 116.267 149.066 110.667 144.933 110.667C143.066 110.667 138.133 113.067 133.866 115.867ZM87.8662 223.333C112.133 229.733 133.066 250.933 138.533 274.667C140.533 283.467 140.266 300.933 138 310C133.2 328.267 118.8 345.333 101.333 353.733C76.9329 365.333 51.7329 363.6 30.2662 348.667L21.9995 343.067L22.3995 336.533C23.0662 325.333 29.1996 297.6 34.6662 280.8C40.3996 263.467 48.6662 244.267 56.5329 230.133L61.4662 221.333H71.0662C76.3996 221.333 83.8662 222.267 87.8662 223.333ZM512.933 567.067C516.666 569.067 520.133 571.2 520.533 571.867C521.466 573.333 502.666 591.2 489.333 601.333C473.866 613.067 448.133 629.333 444.8 629.333C443.066 629.333 441.066 614.8 441.866 607.6C443.866 588.667 455.333 573.2 473.2 565.733C479.6 563.067 482.4 562.667 493.333 563.067C503.866 563.467 507.2 564.133 512.933 567.067Z" fill="white"/>
<path d="M253.466 144.8C251.866 146.8 250.666 149.2 250.666 150.133C250.666 153.067 272.799 196.533 275.333 198.667C280.933 203.333 290.666 198.667 290.666 191.2C290.666 186.8 268.666 143.2 265.999 142.133C261.066 140.267 256.133 141.333 253.466 144.8Z" fill="white"/>
<path d="M165.067 152.533C163.733 153.467 162.267 155.733 161.6 157.467C158.933 164.4 161.333 166.667 195.067 189.2C212.8 200.933 228.667 210.667 230.267 210.667C235.067 210.667 237.6 209.067 239.333 204.933C242.533 197.2 240.933 195.467 205.867 172.267C187.867 160.4 171.867 150.667 170.267 150.667C168.667 150.667 166.267 151.6 165.067 152.533Z" fill="white"/>
<path d="M540.666 293.467C529.732 294.667 519.066 295.867 517.199 295.867C508.932 296.133 504.799 307.6 510.932 313.333C514.399 316.533 513.732 316.533 542.666 313.333C564.666 310.933 566.132 310.533 569.066 307.333C570.666 305.467 571.999 302.533 571.999 300.8C571.999 297.867 567.599 292 565.332 292C564.799 292 563.466 291.733 562.399 291.467C561.466 291.2 551.732 292.133 540.666 293.467Z" fill="white"/>
<path d="M525.066 334.267C522 337.867 521.333 341.067 522.666 344.667C524.533 349.6 567.466 381.333 572.266 381.333C581.066 381.333 584.533 370.133 577.733 363.733C575.6 361.867 565.466 354 555.066 346.133C539.733 334.667 535.2 332 531.6 332C528.933 332 526.266 332.933 525.066 334.267Z" fill="white"/>
<path d="M385.467 374.133C377.067 377.2 370.8 381.333 364.267 388.533C341.6 413.2 350 452.4 381.067 467.067C388.933 470.8 391.333 471.333 401.467 471.333C411.867 471.333 413.6 470.933 422.933 466.267C447.867 454 458 426 446.8 400.667C443.067 392.133 431.733 380.667 422.8 376.4C413.333 371.867 394.8 370.667 385.467 374.133ZM413.067 394.133C423.867 398.533 431.067 409.333 431.2 421.333C431.467 444.8 406.267 459.333 386 447.467C365.333 435.333 367.333 403.6 389.333 394.133C395.467 391.467 406.8 391.467 413.067 394.133Z" fill="white"/>
<path d="M231.999 442.267C210.266 444.667 188.666 460.133 178.666 480.533C170.533 496.933 168.799 511.067 172.666 527.733C183.333 573.067 233.333 595.2 275.066 573.067C285.066 567.6 298.666 553.333 303.733 542.4C316.933 514.667 310.799 482.133 288.266 460.533C280.266 452.8 263.199 444.4 251.999 442.667C243.333 441.333 240.799 441.333 231.999 442.267ZM259.199 465.467C269.733 469.333 281.199 480.133 286.133 490.933C289.599 498.4 289.999 500.8 289.999 512C289.999 522.933 289.466 525.733 286.399 532.267C273.866 559.2 243.066 569.6 216.933 555.6C207.599 550.667 199.599 542 194.933 532C191.999 525.733 191.466 522.667 191.466 512C191.333 500.267 191.733 498.533 195.733 490.4C207.466 466.4 233.999 456 259.199 465.467Z" fill="white"/>
</g>
<defs>
<clipPath id="clip0_352_1099">
<rect width="682.667" height="682.667" fill="white"/>
</clipPath>
</defs>
</svg>
