<svg width="683" height="683" viewBox="0 0 683 683" fill="none" xmlns="http://www.w3.org/2000/svg">
<g clip-path="url(#clip0_352_1088)">
<path d="M322 1.46667C304.8 3.8667 284.4 11.8667 268 22.4C263.734 25.2 233.867 53.7333 197.067 90.5334C139.2 148.133 133.334 154.267 133.334 158.267C133.334 163.733 137.734 168 143.2 168C146.8 168 154.667 160.533 208.667 106.933C242.4 73.3334 272.534 43.8667 275.467 41.6C284 35.0667 300.267 27.2 312.4 23.8667C328 19.4667 354.667 19.4667 370 23.7333C384.134 27.8667 397.467 34.2667 408 42.4C421.334 52.6667 638.667 271.2 644.534 280.4C650.8 290.133 655.334 300.267 658.934 313.067C663.2 327.867 663.2 354.933 658.934 370C654.8 384.133 648.4 397.467 640.267 408C636.534 412.8 583.334 466.8 521.734 528.133C426 623.6 408.534 640.533 399.6 646C364.134 667.733 318.534 667.733 283.067 646C274.134 640.533 256.667 623.6 160.934 528.133C99.3337 466.8 46.1337 412.8 42.4004 408C34.2671 397.467 27.8671 384.133 23.7337 370C19.4671 354.933 19.4671 327.867 23.7337 313.067C27.3337 300.133 31.8671 290.133 38.1337 280.4C40.9337 276.133 61.0671 254.667 82.9337 232.533C117.2 198 122.667 192 122.667 188.533C122.667 183.067 118.267 178.667 112.934 178.667C108.934 178.667 104.667 182.667 67.8671 219.6C44.9337 242.8 24.9337 264 22.1337 268.4C-7.19962 313.467 -7.06628 368.8 22.4004 414.667C27.6004 422.8 248.934 645.6 261.734 655.467C279.467 669.333 303.734 679.067 327.6 681.733C360 685.333 395.6 675.333 420.934 655.467C434.134 645.333 655.067 422.8 660.534 414.267C668.267 402.267 675.734 385.6 678.934 372.533C683.2 355.6 683.2 327.067 678.934 310.133C675.734 297.067 668.267 280.4 660.534 268.4C654.4 258.933 431.467 34.9333 418.667 25.4667C391.867 5.60004 355.867 -3.33331 322 1.46667Z" fill="white"/>
<path d="M325.867 41.3334C316.267 43.0667 302.8 48.1334 293.734 53.4667C287.867 56.8 257.467 86.5334 172 172C48.267 295.6 51.7336 291.733 44.4003 314C41.6003 322.8 40.9336 327.333 40.8003 340C40.667 362.8 46.0003 379.6 59.067 396.667C62.4003 401.067 114.8 454.133 175.6 514.667C295.067 633.867 291.867 630.933 314 638.267C323.2 641.333 326.934 641.733 341.334 641.733C355.734 641.733 359.467 641.333 368.667 638.267C387.2 632.133 394.267 626.933 423.734 598C438.667 583.333 451.734 569.733 452.8 567.733C455.2 563.2 454 558 450.267 555.333C444 550.933 442.134 552.133 412.667 581.2C386.667 606.8 383.334 609.6 373.067 614.533C352.267 624.8 332 625.067 310.934 615.333C300.8 610.667 299.6 609.467 186.934 496.933C74.667 384.8 73.067 383.2 68.0003 372.667C57.6003 351.333 57.6003 330.933 68.1336 309.333L73.7336 298L179.867 191.6C238.267 133.067 290 81.8667 294.8 77.8667C318.534 58.4 346.267 55.0667 373.334 68.1334L384.667 73.6L496.8 185.867L609.067 298L614.534 309.333C625.067 331.2 625.067 351.6 614.534 373.333C608.934 384.533 608.134 385.467 537.067 456.8C489.2 504.933 465.334 529.733 465.334 531.6C465.334 536.667 470.4 541.333 475.734 541.333C480.534 541.333 483.6 538.4 552.667 469.067C630.667 390.8 631.2 390.133 638.267 368.667C641.334 359.467 641.734 355.733 641.734 341.333C641.734 326.933 641.334 323.2 638.267 314C630.934 291.733 634.267 295.6 510.667 172C386.934 48.2667 390.667 51.6 368.667 44.5334C356.667 40.8 337.2 39.3334 325.867 41.3334Z" fill="white"/>
<path d="M330 112.4C308 122.533 304.8 152.133 324.4 164.667L330.534 168.667L330.267 179.867L330 191.2L318.4 192.8C296.534 196 273.6 205.867 254.667 220.267C235.867 234.4 222.134 251.6 212.134 273.467L206.267 286.133L190.8 291.067C167.2 298.533 154.4 305.467 143.2 316.533C130.8 329.067 130.4 330.667 130.934 364.8L131.334 391.6L135.334 398.133C151.467 424.133 207.867 443.067 287.867 449.333C311.334 451.2 368.934 451.2 392.667 449.333C477.6 442.667 535.734 422.133 548.8 394.133C551.734 387.733 552 385.867 552 361.333C552 336.8 551.734 334.933 548.8 328.667C542.134 314.133 521.6 300.667 490.934 290.8L475.867 285.867L472.667 278.267C454.934 234.667 411.867 200 366.667 193.333C348.934 190.667 350.667 192 350.667 180.133V169.6L356.4 166.267C375.334 155.067 375.867 127.467 357.334 115.2C350.8 110.933 336.534 109.467 330 112.4ZM348 133.333C352 137.333 351.6 144.4 347.2 147.867C343.067 151.067 341.467 151.333 336.8 149.2C330.4 146.267 329.6 135.6 335.6 132.133C339.467 129.867 345.067 130.4 348 133.333ZM361.734 212.667C398.934 219.2 430.534 241.333 448.667 273.867C454 283.333 461.334 304.667 461.334 310.4C461.334 314.133 460.667 314.667 449.067 319.733C383.467 348.4 295.734 348.133 231.734 318.933C219.867 313.6 219.867 313.467 223.467 299.467C238.534 241.067 300.8 202 361.734 212.667ZM201.334 314C201.334 319.6 203.734 324.8 208.267 328.933C211.734 332.267 226.4 339.067 241.467 344.533L251.734 348.267L245.334 357.467C241.867 362.533 237.6 370 236 374C234.4 378 232.4 381.333 231.467 381.333C228 381.333 202.4 374.533 191.334 370.667C167.2 362.133 150.667 350.267 150.667 341.6C150.667 332.933 164.667 322.133 186.4 313.867C192.8 311.467 198.8 309.467 199.734 309.333C200.667 309.333 201.334 311.2 201.334 314ZM498.8 314.8C518.267 322.267 532 333.467 532 341.733C532 350.667 512 364 486 372.533C475.467 375.867 454.134 381.333 451.067 381.333C450.267 381.333 448.534 378.533 447.2 375.2C445.867 371.733 441.734 364.4 438 358.8L431.067 348.4L448.934 341.333C458.8 337.467 469.067 332.667 471.867 330.667C477.6 326.533 481.334 319.6 481.334 313.333C481.334 309.333 481.6 309.067 484.934 310C486.934 310.4 493.2 312.667 498.8 314.8ZM301.334 358.533C307.6 359.333 316.667 360.267 321.734 360.667L330.667 361.6V376.8V392.133L324.4 391.467C320.8 391.067 310.534 390.4 301.334 390C283.2 389.067 255.067 386.133 253.867 384.933C252.667 383.733 260.8 369.333 267.334 361.2L273.334 353.6L281.6 355.467C286.267 356.4 295.067 357.733 301.334 358.533ZM419.867 367.333C423.334 372.133 429.334 383.067 429.334 384.4C429.334 386.133 388.934 390.267 365.334 390.933L351.334 391.333L350.934 376.4L350.534 361.6L360.934 360.667C373.067 359.733 397.2 356.4 404 354.8C408.267 353.867 409.067 354.133 412.4 357.867C414.4 360.133 417.734 364.4 419.867 367.333ZM167.867 382.667C231.334 414.133 379.067 420.933 474 396.667C495.067 391.333 506.4 387.067 520.934 379.333L532 373.467V379.467C532 384.4 531.2 386.267 527.2 390.667C515.734 403.333 485.334 415.2 446 422.533C353.2 439.867 231.867 431.467 175.334 404C157.867 395.6 150.667 388.4 150.667 379.2V373.067L155.067 375.733C157.334 377.333 163.2 380.4 167.867 382.667Z" fill="white"/>
<path d="M250.8 279.467C248.533 282.4 248 284.933 248 294C248 307.467 250.133 311.2 258 311.2C265.867 311.2 268 307.467 268 294C268 280.667 265.467 276 258 276C254.8 276 252.8 276.933 250.8 279.467Z" fill="#00FFA3"/>
<path d="M417.6 279.067C415.067 281.733 414.667 283.733 414.667 293.6C414.667 307.6 416.8 311.2 424.667 311.2C432.534 311.2 434.667 307.467 434.667 294C434.667 284.933 434.134 282.4 431.867 279.467C428.267 274.933 421.6 274.667 417.6 279.067Z" fill="#00FFA3"/>
<path d="M315.334 292.267C307.734 296.4 307.334 303.2 314.134 309.867C328.667 324 351.067 324.933 365.734 312C369.067 309.067 372.267 305.333 372.667 303.867C374.134 299.6 370.934 293.733 366.401 292.133C362.134 290.667 358.934 291.867 352.001 297.333C344.801 303.067 336.401 302 325.467 294C320.401 290.267 319.201 290.133 315.334 292.267Z" fill="#00FFA3"/>
<path d="M278.933 472.933C278 473.333 269.2 483.2 259.333 494.933C239.6 518.267 238.267 521.067 244.667 527.333C251.333 534.133 254.533 531.867 275.733 506.533C288 491.6 293.333 484.267 293.333 481.867C293.333 475.467 285.2 470.4 278.933 472.933Z" fill="white"/>
<path d="M392.667 475.333C386.8 481.067 388 483.6 407.067 506.533C427.867 531.733 430.667 533.6 437.867 527.867C440.4 525.867 441.334 523.867 441.334 520.667C441.334 516.933 438.667 512.933 423.467 494.933C413.6 483.2 404.534 473.333 403.334 472.8C399.2 471.2 395.867 472 392.667 475.333Z" fill="white"/>
<path d="M335.467 482.8L332 485.467V515.333V545.2L335.467 547.867C340.133 551.467 343.067 551.333 347.6 547.467L351.333 544.267V515.333V486.4L347.6 483.2C343.067 479.333 340.133 479.2 335.467 482.8Z" fill="white"/>
</g>
<defs>
<clipPath id="clip0_352_1088">
<rect width="682.667" height="682.667" fill="white"/>
</clipPath>
</defs>
</svg>
