<svg width="680" height="76" viewBox="0 0 680 76" fill="none" xmlns="http://www.w3.org/2000/svg">
<path d="M679.836 75H650.637C649.725 73.3073 648.781 71.5169 647.805 69.6289C646.828 67.7083 645.884 65.7064 644.973 63.623C644.061 61.5397 643.199 59.3913 642.385 57.1777C641.604 54.9642 640.936 52.6855 640.383 50.3418H638.771V75H603.518V55.5176L609.377 54.3945V26.6113L603.518 25.4883V6.25H643.508C648.814 6.25 653.387 6.47786 657.229 6.93359C661.102 7.38932 664.374 8.05664 667.043 8.93555C669.745 9.81445 671.926 10.8887 673.586 12.1582C675.246 13.3952 676.532 14.8112 677.443 16.4062C678.387 17.9688 679.022 19.694 679.348 21.582C679.673 23.4701 679.836 25.472 679.836 27.5879C679.836 29.7363 679.624 31.6895 679.201 33.4473C678.811 35.2051 678.094 36.8164 677.053 38.2812C676.011 39.7461 674.579 41.097 672.756 42.334C670.965 43.5384 668.671 44.6777 665.871 45.752C666.457 46.9238 667.32 48.3236 668.459 49.9512C669.631 51.5462 670.9 53.1901 672.268 54.8828C673.635 56.543 674.986 58.1543 676.32 59.7168C677.688 61.2793 678.859 62.6139 679.836 63.7207V75ZM638.771 37.1094C640.562 37.1094 642.173 37.028 643.605 36.8652C645.07 36.6699 646.307 36.2793 647.316 35.6934C648.358 35.0749 649.156 34.1797 649.709 33.0078C650.262 31.8359 650.539 30.2572 650.539 28.2715C650.539 26.3184 650.262 24.7559 649.709 23.584C649.156 22.4121 648.358 21.5169 647.316 20.8984C646.307 20.2474 645.07 19.8242 643.605 19.6289C642.173 19.4336 640.562 19.3359 638.771 19.3359V37.1094Z" fill="white"/>
<path d="M570.07 75L567.629 63.4277H548.439L545.998 75H519.875V52.3438L525.539 51.2207L539.064 6.25H576.955L590.578 51.2207L596.193 52.3438V75H570.07ZM551.418 47.998H564.65L558.01 20.9961L551.418 47.998Z" fill="white"/>
<path d="M489.113 36.4746L502.639 33.5938V47.5098L489.113 44.5801V55.3711C491.066 55.3711 492.954 55.2409 494.777 54.9805C496.6 54.6875 498.293 54.2969 499.855 53.8086C501.418 53.3203 502.85 52.7507 504.152 52.0996C505.454 51.4486 506.577 50.7487 507.521 50H514.211V75H453.859V55.5176L459.719 54.3945V26.709L453.859 25.5859V6.25H514.211V31.25H507.521C506.577 30.5339 505.454 29.8503 504.152 29.1992C502.85 28.5482 501.418 27.9785 499.855 27.4902C498.293 27.002 496.6 26.6113 494.777 26.3184C492.954 26.0254 491.066 25.8789 489.113 25.8789V36.4746Z" fill="white"/>
<path d="M376.955 39.6973C376.955 33.5775 377.883 28.304 379.738 23.877C381.594 19.4173 384.23 15.7552 387.648 12.8906C391.066 9.99349 395.184 7.86133 400.002 6.49414C404.852 5.0944 410.256 4.39453 416.213 4.39453C419.826 4.39453 423.081 4.57357 425.979 4.93164C428.908 5.28971 431.529 5.74544 433.84 6.29883C436.184 6.85221 438.234 7.4707 439.992 8.1543C441.783 8.80534 443.361 9.4401 444.729 10.0586V31.2988H430.91C430.161 30.2246 429.413 29.2969 428.664 28.5156C427.948 27.7018 427.167 27.0508 426.32 26.5625C425.474 26.0417 424.53 25.651 423.488 25.3906C422.447 25.1302 421.226 25 419.826 25C418.133 25 416.473 25.2604 414.846 25.7812C413.251 26.2695 411.818 27.0996 410.549 28.2715C409.312 29.4108 408.303 30.9245 407.521 32.8125C406.773 34.668 406.398 36.9629 406.398 39.6973C406.398 42.8874 406.708 45.5078 407.326 47.5586C407.945 49.5768 408.84 51.1882 410.012 52.3926C411.184 53.5645 412.616 54.3783 414.309 54.834C416.034 55.2897 418.003 55.5176 420.217 55.5176C421.389 55.5176 422.593 55.4362 423.83 55.2734C425.1 55.1107 426.467 54.8014 427.932 54.3457V48.7793H418.117V36.7676H446.682V69.1895C444.273 70.1986 441.717 71.1426 439.016 72.0215C436.314 72.9004 433.596 73.6654 430.861 74.3164C428.16 74.9674 425.507 75.3906 422.902 75.5859C420.298 75.7812 417.889 75.8789 415.676 75.8789C410.24 75.8789 405.161 75.2279 400.441 73.9258C395.721 72.6237 391.62 70.459 388.137 67.4316C384.654 64.4043 381.919 60.5957 379.934 56.0059C377.948 51.3835 376.955 45.9473 376.955 39.6973Z" fill="white"/>
<path d="M307.668 38.4277V52.5879L313.918 53.7598V75H282.668V53.8086L288.918 52.5879V22.4121L282.668 21.1914V0H320.168L345.168 38.4277V22.5098L338.918 21.1914V0H370.168V21.1914L363.918 22.4121V52.5879L370.168 53.8086V75H332.619L307.668 38.4277Z" fill="white"/>
<path d="M247.219 56.25C249.432 56.25 251.516 56.071 253.469 55.7129C255.422 55.3223 257.212 54.834 258.84 54.248C260.5 53.6621 261.997 52.9948 263.332 52.2461C264.667 51.4974 265.839 50.7487 266.848 50H275.002V75H209.719V53.8086L215.969 52.5879V22.5098L209.719 21.2891V0H275.002V25H267.141C266.099 24.2839 264.895 23.5514 263.527 22.8027C262.16 22.054 260.63 21.3867 258.938 20.8008C257.277 20.1823 255.471 19.694 253.518 19.3359C251.564 18.9453 249.465 18.75 247.219 18.75V32.0801L261.867 28.9062V46.1914L247.219 43.0176V56.25Z" fill="white"/>
<path d="M156.008 0H199.758V21.1914L193.508 22.4121V52.5879L199.758 53.8086V75H156.008V53.8086L162.258 52.5879V22.4121L156.008 21.1914V0Z" fill="white"/>
<path d="M127.297 56.25C128.859 56.25 130.324 56.071 131.691 55.7129C133.059 55.3223 134.328 54.834 135.5 54.248C136.672 53.6621 137.73 52.9948 138.674 52.2461C139.65 51.4974 140.497 50.7487 141.213 50H149.367V75H89.7969V53.8086L96.0469 52.5879V22.4121L89.7969 21.1914V0H133.547V21.1914L127.297 22.4121V56.25Z" fill="white"/>
<path d="M54.2012 75L51.5645 62.4023H31.1543L28.5664 75H0.783203V50.3906L6.78906 49.1699L21.1934 0H61.5254L75.9785 49.1699L81.9844 50.3906V75H54.2012ZM35.3535 45.6543H47.3652L41.3594 17.3828L35.3535 45.6543Z" fill="white"/>
</svg>
