<svg width="356" height="125" viewBox="0 0 356 125" fill="none" xmlns="http://www.w3.org/2000/svg">
<path d="M155.291 1.48284C150.224 2.54951 145.157 3.08284 144.224 2.68284C143.291 2.28284 142.757 2.54951 143.157 3.21617C143.557 3.74951 141.291 5.08284 138.224 5.88284C135.157 6.81618 129.557 9.34951 125.824 11.4828C118.891 15.3495 107.957 25.2162 107.957 27.4828C107.957 28.1495 111.424 28.8162 115.691 28.9495C122.624 29.0828 122.757 29.2162 117.291 29.6162C100.624 30.9495 63.5575 37.3495 49.4241 41.4828L42.2241 43.4828L48.0908 49.6162C58.6241 60.5495 73.1575 69.8828 86.7575 74.6828C91.0241 76.2828 92.7575 76.1495 99.6908 74.0162C109.157 71.0828 130.091 67.8828 148.357 66.5495C160.891 65.6162 161.557 65.4828 160.891 62.8162C158.091 51.0828 155.957 38.1495 155.957 33.3495C155.957 28.4162 155.557 27.4828 153.024 26.9495C151.291 26.6828 162.891 26.4162 178.624 26.5495L207.291 26.6828L182.357 26.9495L157.291 27.3495V33.2162C157.291 39.7495 160.357 56.6828 162.357 62.1495L163.691 65.6162L191.557 66.4162C218.757 67.2162 240.357 69.6162 252.624 73.3495C258.224 74.9495 259.291 74.9495 265.024 72.4162C268.491 70.9495 275.157 67.0828 279.957 64.0162C289.157 58.1495 306.357 42.5495 305.024 41.3495C303.024 39.2162 261.157 32.0162 237.291 29.6162C233.957 29.2162 234.624 29.0828 239.691 28.9495C243.424 28.8162 246.624 28.1495 246.624 27.4828C246.624 24.6828 234.491 14.2828 226.491 10.2828C221.824 8.01617 213.157 4.81618 207.291 3.21617C193.691 -0.250496 168.491 -1.05049 155.291 1.48284ZM148.491 9.88284C145.424 11.3495 140.491 14.5495 137.557 17.2162C132.757 21.6162 125.291 23.8828 125.291 20.9495C125.291 19.3495 133.557 14.2828 141.957 10.8162C151.291 6.94951 156.624 6.28284 148.491 9.88284ZM142.357 28.2828C138.757 28.5495 133.157 28.5495 129.691 28.2828C126.091 28.0162 129.024 27.8828 135.957 27.8828C142.891 27.8828 145.824 28.0162 142.357 28.2828ZM223.024 28.2828C220.624 28.5495 216.624 28.5495 214.357 28.2828C211.957 28.0162 213.824 27.7495 218.624 27.7495C223.424 27.7495 225.291 28.0162 223.024 28.2828ZM231.557 28.1495C231.157 28.5495 229.957 28.6828 229.024 28.2828C227.957 27.8828 228.357 27.4828 229.824 27.4828C231.291 27.3495 232.091 27.7495 231.557 28.1495Z" fill="white"/>
<path d="M301.291 48.1495C292.758 56.9495 279.558 66.6828 269.691 71.6162L261.158 75.7495L265.424 77.7495C267.691 78.9495 270.358 81.2162 271.558 82.8162C273.291 85.4828 273.291 86.1495 271.424 89.0828C270.224 90.8162 269.691 92.6828 270.224 93.0828C270.624 93.6162 270.224 94.0162 269.158 94.0162C267.558 94.0162 262.358 99.4828 259.424 104.416C258.224 106.416 263.558 105.883 287.291 101.883C307.291 98.5495 307.424 98.4162 320.758 94.5495C343.424 88.0162 357.558 77.8828 355.424 69.6162C353.691 62.8162 352.758 62.6828 344.491 67.7495C329.824 76.5495 304.891 87.3495 303.158 85.7495C302.891 85.3495 307.158 83.3495 312.891 81.3495C325.024 77.0828 336.891 71.2162 345.158 65.6162L351.024 61.6162L347.824 58.9495C341.558 53.8828 313.958 42.0162 308.358 42.0162C307.691 42.0162 304.491 44.8162 301.291 48.1495ZM301.291 86.5495C301.291 87.4828 277.958 92.6828 274.491 92.5495C272.758 92.5495 276.491 91.3495 282.891 90.0162C289.291 88.6828 295.291 87.2162 296.224 86.9495C298.358 86.0162 301.291 85.8828 301.291 86.5495Z" fill="white"/>
<path d="M26.4909 49.2161C9.69089 56.4161 1.55755 62.5494 3.02422 66.4161C3.95755 68.9494 26.0909 79.6161 38.2242 83.4828C43.5576 85.0828 47.6909 86.8161 47.2909 87.0828C46.2242 88.1494 25.2909 80.4161 13.8242 74.6828C7.29089 71.3494 1.55755 68.6828 1.02422 68.6828C-0.842447 68.6828 -0.0424464 73.3494 2.49089 77.6161C6.22422 83.6161 23.5576 91.7494 43.0242 96.6828C57.1576 100.283 94.4909 106.549 95.5576 105.616C95.6909 105.349 94.0909 102.683 91.8242 99.7494C87.8242 94.5494 87.4242 94.4161 77.8242 93.6161C67.9576 92.6828 48.6242 88.8161 49.5576 87.8828C49.9576 87.6161 56.2242 88.5494 63.8242 90.0161C71.2909 91.4828 79.2909 92.6828 81.5576 92.6828C85.5576 92.6828 85.5576 92.6828 83.4242 89.3494C80.8909 85.4828 82.0909 81.7494 86.7576 79.2161C89.1576 78.0161 88.0909 77.0828 76.3576 71.3494C67.4242 66.9494 59.6909 61.7494 51.6909 54.8161C45.2909 49.2161 39.2909 44.6828 38.3576 44.6828C37.4242 44.6828 32.0909 46.6828 26.4909 49.2161Z" fill="white"/>
<path d="M144.624 68.1495C108.224 71.6161 87.4242 76.9495 83.8242 83.4828C82.7575 85.6161 84.2242 88.1495 92.2242 98.4161L101.957 110.949L104.224 108.016C109.557 101.216 131.557 94.8161 153.291 93.4828L164.624 92.8161L150.091 94.6828C131.557 97.2161 120.224 99.8828 112.624 103.483C101.024 108.949 101.424 114.949 113.691 120.816C123.024 125.216 126.624 125.883 123.957 122.683C118.091 115.616 142.357 109.616 177.291 109.749C205.557 109.749 222.757 112.549 229.424 117.883C232.091 120.016 232.224 120.683 230.757 122.549C227.957 125.883 231.291 125.349 240.891 120.816C250.091 116.416 252.091 113.216 248.757 107.616L246.491 104.016L249.424 107.616L252.357 111.083L262.091 98.9495C267.424 92.1495 271.824 86.1495 271.958 85.6161C272.091 82.8161 264.357 78.1495 255.691 75.6161C237.557 70.1495 221.291 68.5495 184.624 68.0161C165.557 67.7495 147.557 67.8828 144.624 68.1495ZM223.957 96.5495C234.891 99.0828 245.291 102.683 245.291 104.016C245.291 104.416 242.357 103.483 238.757 102.016C227.957 97.8828 211.157 95.0828 187.957 94.0161L165.957 92.9495L189.291 93.3495C206.491 93.7495 215.557 94.5495 223.957 96.5495Z" fill="white"/>
</svg>
