<svg width="169" height="50" viewBox="0 0 169 50" fill="none" xmlns="http://www.w3.org/2000/svg">
<path d="M67.9922 31L67.5703 28.9844H64.3047L63.8906 31H59.4453V27.0625L60.4062 26.8672L62.7109 19H69.1641L71.4766 26.8672L72.4375 27.0625V31H67.9922ZM64.9766 26.3047H66.8984L65.9375 21.7812L64.9766 26.3047ZM79.6875 28C79.9375 28 80.1719 27.9714 80.3906 27.9141C80.6094 27.8516 80.8125 27.7734 81 27.6797C81.1875 27.5859 81.3568 27.4792 81.5078 27.3594C81.6641 27.2396 81.7995 27.1198 81.9141 27H83.2188V31H73.6875V27.6094L74.6875 27.4141V22.5859L73.6875 22.3906V19H80.6875V22.3906L79.6875 22.5859V28ZM84.2812 19H91.2812V22.3906L90.2812 22.5859V27.4141L91.2812 27.6094V31H84.2812V27.6094L85.2812 27.4141V22.5859L84.2812 22.3906V19ZM98.875 28C99.2292 28 99.5625 27.9714 99.875 27.9141C100.188 27.8516 100.474 27.7734 100.734 27.6797C101 27.5859 101.24 27.4792 101.453 27.3594C101.667 27.2396 101.854 27.1198 102.016 27H103.32V31H92.875V27.6094L93.875 27.4141V22.6016L92.875 22.4062V19H103.32V23H102.062C101.896 22.8854 101.703 22.7682 101.484 22.6484C101.266 22.5286 101.021 22.4219 100.75 22.3281C100.484 22.2292 100.195 22.151 99.8828 22.0938C99.5703 22.0312 99.2344 22 98.875 22V24.1328L101.219 23.625V26.3906L98.875 25.8828V28ZM108.547 25.1484V27.4141L109.547 27.6016V31H104.547V27.6094L105.547 27.4141V22.5859L104.547 22.3906V19H110.547L114.547 25.1484V22.6016L113.547 22.3906V19H118.547V22.3906L117.547 22.5859V27.4141L118.547 27.6094V31H112.539L108.547 25.1484ZM119.633 25.3516C119.633 24.3724 119.781 23.5286 120.078 22.8203C120.375 22.1068 120.797 21.5208 121.344 21.0625C121.891 20.599 122.549 20.2578 123.32 20.0391C124.096 19.8151 124.961 19.7031 125.914 19.7031C126.492 19.7031 127.013 19.7318 127.477 19.7891C127.945 19.8464 128.365 19.9193 128.734 20.0078C129.109 20.0964 129.438 20.1953 129.719 20.3047C130.005 20.4089 130.258 20.5104 130.477 20.6094V24.0078H128.266C128.146 23.8359 128.026 23.6875 127.906 23.5625C127.792 23.4323 127.667 23.3281 127.531 23.25C127.396 23.1667 127.245 23.1042 127.078 23.0625C126.911 23.0208 126.716 23 126.492 23C126.221 23 125.956 23.0417 125.695 23.125C125.44 23.2031 125.211 23.3359 125.008 23.5234C124.81 23.7057 124.648 23.9479 124.523 24.25C124.404 24.5469 124.344 24.9141 124.344 25.3516C124.344 25.862 124.393 26.2812 124.492 26.6094C124.591 26.9323 124.734 27.1901 124.922 27.3828C125.109 27.5703 125.339 27.7005 125.609 27.7734C125.885 27.8464 126.201 27.8828 126.555 27.8828C126.742 27.8828 126.935 27.8698 127.133 27.8438C127.336 27.8177 127.555 27.7682 127.789 27.6953V26.8047H126.219V24.8828H130.789V30.0703C130.404 30.2318 129.995 30.3828 129.562 30.5234C129.13 30.6641 128.695 30.7865 128.258 30.8906C127.826 30.9948 127.401 31.0625 126.984 31.0938C126.568 31.125 126.182 31.1406 125.828 31.1406C124.958 31.1406 124.146 31.0365 123.391 30.8281C122.635 30.6198 121.979 30.2734 121.422 29.7891C120.865 29.3047 120.427 28.6953 120.109 27.9609C119.792 27.2214 119.633 26.3516 119.633 25.3516ZM137.578 24.8359L139.742 24.375V26.6016L137.578 26.1328V27.8594C137.891 27.8594 138.193 27.8385 138.484 27.7969C138.776 27.75 139.047 27.6875 139.297 27.6094C139.547 27.5312 139.776 27.4401 139.984 27.3359C140.193 27.2318 140.372 27.1198 140.523 27H141.594V31H131.938V27.8828L132.875 27.7031V23.2734L131.938 23.0938V20H141.594V24H140.523C140.372 23.8854 140.193 23.776 139.984 23.6719C139.776 23.5677 139.547 23.4766 139.297 23.3984C139.047 23.3203 138.776 23.2578 138.484 23.2109C138.193 23.1641 137.891 23.1406 137.578 23.1406V24.8359ZM150.531 31L150.141 29.1484H147.07L146.68 31H142.5V27.375L143.406 27.1953L145.57 20H151.633L153.812 27.1953L154.711 27.375V31H150.531ZM147.547 26.6797H149.664L148.602 22.3594L147.547 26.6797ZM168.094 31H163.422C163.276 30.7292 163.125 30.4427 162.969 30.1406C162.812 29.8333 162.661 29.513 162.516 29.1797C162.37 28.8464 162.232 28.5026 162.102 28.1484C161.977 27.7943 161.87 27.4297 161.781 27.0547H161.523V31H155.883V27.8828L156.82 27.7031V23.2578L155.883 23.0781V20H162.281C163.13 20 163.862 20.0365 164.477 20.1094C165.096 20.1823 165.62 20.2891 166.047 20.4297C166.479 20.5703 166.828 20.7422 167.094 20.9453C167.359 21.1432 167.565 21.3698 167.711 21.625C167.862 21.875 167.964 22.151 168.016 22.4531C168.068 22.7552 168.094 23.0755 168.094 23.4141C168.094 23.7578 168.06 24.0703 167.992 24.3516C167.93 24.6328 167.815 24.8906 167.648 25.125C167.482 25.3594 167.253 25.5755 166.961 25.7734C166.674 25.9661 166.307 26.1484 165.859 26.3203C165.953 26.5078 166.091 26.7318 166.273 26.9922C166.461 27.2474 166.664 27.5104 166.883 27.7812C167.102 28.0469 167.318 28.3047 167.531 28.5547C167.75 28.8047 167.938 29.0182 168.094 29.1953V31ZM161.523 24.9375C161.81 24.9375 162.068 24.9245 162.297 24.8984C162.531 24.8672 162.729 24.8047 162.891 24.7109C163.057 24.612 163.185 24.4688 163.273 24.2812C163.362 24.0938 163.406 23.8411 163.406 23.5234C163.406 23.2109 163.362 22.9609 163.273 22.7734C163.185 22.5859 163.057 22.4427 162.891 22.3438C162.729 22.2396 162.531 22.1719 162.297 22.1406C162.068 22.1094 161.81 22.0938 161.523 22.0938V24.9375Z" fill="#00FFA3"/>
<path d="M18.0755 0.0251045C15.5729 0.259727 14.3901 0.474796 12.8455 0.934261C5.58201 3.12405 1.15355 8.46166 0.11731 16.2921C-0.0391034 17.5141 -0.0391034 21.053 0.11731 22.3531C1.134 30.6137 5.58201 40.0279 11.0272 45.473C13.5396 47.9757 15.7684 49.3345 18.2222 49.8428C19.9623 50.2045 21.5166 49.9504 23.4523 48.9923C30.3833 45.5415 37.5099 33.7518 39.1621 22.9984C39.4065 21.3462 39.4651 17.8172 39.2598 16.2921C38.6048 11.414 36.6301 7.44498 33.5018 4.70774C30.7548 2.30288 27.1671 0.758293 23.0612 0.201069C22.0152 0.064209 18.8576 -0.0531006 18.0755 0.0251045ZM10.3526 26.4003C11.3498 26.6936 12.5229 27.2606 13.3831 27.8765C14.5758 28.727 15.8564 30.2716 16.4625 31.5718C16.8633 32.4223 17.2446 33.8104 17.3228 34.6707C17.4108 35.6385 17.2837 37.6132 17.1273 37.711C16.6776 37.9847 13.9013 37.9261 12.7184 37.6132C11.1054 37.1929 9.56078 36.2935 8.3388 35.0715C7.46875 34.2015 6.90175 33.3901 6.37385 32.2659C5.71887 30.8679 5.58201 30.1641 5.57224 28.3164C5.56246 27.4268 5.59179 26.5861 5.64067 26.4395C5.72865 26.1071 5.92417 26.0777 7.95754 26.1168C9.25773 26.1364 9.59011 26.1755 10.3526 26.4003ZM33.668 26.2635C33.8049 26.4883 33.8929 27.8081 33.8342 28.8932C33.7169 31.2296 32.7491 33.351 31.0383 35.0715C29.8163 36.2935 28.2718 37.1929 26.6587 37.6132C25.4759 37.9261 22.6995 37.9847 22.2498 37.711C22.0934 37.6132 21.9663 35.6385 22.0543 34.6707C22.3378 31.5522 24.2832 28.7172 27.216 27.1238C27.9003 26.7523 28.7801 26.4395 29.7675 26.2146C30.6082 26.0191 33.5409 26.0582 33.668 26.2635Z" fill="#00FFA3"/>
</svg>
