<svg width="20" height="22" viewBox="0 0 20 22" fill="none" xmlns="http://www.w3.org/2000/svg">
<path d="M8.53089 0.18642C5.42014 0.835306 3.15909 3.45846 2.91426 6.67528C2.74144 9.22941 3.86476 11.4798 6.68748 14.1444C8.40127 15.7597 9.35178 16.4086 9.99985 16.4086C10.6479 16.4086 11.5984 15.7597 13.3122 14.1444C16.1349 11.4798 17.2583 9.22941 17.0854 6.67528C16.8406 3.43085 14.5652 0.821501 11.4112 0.18642C10.2303 -0.0620899 9.69742 -0.0620899 8.53089 0.18642ZM7.20594 7.72454C8.30046 8.0835 9.06374 8.93948 9.27977 10.0992C9.42378 10.8171 9.20776 11.0242 8.27166 11.0242C6.48586 11.0242 5.26172 10.0992 4.95929 8.49768C4.81527 7.77977 5.0313 7.57268 5.9674 7.57268C6.37064 7.57268 6.93231 7.64171 7.20594 7.72454ZM14.9684 7.77977C15.0836 7.91783 15.1124 8.16634 15.0404 8.49768C14.738 10.0992 13.5138 11.0242 11.728 11.0242C10.7919 11.0242 10.5759 10.8171 10.7199 10.0992C10.936 8.96709 11.6848 8.0835 12.7362 7.73835C13.413 7.51745 14.7524 7.53126 14.9684 7.77977Z" fill="#00FFA3"/>
<path d="M4.49859 15.3731C3.34646 15.6768 2.61198 16.091 1.76228 16.9056C0.768571 17.8582 0.149302 19.0869 0.0340887 20.3709C-0.0379193 21.1854 -0.0091161 21.3511 0.250113 21.6548L0.538145 22H10H19.4619L19.7499 21.6548C20.0091 21.3511 20.0379 21.1854 19.9659 20.3709C19.8507 19.0869 19.2314 17.8582 18.2377 16.9056C17.3592 16.0634 16.6391 15.663 15.4006 15.3593L14.5509 15.1522L13.37 16.1186C10.5473 18.4242 9.45274 18.4242 6.64443 16.1186C5.99635 15.594 5.42029 15.166 5.36268 15.1798C5.30508 15.1798 4.90183 15.2764 4.49859 15.3731Z" fill="#00FFA3"/>
</svg>
