<svg width="22" height="23" viewBox="0 0 22 23" fill="none" xmlns="http://www.w3.org/2000/svg">
<path d="M1 1H3.17547C3.93125 1 4.30913 1 4.58131 1.21427C4.85348 1.42855 4.94219 1.79588 5.11959 2.53054L5.41317 3.74632C5.62014 4.6034 5.72362 5.03194 5.95723 5.35305C6.17425 5.65136 6.46954 5.88383 6.81045 6.02476C7.17743 6.17647 7.61829 6.17647 8.5 6.17647V6.17647" stroke="#00FFA3" stroke-width="2" stroke-linecap="round"/>
<path d="M18.5001 17.8236H5.47843C4.93409 17.8236 4.66191 17.8236 4.4691 17.7385C4.14081 17.5937 3.91525 17.2841 3.87804 16.9273C3.85618 16.7177 3.9396 16.4586 4.10643 15.9405V15.9405C4.29498 15.3548 4.38926 15.062 4.54474 14.8295C4.80816 14.4356 5.20289 14.148 5.6586 14.0179C5.92758 13.9412 6.2352 13.9412 6.85044 13.9412H13.5001" stroke="#00FFA3" stroke-width="2" stroke-linecap="round" stroke-linejoin="round"/>
<path d="M15.9951 13.9412H7.70402C6.72216 13.9412 5.8855 13.2284 5.72945 12.259L5.0301 7.91486C4.88331 7.00305 5.58748 6.17645 6.51103 6.17645H19.4068C20.1442 6.17645 20.6279 6.94733 20.3073 7.61134L17.7961 12.8109C17.4623 13.502 16.7626 13.9412 15.9951 13.9412Z" fill="#00FFA3" stroke="#00FFA3" stroke-width="2" stroke-linecap="round"/>
<ellipse cx="17.2502" cy="21.7059" rx="1.25" ry="1.29412" fill="#00FFA3"/>
<ellipse cx="7.25024" cy="21.7059" rx="1.25" ry="1.29412" fill="#00FFA3"/>
</svg>
