<svg width="20" height="22" viewBox="0 0 20 22" fill="none" xmlns="http://www.w3.org/2000/svg">
<path d="M8.53095 0.18642C5.4202 0.835306 3.15915 3.45846 2.91432 6.67528C2.7415 9.22941 3.86483 11.4798 6.68754 14.1444C8.40133 15.7597 9.35184 16.4086 9.99991 16.4086C10.648 16.4086 11.5985 15.7597 13.3123 14.1444C16.135 11.4798 17.2583 9.22941 17.0855 6.67528C16.8407 3.43085 14.5652 0.821501 11.4113 0.18642C10.2303 -0.0620899 9.69748 -0.0620899 8.53095 0.18642ZM7.206 7.72454C8.30052 8.0835 9.06381 8.93948 9.27983 10.0992C9.42385 10.8171 9.20782 11.0242 8.27172 11.0242C6.48592 11.0242 5.26178 10.0992 4.95935 8.49768C4.81533 7.77977 5.03136 7.57268 5.96746 7.57268C6.37071 7.57268 6.93237 7.64171 7.206 7.72454ZM14.9685 7.77977C15.0837 7.91783 15.1125 8.16634 15.0405 8.49768C14.738 10.0992 13.5139 11.0242 11.7281 11.0242C10.792 11.0242 10.576 10.8171 10.72 10.0992C10.936 8.96709 11.6849 8.0835 12.7362 7.73835C13.4131 7.51745 14.7524 7.53126 14.9685 7.77977Z" fill="white"/>
<path d="M4.49859 15.3731C3.34646 15.6768 2.61198 16.091 1.76228 16.9056C0.768571 17.8582 0.149302 19.0869 0.0340887 20.3709C-0.0379193 21.1854 -0.0091161 21.3511 0.250113 21.6548L0.538145 22H10H19.4619L19.7499 21.6548C20.0091 21.3511 20.0379 21.1854 19.9659 20.3709C19.8507 19.0869 19.2314 17.8582 18.2377 16.9056C17.3592 16.0634 16.6391 15.663 15.4006 15.3593L14.5509 15.1522L13.37 16.1186C10.5473 18.4242 9.45274 18.4242 6.64443 16.1186C5.99635 15.594 5.42029 15.166 5.36268 15.1798C5.30508 15.1798 4.90183 15.2764 4.49859 15.3731Z" fill="white"/>
</svg>
