<svg width="29" height="24" viewBox="0 0 29 24" fill="none" xmlns="http://www.w3.org/2000/svg">
<path d="M2.80966 0.684811C2.38963 0.821037 2.02636 1.1389 1.87878 1.49649C1.75391 1.79732 1.76526 2.30817 1.90716 2.62035C1.9923 2.80767 2.47477 3.32986 3.70648 4.56725C5.01198 5.87843 5.37525 6.27008 5.30714 6.30981C5.26173 6.33251 4.85305 6.61064 4.39896 6.9285C3.34321 7.65504 2.18529 8.58592 1.16927 9.51679C0.488143 10.1355 0.334889 10.3058 0.181635 10.618C0.0227043 10.9415 0 11.0493 0 11.4467C0 12.0994 0.119198 12.3662 0.647073 12.9168C1.16927 13.456 2.32152 14.4607 3.20699 15.1418C5.31281 16.7652 7.57757 18.0196 9.73448 18.7518C11.6927 19.4102 13.5715 19.677 15.3822 19.5464C16.2336 19.484 17.5221 19.2853 18.0216 19.1378L18.2145 19.081L20.2069 21.0619C21.5067 22.3561 22.2843 23.0883 22.4489 23.1734C22.7895 23.3494 23.3401 23.3551 23.6749 23.1791C23.9417 23.0429 24.2425 22.7194 24.3561 22.4526C24.4866 22.1461 24.4582 21.6466 24.2936 21.3174C24.1858 21.1017 21.9664 18.8539 14.0653 10.9585C7.15754 4.0564 3.90514 0.849417 3.75757 0.781304C3.50782 0.667782 3.014 0.616698 2.80966 0.684811ZM10.4326 11.7475C10.5008 12.7578 10.8754 13.5809 11.6076 14.3188C12.3625 15.0794 13.1912 15.471 14.2186 15.5448L14.7181 15.5788L15.4673 16.3281L16.2109 17.0773L15.7738 17.1738C12.845 17.8152 9.89909 16.1465 8.94551 13.3084C8.639 12.3946 8.57656 11.1174 8.79793 10.1752L8.89442 9.75519L9.64934 10.5101L10.3986 11.2594L10.4326 11.7475Z" fill="#00FFA3"/>
<path d="M13.2538 3.398C12.4535 3.47179 10.3647 3.89749 10.2568 4.01101C10.2398 4.02804 10.6769 4.49916 11.2331 5.05541L12.2435 6.06576L12.7089 5.90683C14.0144 5.46977 15.6207 5.55491 16.9149 6.13955C17.8514 6.55958 18.8561 7.42234 19.4123 8.29078C20.3546 9.74386 20.5986 11.5943 20.0708 13.2403L19.9118 13.7341L21.5182 15.3405C23.0677 16.89 23.1302 16.9411 23.2664 16.8787C23.5389 16.7595 24.7422 15.9421 25.5141 15.3575C26.5642 14.5629 27.2964 13.9442 28.074 13.1892C28.8857 12.4059 28.9993 12.1959 28.9993 11.4751C29.0049 11.038 28.9879 10.9529 28.8233 10.618C28.67 10.3115 28.5168 10.1355 28.0003 9.65304C24.7081 6.61066 21.3025 4.62403 17.8798 3.76127C16.8411 3.50017 16.0578 3.40367 14.758 3.38665C14.0712 3.38097 13.3957 3.38097 13.2538 3.398Z" fill="#00FFA3"/>
<path d="M13.7758 7.4337C13.6623 7.46775 13.9347 7.75723 16.0803 9.90279L18.5153 12.3378L18.555 12.0711C18.7934 10.3228 17.8853 8.57459 16.3414 7.81399C15.7454 7.51884 15.1607 7.38829 14.4796 7.39396C14.1617 7.39964 13.8496 7.41667 13.7758 7.4337Z" fill="#00FFA3"/>
</svg>
