<svg width="172" height="50" viewBox="0 0 172 50" fill="none" xmlns="http://www.w3.org/2000/svg">
<path d="M67.9922 31L67.5703 28.9844H64.3047L63.8906 31H59.4453V27.0625L60.4062 26.8672L62.7109 19H69.1641L71.4766 26.8672L72.4375 27.0625V31H67.9922ZM64.9766 26.3047H66.8984L65.9375 21.7812L64.9766 26.3047ZM79.6875 28C79.9375 28 80.1719 27.9714 80.3906 27.9141C80.6094 27.8516 80.8125 27.7734 81 27.6797C81.1875 27.5859 81.3568 27.4792 81.5078 27.3594C81.6641 27.2396 81.7995 27.1198 81.9141 27H83.2188V31H73.6875V27.6094L74.6875 27.4141V22.5859L73.6875 22.3906V19H80.6875V22.3906L79.6875 22.5859V28ZM84.2812 19H91.2812V22.3906L90.2812 22.5859V27.4141L91.2812 27.6094V31H84.2812V27.6094L85.2812 27.4141V22.5859L84.2812 22.3906V19ZM98.875 28C99.2292 28 99.5625 27.9714 99.875 27.9141C100.188 27.8516 100.474 27.7734 100.734 27.6797C101 27.5859 101.24 27.4792 101.453 27.3594C101.667 27.2396 101.854 27.1198 102.016 27H103.32V31H92.875V27.6094L93.875 27.4141V22.6016L92.875 22.4062V19H103.32V23H102.062C101.896 22.8854 101.703 22.7682 101.484 22.6484C101.266 22.5286 101.021 22.4219 100.75 22.3281C100.484 22.2292 100.195 22.151 99.8828 22.0938C99.5703 22.0312 99.2344 22 98.875 22V24.1328L101.219 23.625V26.3906L98.875 25.8828V28ZM108.547 25.1484V27.4141L109.547 27.6016V31H104.547V27.6094L105.547 27.4141V22.5859L104.547 22.3906V19H110.547L114.547 25.1484V22.6016L113.547 22.3906V19H118.547V22.3906L117.547 22.5859V27.4141L118.547 27.6094V31H112.539L108.547 25.1484ZM119.742 24.8594C119.742 23.7708 119.898 22.8516 120.211 22.1016C120.529 21.3516 120.979 20.737 121.562 20.2578C122.12 19.7995 122.773 19.4453 123.523 19.1953C124.273 18.9453 125.135 18.8203 126.109 18.8203C126.781 18.8203 127.378 18.849 127.898 18.9062C128.419 18.9635 128.883 19.0391 129.289 19.1328C129.701 19.2266 130.065 19.3333 130.383 19.4531C130.706 19.5729 131.005 19.6979 131.281 19.8281V23.3984H128.93C128.664 23.0234 128.367 22.7474 128.039 22.5703C127.716 22.3932 127.383 22.3047 127.039 22.3047C126.747 22.3047 126.464 22.362 126.188 22.4766C125.917 22.5911 125.674 22.7578 125.461 22.9766C125.247 23.1953 125.076 23.4635 124.945 23.7812C124.815 24.0938 124.75 24.4531 124.75 24.8594C124.75 25.7604 124.953 26.4193 125.359 26.8359C125.771 27.2526 126.354 27.4609 127.109 27.4609C127.297 27.4609 127.484 27.4505 127.672 27.4297C127.865 27.4089 128.057 27.3776 128.25 27.3359V26.3906H126.75V24.25H131.609V29.9531C131.198 30.125 130.76 30.2891 130.297 30.4453C129.839 30.5964 129.378 30.7292 128.914 30.8438C128.456 30.9531 128.005 31.0286 127.562 31.0703C127.12 31.1172 126.711 31.1406 126.336 31.1406C125.721 31.1406 125.133 31.0964 124.57 31.0078C124.008 30.9193 123.482 30.7604 122.992 30.5312C122.508 30.3021 122.065 30.0156 121.664 29.6719C121.263 29.3229 120.919 28.9141 120.633 28.4453C120.352 27.9714 120.133 27.4375 119.977 26.8438C119.82 26.2448 119.742 25.5833 119.742 24.8594ZM138.844 28C139.198 28 139.531 27.9714 139.844 27.9141C140.156 27.8516 140.443 27.7734 140.703 27.6797C140.969 27.5859 141.208 27.4792 141.422 27.3594C141.635 27.2396 141.823 27.1198 141.984 27H143.289V31H132.844V27.6094L133.844 27.4141V22.6016L132.844 22.4062V19H143.289V23H142.031C141.865 22.8854 141.672 22.7682 141.453 22.6484C141.234 22.5286 140.99 22.4219 140.719 22.3281C140.453 22.2292 140.164 22.151 139.852 22.0938C139.539 22.0312 139.203 22 138.844 22V24.1328L141.188 23.625V26.3906L138.844 25.8828V28ZM152.711 31L152.289 28.9844H149.023L148.609 31H144.164V27.0625L145.125 26.8672L147.43 19H153.883L156.195 26.8672L157.156 27.0625V31H152.711ZM149.695 26.3047H151.617L150.656 21.7812L149.695 26.3047ZM171.398 31H166.43C166.273 30.7031 166.112 30.388 165.945 30.0547C165.779 29.7214 165.617 29.375 165.461 29.0156C165.305 28.6562 165.159 28.2839 165.023 27.8984C164.888 27.513 164.773 27.1172 164.68 26.7109H164.406V31H158.406V27.6094L159.406 27.4141V22.5859L158.406 22.3906V19H165.211C166.112 19 166.891 19.0417 167.547 19.125C168.203 19.2083 168.76 19.3281 169.219 19.4844C169.677 19.6354 170.047 19.8229 170.328 20.0469C170.615 20.2656 170.836 20.5156 170.992 20.7969C171.154 21.0729 171.26 21.3776 171.312 21.7109C171.37 22.0391 171.398 22.388 171.398 22.7578C171.398 23.1328 171.362 23.474 171.289 23.7812C171.221 24.0833 171.099 24.362 170.922 24.6172C170.745 24.8724 170.503 25.1068 170.195 25.3203C169.888 25.5286 169.497 25.7266 169.023 25.9141C169.122 26.1224 169.271 26.3672 169.469 26.6484C169.667 26.9245 169.88 27.2083 170.109 27.5C170.339 27.7865 170.568 28.0677 170.797 28.3438C171.031 28.6146 171.232 28.8464 171.398 29.0391V31ZM164.406 24.4062C164.708 24.4062 164.982 24.3932 165.227 24.3672C165.477 24.3411 165.688 24.2812 165.859 24.1875C166.036 24.0938 166.172 23.9557 166.266 23.7734C166.359 23.5911 166.406 23.3464 166.406 23.0391C166.406 22.737 166.359 22.4974 166.266 22.3203C166.172 22.138 166.036 21.9974 165.859 21.8984C165.688 21.7995 165.477 21.7344 165.227 21.7031C164.982 21.6719 164.708 21.6562 164.406 21.6562V24.4062Z" fill="#00FFA3"/>
<path d="M18.0755 0.0251045C15.5729 0.259727 14.3901 0.474796 12.8455 0.934261C5.58201 3.12405 1.15355 8.46166 0.11731 16.2921C-0.0391034 17.5141 -0.0391034 21.053 0.11731 22.3531C1.134 30.6137 5.58201 40.0279 11.0272 45.473C13.5396 47.9757 15.7684 49.3345 18.2222 49.8428C19.9623 50.2045 21.5166 49.9504 23.4523 48.9923C30.3833 45.5415 37.5099 33.7518 39.1621 22.9984C39.4065 21.3462 39.4651 17.8172 39.2598 16.2921C38.6048 11.414 36.6301 7.44498 33.5018 4.70774C30.7548 2.30288 27.1671 0.758293 23.0612 0.201069C22.0152 0.064209 18.8576 -0.0531006 18.0755 0.0251045ZM10.3526 26.4003C11.3498 26.6936 12.5229 27.2606 13.3831 27.8765C14.5758 28.727 15.8564 30.2716 16.4625 31.5718C16.8633 32.4223 17.2446 33.8104 17.3228 34.6707C17.4108 35.6385 17.2837 37.6132 17.1273 37.711C16.6776 37.9847 13.9013 37.9261 12.7184 37.6132C11.1054 37.1929 9.56078 36.2935 8.3388 35.0715C7.46875 34.2015 6.90175 33.3901 6.37385 32.2659C5.71887 30.8679 5.58201 30.1641 5.57224 28.3164C5.56246 27.4268 5.59179 26.5861 5.64067 26.4395C5.72865 26.1071 5.92417 26.0777 7.95754 26.1168C9.25773 26.1364 9.59011 26.1755 10.3526 26.4003ZM33.668 26.2635C33.8049 26.4883 33.8929 27.8081 33.8342 28.8932C33.7169 31.2296 32.7491 33.351 31.0383 35.0715C29.8163 36.2935 28.2718 37.1929 26.6587 37.6132C25.4759 37.9261 22.6995 37.9847 22.2498 37.711C22.0934 37.6132 21.9663 35.6385 22.0543 34.6707C22.3378 31.5522 24.2832 28.7172 27.216 27.1238C27.9003 26.7523 28.7801 26.4395 29.7675 26.2146C30.6082 26.0191 33.5409 26.0582 33.668 26.2635Z" fill="#00FFA3"/>
</svg>
