<?xml version="1.0" standalone="no"?>
<!DOCTYPE svg PUBLIC "-//W3C//DTD SVG 20010904//EN"
 "http://www.w3.org/TR/2001/REC-SVG-20010904/DTD/svg10.dtd">
<svg version="1.0" xmlns="http://www.w3.org/2000/svg"
 width="512.000000pt" height="512.000000pt" viewBox="0 0 512.000000 512.000000"
 preserveAspectRatio="xMidYMid meet">

<g transform="translate(0.000000,512.000000) scale(0.100000,-0.100000)"
fill="#000000" stroke="none">
<path d="M1940 5079 c-493 -25 -971 -242 -1334 -605 -295 -295 -496 -674 -570
-1075 -168 -910 277 -1807 1104 -2228 454 -231 994 -284 1489 -145 177 50 429
163 557 252 l59 40 605 -602 c546 -545 611 -606 670 -635 305 -147 651 109
591 437 -24 130 -23 129 -680 786 l-608 608 82 161 c138 272 201 499 226 802
44 550 -154 1119 -535 1533 -193 211 -404 365 -661 484 -154 71 -211 92 -354
128 -214 54 -401 71 -641 59z m355 -684 c555 -91 1005 -512 1133 -1060 108
-461 -25 -943 -353 -1284 -270 -280 -622 -431 -1007 -431 -371 0 -721 146
-987 411 -196 197 -323 433 -383 712 -31 146 -31 399 1 546 82 384 296 696
621 906 166 108 344 172 570 208 66 11 323 6 405 -8z"/>
</g>
</svg>
